G04*
G04 #@! TF.GenerationSoftware,Altium Limited,Altium Designer,19.0.15 (446)*
G04*
G04 Layer_Color=32768*
%FSLAX25Y25*%
%MOIN*%
G70*
G01*
G75*
%ADD14C,0.00600*%
%ADD97C,0.00394*%
%ADD101C,0.00197*%
G36*
X145912Y76458D02*
X142484D01*
Y87771D01*
X145912D01*
Y88814D01*
X154812D01*
Y87771D01*
X158240D01*
Y76458D01*
X154812D01*
Y75414D01*
X145912D01*
Y76458D01*
D02*
G37*
D14*
X142484D02*
Y87771D01*
X145912D01*
Y88814D01*
X154812D01*
Y87771D02*
Y88814D01*
Y87771D02*
X158240D01*
Y76458D02*
Y87771D01*
X154812Y76458D02*
X158240D01*
X154812Y75414D02*
Y76458D01*
X145912Y75414D02*
X154812D01*
X145912D02*
Y76458D01*
X142484D02*
X145912D01*
D97*
X98586Y32500D02*
X102130D01*
X100358Y30728D02*
Y34272D01*
X195161Y100907D02*
Y104844D01*
X193193Y102875D02*
X197130D01*
X8032Y88817D02*
X11969D01*
X10000Y86849D02*
Y90786D01*
X8032Y80000D02*
X11969D01*
X10000Y78031D02*
Y81968D01*
X171221Y72129D02*
X198779D01*
X171221Y44570D02*
Y72129D01*
Y44570D02*
X198779D01*
Y72129D01*
X136642Y63422D02*
Y67359D01*
X134673Y65390D02*
X138610D01*
X118488Y87890D02*
X122031D01*
X120260Y86119D02*
Y89662D01*
X117504Y94817D02*
X121441D01*
X119472Y92849D02*
Y96786D01*
X108488Y114752D02*
X112031D01*
X110260Y112980D02*
Y116524D01*
X130270Y110728D02*
Y114272D01*
X128498Y112500D02*
X132041D01*
X265954Y136555D02*
X269300Y133209D01*
X251300Y136555D02*
X269300D01*
X251300Y95055D02*
Y136555D01*
Y95055D02*
X269300D01*
Y136555D01*
X183642Y83031D02*
Y86968D01*
X181673Y85000D02*
X185610D01*
X52205Y93032D02*
Y96969D01*
X50236Y95000D02*
X54173D01*
X28839Y104311D02*
Y108248D01*
X26870Y106280D02*
X30807D01*
X101185Y116024D02*
Y119567D01*
X99413Y117795D02*
X102957D01*
X137102Y115807D02*
Y119350D01*
X135331Y117579D02*
X138874D01*
X95000Y121551D02*
Y125094D01*
X93228Y123323D02*
X96772D01*
X143370Y121929D02*
Y125472D01*
X141598Y123701D02*
X145142D01*
X99402Y138031D02*
Y141969D01*
X97433Y140000D02*
X101370D01*
X135260Y138031D02*
Y141969D01*
X133291Y140000D02*
X137228D01*
X87500Y118642D02*
Y122579D01*
X85532Y120610D02*
X89468D01*
X144000Y134390D02*
Y138327D01*
X142032Y136358D02*
X145968D01*
X115287Y142008D02*
X119224D01*
X117256Y140039D02*
Y143976D01*
X222500Y98228D02*
Y101772D01*
X220728Y100000D02*
X224272D01*
X230374Y98228D02*
Y101772D01*
X228602Y100000D02*
X232146D01*
X240354Y140551D02*
X243898D01*
X242126Y138779D02*
Y142323D01*
X240158Y147638D02*
X244094D01*
X242126Y145669D02*
Y149606D01*
X149374Y45000D02*
X152917D01*
X151146Y43228D02*
Y46772D01*
X9173Y17500D02*
X12323D01*
X10748Y15925D02*
Y19075D01*
X152228Y93685D02*
X155772D01*
X154000Y91913D02*
Y95457D01*
X150728Y108642D02*
X154272D01*
X152500Y106870D02*
Y110413D01*
X152032Y101559D02*
X155968D01*
X154000Y99590D02*
Y103527D01*
X155000Y55532D02*
Y59469D01*
X153032Y57500D02*
X156968D01*
X137134Y77720D02*
Y81657D01*
X135165Y79689D02*
X139102D01*
X51181Y111221D02*
X78740D01*
X51181D02*
Y138779D01*
X78740D01*
Y111221D02*
Y138779D01*
X67500Y91716D02*
Y95653D01*
X65531Y93685D02*
X69468D01*
X33031Y75000D02*
X36968D01*
X35000Y73032D02*
Y76968D01*
X122500Y53228D02*
Y56772D01*
X120728Y55000D02*
X124272D01*
X36358Y85256D02*
Y88799D01*
X34587Y87028D02*
X38130D01*
X122500Y60728D02*
Y64272D01*
X120728Y62500D02*
X124272D01*
X35000Y91913D02*
Y95457D01*
X33228Y93685D02*
X36772D01*
X9173Y72500D02*
X12323D01*
X10748Y70925D02*
Y74075D01*
X9528Y106673D02*
Y110610D01*
X7559Y108642D02*
X11496D01*
X40000Y118032D02*
Y121968D01*
X38032Y120000D02*
X41969D01*
X78031Y95000D02*
X81968D01*
X80000Y93032D02*
Y96969D01*
D101*
X95043Y29744D02*
Y35256D01*
X105673Y29744D02*
Y35256D01*
X95043D02*
X105673D01*
X95043Y29744D02*
X105673D01*
X191421Y96183D02*
X198901D01*
X191421Y109568D02*
X198901D01*
X191421Y96183D02*
Y109568D01*
X198901Y96183D02*
Y109568D01*
X19055Y84290D02*
Y93345D01*
X945Y84290D02*
Y93345D01*
Y84290D02*
X19055D01*
X945Y93345D02*
X19055D01*
Y75472D02*
Y84528D01*
X945Y75472D02*
Y84528D01*
Y75472D02*
X19055D01*
X945Y84528D02*
X19055D01*
X132902Y72083D02*
X140382D01*
X132902Y58697D02*
X140382D01*
Y72083D01*
X132902Y58697D02*
Y72083D01*
X125575Y85134D02*
Y90646D01*
X114945Y85134D02*
Y90646D01*
Y85134D02*
X125575D01*
X114945Y90646D02*
X125575D01*
X112779Y91077D02*
Y98557D01*
X126165Y91077D02*
Y98557D01*
X112779D02*
X126165D01*
X112779Y91077D02*
X126165D01*
X104945Y111996D02*
Y117508D01*
X115575Y111996D02*
Y117508D01*
X104945D02*
X115575D01*
X104945Y111996D02*
X115575D01*
X127514Y107185D02*
X133026D01*
X127514Y117815D02*
X133026D01*
X127514Y107185D02*
Y117815D01*
X133026Y107185D02*
Y117815D01*
X176949Y81260D02*
X190335D01*
X176949Y88740D02*
X190335D01*
Y81260D02*
Y88740D01*
X176949Y81260D02*
Y88740D01*
X44528Y83386D02*
X59882D01*
X44528Y106614D02*
X59882D01*
X44528Y83386D02*
Y106614D01*
X59882Y83386D02*
Y106614D01*
X16535Y97224D02*
X41142D01*
X16535Y115335D02*
X41142D01*
Y97224D02*
Y115335D01*
X16535Y97224D02*
Y115335D01*
X98429Y123110D02*
X103941D01*
X98429Y112480D02*
X103941D01*
Y123110D01*
X98429Y112480D02*
Y123110D01*
X134346Y122894D02*
X139858D01*
X134346Y112264D02*
X139858D01*
Y122894D01*
X134346Y112264D02*
Y122894D01*
X129756Y118366D02*
Y136634D01*
X104756D02*
X129756D01*
X104756Y118366D02*
Y136634D01*
Y118366D02*
X129756D01*
X92244Y128638D02*
X97756D01*
X92244Y118008D02*
X97756D01*
Y128638D01*
X92244Y118008D02*
Y128638D01*
X140614Y129016D02*
X146126D01*
X140614Y118386D02*
X146126D01*
Y129016D01*
X140614Y118386D02*
Y129016D01*
X95661Y146693D02*
X103142D01*
X95661Y133307D02*
X103142D01*
Y146693D01*
X95661Y133307D02*
Y146693D01*
X131520Y133307D02*
X139000D01*
X131520Y146693D02*
X139000D01*
X131520Y133307D02*
Y146693D01*
X139000Y133307D02*
Y146693D01*
X83760Y127303D02*
X91240D01*
X83760Y113917D02*
X91240D01*
Y127303D01*
X83760Y113917D02*
Y127303D01*
X140260Y129665D02*
X147740D01*
X140260Y143051D02*
X147740D01*
X140260Y129665D02*
Y143051D01*
X147740Y129665D02*
Y143051D01*
X123949Y138268D02*
Y145748D01*
X110563Y138268D02*
Y145748D01*
Y138268D02*
X123949D01*
X110563Y145748D02*
X123949D01*
X219744Y105315D02*
X225256D01*
X219744Y94685D02*
X225256D01*
Y105315D01*
X219744Y94685D02*
Y105315D01*
X227618Y94685D02*
X233130D01*
X227618Y105315D02*
X233130D01*
X227618Y94685D02*
Y105315D01*
X233130Y94685D02*
Y105315D01*
X247441Y137795D02*
Y143307D01*
X236811Y137795D02*
Y143307D01*
Y137795D02*
X247441D01*
X236811Y143307D02*
X247441D01*
X235433Y143898D02*
Y151378D01*
X248819Y143898D02*
Y151378D01*
X235433D02*
X248819D01*
X235433Y143898D02*
X248819D01*
X156461Y42244D02*
Y47756D01*
X145831Y42244D02*
Y47756D01*
Y42244D02*
X156461D01*
X145831Y47756D02*
X156461D01*
X17047Y14547D02*
Y20453D01*
X4449Y14547D02*
Y20453D01*
Y14547D02*
X17047D01*
X4449Y20453D02*
X17047D01*
X159315Y90929D02*
Y96441D01*
X148685Y90929D02*
Y96441D01*
Y90929D02*
X159315D01*
X148685Y96441D02*
X159315D01*
X147185Y105886D02*
Y111398D01*
X157815Y105886D02*
Y111398D01*
X147185D02*
X157815D01*
X147185Y105886D02*
X157815D01*
X147307Y97819D02*
Y105299D01*
X160693Y97819D02*
Y105299D01*
X147307D02*
X160693D01*
X147307Y97819D02*
X160693D01*
X151260Y50807D02*
X158740D01*
X151260Y64193D02*
X158740D01*
X151260Y50807D02*
Y64193D01*
X158740Y50807D02*
Y64193D01*
X133394Y72996D02*
X140874D01*
X133394Y86382D02*
X140874D01*
X133394Y72996D02*
Y86382D01*
X140874Y72996D02*
Y86382D01*
X61004Y81874D02*
X73996D01*
X61004Y105496D02*
X73996D01*
X61004Y81874D02*
Y105496D01*
X73996Y81874D02*
Y105496D01*
X46811Y68504D02*
Y81496D01*
X23189Y68504D02*
Y81496D01*
Y68504D02*
X46811D01*
X23189Y81496D02*
X46811D01*
X117185Y57756D02*
X127815D01*
X117185Y52244D02*
X127815D01*
X117185D02*
Y57756D01*
X127815Y52244D02*
Y57756D01*
X31043Y84272D02*
X41673D01*
X31043Y89784D02*
X41673D01*
Y84272D02*
Y89784D01*
X31043Y84272D02*
Y89784D01*
X117185Y59744D02*
X127815D01*
X117185Y65256D02*
X127815D01*
Y59744D02*
Y65256D01*
X117185Y59744D02*
Y65256D01*
X29685Y90929D02*
X40315D01*
X29685Y96441D02*
X40315D01*
Y90929D02*
Y96441D01*
X29685Y90929D02*
Y96441D01*
X17047Y69547D02*
Y75453D01*
X4449Y69547D02*
Y75453D01*
Y69547D02*
X17047D01*
X4449Y75453D02*
X17047D01*
X2835Y112382D02*
X16220D01*
X2835Y104902D02*
X16220D01*
X2835D02*
Y112382D01*
X16220Y104902D02*
Y112382D01*
X33307Y123740D02*
X46693D01*
X33307Y116260D02*
X46693D01*
X33307D02*
Y123740D01*
X46693Y116260D02*
Y123740D01*
X83740Y88307D02*
Y101693D01*
X76260Y88307D02*
Y101693D01*
X83740D01*
X76260Y88307D02*
X83740D01*
M02*
