%TF.GenerationSoftware,Altium Limited,Altium Designer,19.0.15 (446)*%
G04 Layer_Physical_Order=3*
G04 Layer_Color=16711680*
%FSLAX25Y25*%
%MOIN*%
%TF.FileFunction,Copper,L3,Bot,Signal*%
%TF.Part,Single*%
G01*
G75*
%TA.AperFunction,Conductor*%
%ADD27C,0.01000*%
%ADD28C,0.02756*%
%ADD29C,0.01968*%
%ADD32C,0.01575*%
%TA.AperFunction,ViaPad*%
%ADD33C,0.06000*%
%TA.AperFunction,ComponentPad*%
%ADD34O,0.07874X0.11811*%
%ADD35R,0.07874X0.11811*%
%ADD36R,0.15748X0.49213*%
%ADD37O,0.12000X0.04800*%
%ADD38R,0.12000X0.04800*%
%ADD39O,0.09843X0.06299*%
%ADD40C,0.07854*%
%ADD41R,0.07854X0.07854*%
%ADD42O,0.12000X0.08000*%
%ADD43C,0.07677*%
%ADD44R,0.07677X0.07677*%
%ADD45O,0.07874X0.09843*%
%ADD46O,0.06000X0.12000*%
%ADD47O,0.11811X0.19291*%
%ADD48O,0.19291X0.11811*%
%ADD49C,0.06000*%
%ADD50R,0.06000X0.06000*%
%TA.AperFunction,ViaPad*%
%ADD51C,0.12598*%
%ADD52C,0.02165*%
%TA.AperFunction,Conductor*%
%ADD53C,0.03937*%
G36*
X260000Y200551D02*
Y160000D01*
X270000Y150000D01*
Y15000D01*
X260000Y5000D01*
Y551D01*
X260089Y462D01*
X259898Y0D01*
X0D01*
Y210000D01*
X250551D01*
X260000Y200551D01*
D02*
G37*
%LPC*%
G36*
X254000Y204000D02*
X246000D01*
Y196000D01*
X254000D01*
Y204000D01*
D02*
G37*
G36*
X168000D02*
X160000D01*
Y196000D01*
X168000D01*
Y204000D01*
D02*
G37*
G36*
X240000Y204034D02*
X238956Y203897D01*
X237983Y203494D01*
X237147Y202853D01*
X236506Y202017D01*
X236103Y201044D01*
X235965Y200000D01*
X236103Y198956D01*
X236506Y197983D01*
X237147Y197147D01*
X237983Y196506D01*
X238956Y196103D01*
X240000Y195966D01*
X241044Y196103D01*
X242017Y196506D01*
X242853Y197147D01*
X243494Y197983D01*
X243897Y198956D01*
X244035Y200000D01*
X243897Y201044D01*
X243494Y202017D01*
X242853Y202853D01*
X242017Y203494D01*
X241044Y203897D01*
X240000Y204034D01*
D02*
G37*
G36*
X220000D02*
X218956Y203897D01*
X217983Y203494D01*
X217147Y202853D01*
X216506Y202017D01*
X216103Y201044D01*
X215966Y200000D01*
X216103Y198956D01*
X216506Y197983D01*
X217147Y197147D01*
X217983Y196506D01*
X218956Y196103D01*
X220000Y195966D01*
X221044Y196103D01*
X222017Y196506D01*
X222853Y197147D01*
X223494Y197983D01*
X223897Y198956D01*
X224035Y200000D01*
X223897Y201044D01*
X223494Y202017D01*
X222853Y202853D01*
X222017Y203494D01*
X221044Y203897D01*
X220000Y204034D01*
D02*
G37*
G36*
X210000D02*
X208956Y203897D01*
X207983Y203494D01*
X207147Y202853D01*
X206506Y202017D01*
X206103Y201044D01*
X205965Y200000D01*
X206103Y198956D01*
X206506Y197983D01*
X207147Y197147D01*
X207983Y196506D01*
X208956Y196103D01*
X210000Y195966D01*
X211044Y196103D01*
X212017Y196506D01*
X212853Y197147D01*
X213494Y197983D01*
X213897Y198956D01*
X214035Y200000D01*
X213897Y201044D01*
X213494Y202017D01*
X212853Y202853D01*
X212017Y203494D01*
X211044Y203897D01*
X210000Y204034D01*
D02*
G37*
G36*
X190000D02*
X188956Y203897D01*
X187983Y203494D01*
X187147Y202853D01*
X186506Y202017D01*
X186103Y201044D01*
X185966Y200000D01*
X186103Y198956D01*
X186506Y197983D01*
X187147Y197147D01*
X187983Y196506D01*
X188956Y196103D01*
X190000Y195966D01*
X191044Y196103D01*
X192017Y196506D01*
X192853Y197147D01*
X193494Y197983D01*
X193897Y198956D01*
X194035Y200000D01*
X193897Y201044D01*
X193494Y202017D01*
X192853Y202853D01*
X192017Y203494D01*
X191044Y203897D01*
X190000Y204034D01*
D02*
G37*
G36*
X180000D02*
X178956Y203897D01*
X177983Y203494D01*
X177147Y202853D01*
X176506Y202017D01*
X176103Y201044D01*
X175965Y200000D01*
X176103Y198956D01*
X176506Y197983D01*
X177147Y197147D01*
X177983Y196506D01*
X178956Y196103D01*
X180000Y195966D01*
X181044Y196103D01*
X182017Y196506D01*
X182853Y197147D01*
X183494Y197983D01*
X183897Y198956D01*
X184035Y200000D01*
X183897Y201044D01*
X183494Y202017D01*
X182853Y202853D01*
X182017Y203494D01*
X181044Y203897D01*
X180000Y204034D01*
D02*
G37*
G36*
X154000D02*
X152956Y203897D01*
X151983Y203494D01*
X151147Y202853D01*
X150506Y202017D01*
X150103Y201044D01*
X149966Y200000D01*
X150103Y198956D01*
X150506Y197983D01*
X151147Y197147D01*
X151983Y196506D01*
X152956Y196103D01*
X154000Y195966D01*
X155044Y196103D01*
X156017Y196506D01*
X156853Y197147D01*
X157494Y197983D01*
X157897Y198956D01*
X158035Y200000D01*
X157897Y201044D01*
X157494Y202017D01*
X156853Y202853D01*
X156017Y203494D01*
X155044Y203897D01*
X154000Y204034D01*
D02*
G37*
G36*
X144000D02*
X142956Y203897D01*
X141983Y203494D01*
X141147Y202853D01*
X140506Y202017D01*
X140103Y201044D01*
X139965Y200000D01*
X140103Y198956D01*
X140506Y197983D01*
X141147Y197147D01*
X141983Y196506D01*
X142956Y196103D01*
X144000Y195966D01*
X145044Y196103D01*
X146017Y196506D01*
X146853Y197147D01*
X147494Y197983D01*
X147897Y198956D01*
X148035Y200000D01*
X147897Y201044D01*
X147494Y202017D01*
X146853Y202853D01*
X146017Y203494D01*
X145044Y203897D01*
X144000Y204034D01*
D02*
G37*
G36*
X134000D02*
X132956Y203897D01*
X131983Y203494D01*
X131147Y202853D01*
X130506Y202017D01*
X130103Y201044D01*
X129965Y200000D01*
X130103Y198956D01*
X130506Y197983D01*
X131147Y197147D01*
X131983Y196506D01*
X132956Y196103D01*
X134000Y195966D01*
X135044Y196103D01*
X136017Y196506D01*
X136853Y197147D01*
X137494Y197983D01*
X137897Y198956D01*
X138034Y200000D01*
X137897Y201044D01*
X137494Y202017D01*
X136853Y202853D01*
X136017Y203494D01*
X135044Y203897D01*
X134000Y204034D01*
D02*
G37*
G36*
X124000D02*
X122956Y203897D01*
X121983Y203494D01*
X121147Y202853D01*
X120506Y202017D01*
X120103Y201044D01*
X119966Y200000D01*
X120103Y198956D01*
X120506Y197983D01*
X121147Y197147D01*
X121983Y196506D01*
X122956Y196103D01*
X124000Y195966D01*
X125044Y196103D01*
X126017Y196506D01*
X126853Y197147D01*
X127494Y197983D01*
X127897Y198956D01*
X128034Y200000D01*
X127897Y201044D01*
X127494Y202017D01*
X126853Y202853D01*
X126017Y203494D01*
X125044Y203897D01*
X124000Y204034D01*
D02*
G37*
G36*
X114000D02*
X112956Y203897D01*
X111983Y203494D01*
X111147Y202853D01*
X110506Y202017D01*
X110103Y201044D01*
X109966Y200000D01*
X110103Y198956D01*
X110506Y197983D01*
X111147Y197147D01*
X111983Y196506D01*
X112956Y196103D01*
X114000Y195966D01*
X115044Y196103D01*
X116017Y196506D01*
X116853Y197147D01*
X117494Y197983D01*
X117897Y198956D01*
X118035Y200000D01*
X117897Y201044D01*
X117494Y202017D01*
X116853Y202853D01*
X116017Y203494D01*
X115044Y203897D01*
X114000Y204034D01*
D02*
G37*
G36*
X94000D02*
X92956Y203897D01*
X91983Y203494D01*
X91147Y202853D01*
X90506Y202017D01*
X90103Y201044D01*
X89965Y200000D01*
X90103Y198956D01*
X90506Y197983D01*
X91147Y197147D01*
X91983Y196506D01*
X92956Y196103D01*
X94000Y195966D01*
X95044Y196103D01*
X96017Y196506D01*
X96853Y197147D01*
X97494Y197983D01*
X97897Y198956D01*
X98035Y200000D01*
X97897Y201044D01*
X97494Y202017D01*
X96853Y202853D01*
X96017Y203494D01*
X95044Y203897D01*
X94000Y204034D01*
D02*
G37*
G36*
X84000D02*
X82956Y203897D01*
X81983Y203494D01*
X81147Y202853D01*
X80506Y202017D01*
X80103Y201044D01*
X79966Y200000D01*
X80103Y198956D01*
X80506Y197983D01*
X81147Y197147D01*
X81983Y196506D01*
X82956Y196103D01*
X84000Y195966D01*
X85044Y196103D01*
X86017Y196506D01*
X86853Y197147D01*
X87494Y197983D01*
X87897Y198956D01*
X88034Y200000D01*
X87897Y201044D01*
X87494Y202017D01*
X86853Y202853D01*
X86017Y203494D01*
X85044Y203897D01*
X84000Y204034D01*
D02*
G37*
G36*
X74000D02*
X72956Y203897D01*
X71983Y203494D01*
X71147Y202853D01*
X70506Y202017D01*
X70103Y201044D01*
X69965Y200000D01*
X70103Y198956D01*
X70506Y197983D01*
X71147Y197147D01*
X71983Y196506D01*
X72956Y196103D01*
X74000Y195966D01*
X75044Y196103D01*
X76017Y196506D01*
X76853Y197147D01*
X77494Y197983D01*
X77897Y198956D01*
X78035Y200000D01*
X77897Y201044D01*
X77494Y202017D01*
X76853Y202853D01*
X76017Y203494D01*
X75044Y203897D01*
X74000Y204034D01*
D02*
G37*
G36*
X230000D02*
X228956Y203897D01*
X227983Y203494D01*
X227147Y202853D01*
X226506Y202017D01*
X226103Y201044D01*
X225965Y200000D01*
X226103Y198956D01*
X226506Y197983D01*
X227147Y197147D01*
X227983Y196506D01*
X228956Y196103D01*
X230000Y195966D01*
X231044Y196103D01*
X231532Y196305D01*
X233801Y194036D01*
X233482Y193648D01*
X233085Y193913D01*
X232500Y194029D01*
X208134D01*
X203695Y198468D01*
X203897Y198956D01*
X204034Y200000D01*
X203897Y201044D01*
X203494Y202017D01*
X202853Y202853D01*
X202017Y203494D01*
X201044Y203897D01*
X200000Y204034D01*
X198956Y203897D01*
X197983Y203494D01*
X197147Y202853D01*
X196506Y202017D01*
X196103Y201044D01*
X195966Y200000D01*
X196103Y198956D01*
X196506Y197983D01*
X197147Y197147D01*
X197983Y196506D01*
X198956Y196103D01*
X200000Y195966D01*
X201044Y196103D01*
X201532Y196305D01*
X206419Y191419D01*
X206915Y191087D01*
X207500Y190971D01*
X231867D01*
X233471Y189366D01*
Y181178D01*
X232971Y180971D01*
X232403Y181538D01*
Y183106D01*
X230836D01*
X230721Y183221D01*
X230390Y183442D01*
X230000Y183520D01*
X215000D01*
X214610Y183442D01*
X214279Y183221D01*
X214058Y182890D01*
X213980Y182500D01*
X213980Y116743D01*
X214058Y116353D01*
X214279Y116022D01*
X218522Y111779D01*
X218853Y111558D01*
X218954Y111538D01*
X223986Y106506D01*
X224317Y106285D01*
X224707Y106207D01*
X236215D01*
X236461Y105707D01*
X235846Y104906D01*
X235350Y103708D01*
X235181Y102421D01*
X235350Y101135D01*
X235846Y99936D01*
X236069Y99646D01*
X229083Y92659D01*
X228537Y92730D01*
X228517Y92752D01*
X228485Y92924D01*
X228456Y93072D01*
X228441Y93222D01*
X228417Y93266D01*
X228408Y93315D01*
X228324Y93440D01*
X228253Y93572D01*
X228214Y93604D01*
X228187Y93646D01*
X226914Y94918D01*
X226501Y95535D01*
X225884Y95948D01*
X201111Y120721D01*
X200780Y120942D01*
X200390Y121020D01*
X191246D01*
X190805Y121202D01*
X189500Y121374D01*
X185500D01*
X184195Y121202D01*
X183754Y121020D01*
X182500D01*
X182110Y120942D01*
X181779Y120721D01*
X181558Y120390D01*
X181480Y120000D01*
Y119306D01*
X181132Y118852D01*
X180629Y117636D01*
X180457Y116331D01*
X180629Y115025D01*
X181132Y113809D01*
X181480Y113356D01*
Y108548D01*
X181500Y108449D01*
Y108349D01*
X181538Y108256D01*
X181558Y108158D01*
X181614Y108074D01*
X181652Y107981D01*
X181723Y107910D01*
X181779Y107827D01*
X181862Y107771D01*
X181933Y107700D01*
X182349Y107422D01*
X182442Y107384D01*
X182526Y107328D01*
X182624Y107308D01*
X182717Y107270D01*
X182817D01*
X182916Y107250D01*
X183014Y107270D01*
X183115D01*
X183207Y107308D01*
X183232Y107313D01*
X184311Y107456D01*
X185334Y107321D01*
X186287Y106926D01*
X187105Y106298D01*
X187733Y105480D01*
X188128Y104527D01*
X188271Y103437D01*
Y100709D01*
X188349Y100319D01*
X188570Y99988D01*
X192672Y95886D01*
X192426Y95425D01*
X191874Y95535D01*
X179961D01*
X177437Y98059D01*
Y108441D01*
X175007D01*
Y119238D01*
X174823Y120166D01*
X174297Y120953D01*
X165521Y129729D01*
Y131894D01*
X171970D01*
Y183106D01*
X154222D01*
Y165000D01*
X153722Y164793D01*
X149924Y168592D01*
X149980Y169016D01*
Y170984D01*
X149810Y172273D01*
X149312Y173474D01*
X148521Y174505D01*
X147490Y175297D01*
X146289Y175794D01*
X145000Y175964D01*
X143711Y175794D01*
X142751Y175396D01*
X132066Y186081D01*
X131570Y186413D01*
X130984Y186529D01*
X46476Y186529D01*
X46274Y187017D01*
X45633Y187853D01*
X44798Y188494D01*
X43825Y188897D01*
X42780Y189034D01*
X41736Y188897D01*
X40763Y188494D01*
X39928Y187853D01*
X39286Y187017D01*
X38883Y186044D01*
X38746Y185000D01*
X38883Y183956D01*
X39286Y182983D01*
X39928Y182147D01*
X40763Y181506D01*
X41736Y181103D01*
X42780Y180965D01*
X43825Y181103D01*
X44798Y181506D01*
X45633Y182147D01*
X46274Y182983D01*
X46476Y183471D01*
X130351Y183471D01*
X140588Y173233D01*
X140190Y172273D01*
X140020Y170984D01*
Y169016D01*
X140190Y167727D01*
X140688Y166526D01*
X141479Y165495D01*
X142510Y164703D01*
X142576Y164676D01*
Y155011D01*
X110087D01*
X109159Y154826D01*
X108372Y154301D01*
X98643Y144572D01*
X98118Y143786D01*
X97933Y142858D01*
Y138783D01*
X94187D01*
X93260Y138598D01*
X92473Y138073D01*
X91947Y137286D01*
X91763Y136358D01*
X91947Y135430D01*
X92473Y134644D01*
X93260Y134118D01*
X94187Y133934D01*
X98513D01*
X98643Y133738D01*
X98829Y133615D01*
Y127976D01*
X98396Y127328D01*
X98234Y126516D01*
X98396Y125703D01*
X98856Y125014D01*
X98529Y124672D01*
X98428Y124740D01*
X97691Y124887D01*
X96822Y125755D01*
Y129791D01*
X96962Y130000D01*
X97123Y130813D01*
X96962Y131625D01*
X96501Y132314D01*
X95813Y132774D01*
X95000Y132936D01*
X94187Y132774D01*
X93498Y132314D01*
X93038Y131625D01*
X92876Y130813D01*
X93038Y130000D01*
X93178Y129791D01*
Y125000D01*
X93178Y125000D01*
X93316Y124303D01*
X93711Y123711D01*
X95113Y122309D01*
X95260Y121572D01*
X95786Y120786D01*
X124417Y92154D01*
X125204Y91628D01*
X126132Y91444D01*
X126132Y91444D01*
X137500D01*
X138428Y91628D01*
X139214Y92154D01*
X139740Y92940D01*
X139925Y93868D01*
X139740Y94796D01*
X139214Y95582D01*
X138428Y96108D01*
X137500Y96293D01*
X135375D01*
X135183Y96755D01*
X142291Y103863D01*
X142791Y103656D01*
Y92502D01*
X142908Y91917D01*
X143239Y91420D01*
X148471Y86189D01*
Y63614D01*
X148587Y63029D01*
X148919Y62533D01*
X163818Y47633D01*
X148286Y32100D01*
X147760Y31314D01*
X147575Y30386D01*
Y30171D01*
X147427Y30058D01*
X146786Y29222D01*
X146383Y28249D01*
X146246Y27205D01*
X146383Y26160D01*
X146786Y25188D01*
X147427Y24352D01*
X148263Y23711D01*
X149236Y23308D01*
X150280Y23170D01*
X151325Y23308D01*
X151519Y23388D01*
X158696Y16211D01*
X158696Y16211D01*
X159288Y15816D01*
X159985Y15678D01*
X159985Y15678D01*
X163096D01*
X236064Y15678D01*
X236064Y15678D01*
X236761Y15816D01*
X237352Y16211D01*
X252275Y31134D01*
X252755Y30907D01*
X252665Y30000D01*
X252806Y28569D01*
X253224Y27193D01*
X253902Y25925D01*
X254814Y24814D01*
X255925Y23902D01*
X257193Y23224D01*
X258569Y22806D01*
X260000Y22666D01*
X261431Y22806D01*
X262807Y23224D01*
X264075Y23902D01*
X265186Y24814D01*
X266098Y25925D01*
X266776Y27193D01*
X267194Y28569D01*
X267335Y30000D01*
X267194Y31431D01*
X266776Y32807D01*
X266098Y34075D01*
X265186Y35186D01*
X264075Y36098D01*
X262807Y36776D01*
X262541Y36857D01*
X262419Y37342D01*
X266289Y41211D01*
X266289Y41211D01*
X266684Y41803D01*
X266822Y42500D01*
Y139350D01*
X266822Y139350D01*
X266684Y140048D01*
X266289Y140639D01*
X266289Y140639D01*
X251931Y154996D01*
X252247Y155407D01*
X252665Y156417D01*
X252807Y157500D01*
X252665Y158583D01*
X252247Y159593D01*
X251582Y160459D01*
X250715Y161125D01*
X249705Y161543D01*
X248622Y161685D01*
X245079D01*
X243995Y161543D01*
X242986Y161125D01*
X242119Y160459D01*
X241454Y159593D01*
X241036Y158583D01*
X240893Y157500D01*
X240973Y156897D01*
X240499Y156664D01*
X236529Y160634D01*
Y173233D01*
X236991Y173424D01*
X241269Y169147D01*
X241036Y168583D01*
X240893Y167500D01*
X241036Y166417D01*
X241454Y165407D01*
X242119Y164541D01*
X242986Y163875D01*
X243995Y163457D01*
X245079Y163315D01*
X248622D01*
X249705Y163457D01*
X250715Y163875D01*
X251582Y164541D01*
X252247Y165407D01*
X252665Y166417D01*
X252807Y167500D01*
X252665Y168583D01*
X252247Y169593D01*
X251582Y170459D01*
X250715Y171125D01*
X249705Y171543D01*
X248622Y171685D01*
X245079D01*
X243995Y171543D01*
X243432Y171309D01*
X239029Y175712D01*
Y192500D01*
X238913Y193085D01*
X238581Y193581D01*
X233695Y198468D01*
X233897Y198956D01*
X234034Y200000D01*
X233897Y201044D01*
X233494Y202017D01*
X232853Y202853D01*
X232017Y203494D01*
X231044Y203897D01*
X230000Y204034D01*
D02*
G37*
G36*
X60000Y207334D02*
X58569Y207194D01*
X57193Y206776D01*
X55925Y206098D01*
X54814Y205186D01*
X53902Y204075D01*
X53224Y202807D01*
X52806Y201431D01*
X52666Y200000D01*
X52806Y198569D01*
X53224Y197193D01*
X53902Y195925D01*
X54814Y194814D01*
X55925Y193902D01*
X57193Y193224D01*
X58569Y192806D01*
X60000Y192666D01*
X61431Y192806D01*
X62807Y193224D01*
X64075Y193902D01*
X65186Y194814D01*
X66098Y195925D01*
X66776Y197193D01*
X67194Y198569D01*
X67335Y200000D01*
X67194Y201431D01*
X66776Y202807D01*
X66098Y204075D01*
X65186Y205186D01*
X64075Y206098D01*
X62807Y206776D01*
X61431Y207194D01*
X60000Y207334D01*
D02*
G37*
G36*
X45965Y112827D02*
X45152Y112666D01*
X44463Y112205D01*
X44003Y111516D01*
X43841Y110704D01*
X44003Y109891D01*
X44463Y109202D01*
X45152Y108742D01*
X45965Y108580D01*
X46724Y108731D01*
X49037Y106419D01*
X49533Y106087D01*
X50118Y105971D01*
X71867D01*
X72886Y104951D01*
X73038Y104187D01*
X73498Y103498D01*
X74187Y103038D01*
X75000Y102876D01*
X75813Y103038D01*
X76502Y103498D01*
X76962Y104187D01*
X77123Y105000D01*
X76962Y105813D01*
X76502Y106501D01*
X75813Y106962D01*
X75049Y107114D01*
X73581Y108581D01*
X73085Y108913D01*
X72500Y109029D01*
X50752D01*
X47996Y111785D01*
X47546Y112086D01*
X47466Y112205D01*
X46777Y112666D01*
X45965Y112827D01*
D02*
G37*
G36*
X105561Y90597D02*
X104516Y90460D01*
X103543Y90057D01*
X102708Y89416D01*
X102067Y88580D01*
X101664Y87607D01*
X101526Y86563D01*
X101664Y85519D01*
X101956Y84813D01*
X98919Y81775D01*
X98587Y81279D01*
X98471Y80694D01*
Y78720D01*
X97983Y78518D01*
X97147Y77877D01*
X96506Y77041D01*
X96103Y76068D01*
X95965Y75024D01*
Y69024D01*
X96103Y67979D01*
X96506Y67006D01*
X97147Y66171D01*
X97983Y65530D01*
X98956Y65127D01*
X100000Y64989D01*
X101044Y65127D01*
X102017Y65530D01*
X102853Y66171D01*
X103494Y67006D01*
X103897Y67979D01*
X104034Y69024D01*
Y75024D01*
X103897Y76068D01*
X103494Y77041D01*
X102853Y77877D01*
X102017Y78518D01*
X101529Y78720D01*
Y80060D01*
X104247Y82778D01*
X104516Y82666D01*
X105561Y82528D01*
X106605Y82666D01*
X107578Y83069D01*
X108414Y83710D01*
X109055Y84546D01*
X109458Y85519D01*
X109595Y86563D01*
X109458Y87607D01*
X109055Y88580D01*
X108414Y89416D01*
X107578Y90057D01*
X106605Y90460D01*
X105561Y90597D01*
D02*
G37*
G36*
X95561D02*
X94516Y90460D01*
X93543Y90057D01*
X92708Y89416D01*
X92067Y88580D01*
X91664Y87607D01*
X91526Y86563D01*
X91664Y85519D01*
X92067Y84546D01*
X92708Y83710D01*
X93543Y83069D01*
X94516Y82666D01*
X95561Y82528D01*
X96605Y82666D01*
X97578Y83069D01*
X98414Y83710D01*
X99055Y84546D01*
X99458Y85519D01*
X99595Y86563D01*
X99458Y87607D01*
X99055Y88580D01*
X98414Y89416D01*
X97578Y90057D01*
X96605Y90460D01*
X95561Y90597D01*
D02*
G37*
G36*
X80000Y79058D02*
X78956Y78921D01*
X77983Y78518D01*
X77147Y77877D01*
X76506Y77041D01*
X76103Y76068D01*
X75965Y75024D01*
Y69024D01*
X76103Y67979D01*
X76506Y67006D01*
X77147Y66171D01*
X77983Y65530D01*
X78956Y65127D01*
X80000Y64989D01*
X81044Y65127D01*
X82017Y65530D01*
X82853Y66171D01*
X83494Y67006D01*
X83897Y67979D01*
X84035Y69024D01*
Y75024D01*
X83897Y76068D01*
X83494Y77041D01*
X82853Y77877D01*
X82017Y78518D01*
X81044Y78921D01*
X80000Y79058D01*
D02*
G37*
G36*
X10280Y189034D02*
X9236Y188897D01*
X8263Y188494D01*
X7428Y187853D01*
X6786Y187017D01*
X6383Y186044D01*
X6246Y185000D01*
X6383Y183956D01*
X6786Y182983D01*
X7428Y182147D01*
X8263Y181506D01*
X8471Y181420D01*
Y168671D01*
X8587Y168086D01*
X8919Y167590D01*
X17632Y158876D01*
Y148181D01*
X17661Y148033D01*
Y140004D01*
X27339D01*
Y142418D01*
X74212D01*
X79721Y136909D01*
Y107606D01*
X79906Y106678D01*
X80431Y105892D01*
X81510Y104813D01*
X82297Y104288D01*
X83224Y104103D01*
X84006Y104259D01*
X84506Y103968D01*
Y80000D01*
X84608Y79225D01*
X84907Y78503D01*
X85383Y77883D01*
X86424Y76842D01*
X86103Y76068D01*
X85966Y75024D01*
Y69024D01*
X86103Y67979D01*
X86506Y67006D01*
X87147Y66171D01*
X87459Y65932D01*
X87898Y65367D01*
X107162Y46386D01*
X107129Y46305D01*
X106957Y45000D01*
X107129Y43695D01*
X107633Y42478D01*
X108434Y41434D01*
X109478Y40633D01*
X110695Y40129D01*
X112000Y39957D01*
X116000D01*
X117305Y40129D01*
X118522Y40633D01*
X119566Y41434D01*
X120368Y42478D01*
X120871Y43695D01*
X121043Y45000D01*
X120871Y46305D01*
X120368Y47522D01*
X119566Y48566D01*
X118522Y49367D01*
X117305Y49871D01*
X116000Y50043D01*
X112000D01*
X111985Y50041D01*
X93863Y67897D01*
X93897Y67979D01*
X94034Y69024D01*
Y75024D01*
X93897Y76068D01*
X93494Y77041D01*
X92963Y77732D01*
X92892Y78275D01*
X92593Y78997D01*
X92117Y79617D01*
X90494Y81240D01*
Y140122D01*
X90392Y140897D01*
X90093Y141619D01*
X89617Y142239D01*
X60570Y171286D01*
X60440Y172273D01*
X59942Y173474D01*
X59151Y174505D01*
X58120Y175297D01*
X56919Y175794D01*
X55630Y175964D01*
X54341Y175794D01*
X53140Y175297D01*
X52109Y174505D01*
X51317Y173474D01*
X50820Y172273D01*
X50650Y170984D01*
Y169016D01*
X50820Y167727D01*
X51317Y166526D01*
X52109Y165495D01*
X53140Y164703D01*
X54341Y164206D01*
X55630Y164036D01*
X56919Y164206D01*
X58120Y164703D01*
X58439Y164948D01*
X75709Y147679D01*
X75462Y147218D01*
X75217Y147267D01*
X27339D01*
Y149681D01*
X20691D01*
Y159510D01*
X20574Y160095D01*
X20243Y160591D01*
X11529Y169305D01*
Y181188D01*
X12298Y181506D01*
X13133Y182147D01*
X13774Y182983D01*
X14177Y183956D01*
X14315Y185000D01*
X14177Y186044D01*
X13774Y187017D01*
X13133Y187853D01*
X12298Y188494D01*
X11325Y188897D01*
X10280Y189034D01*
D02*
G37*
G36*
X48480Y69924D02*
X47552Y69740D01*
X46766Y69214D01*
X46240Y68428D01*
X46056Y67500D01*
X46240Y66572D01*
X46766Y65786D01*
X54958Y57593D01*
X54863Y56982D01*
X53980Y56510D01*
X52928Y55647D01*
X52065Y54595D01*
X51424Y53396D01*
X51029Y52094D01*
X50896Y50740D01*
Y43260D01*
X51029Y41906D01*
X51424Y40604D01*
X52065Y39405D01*
X52928Y38353D01*
X53980Y37490D01*
X55179Y36849D01*
X56481Y36454D01*
X57835Y36321D01*
X59188Y36454D01*
X60490Y36849D01*
X61690Y37490D01*
X62741Y38353D01*
X63604Y39405D01*
X64245Y40604D01*
X64640Y41906D01*
X64650Y42006D01*
X67995D01*
X68434Y41434D01*
X69478Y40633D01*
X70695Y40129D01*
X72000Y39957D01*
X76000D01*
X77305Y40129D01*
X78522Y40633D01*
X79566Y41434D01*
X80367Y42478D01*
X80871Y43695D01*
X81043Y45000D01*
X80871Y46305D01*
X80367Y47522D01*
X79566Y48566D01*
X78522Y49367D01*
X77305Y49871D01*
X76000Y50043D01*
X72000D01*
X70695Y49871D01*
X69478Y49367D01*
X68434Y48566D01*
X67995Y47994D01*
X64774D01*
Y50740D01*
X64640Y52094D01*
X64245Y53396D01*
X63604Y54595D01*
X62741Y55647D01*
X61690Y56510D01*
X60490Y57151D01*
X60086Y57274D01*
X60259Y58146D01*
X60075Y59074D01*
X59549Y59860D01*
X50195Y69214D01*
X49408Y69740D01*
X48480Y69924D01*
D02*
G37*
G36*
X204000Y14000D02*
X196000D01*
Y6000D01*
X204000D01*
Y14000D01*
D02*
G37*
G36*
X184000D02*
X176000D01*
Y6000D01*
X184000D01*
Y14000D01*
D02*
G37*
G36*
X250000Y14035D02*
X248956Y13897D01*
X247983Y13494D01*
X247147Y12853D01*
X246506Y12017D01*
X246103Y11044D01*
X245966Y10000D01*
X246103Y8956D01*
X246506Y7983D01*
X247147Y7147D01*
X247983Y6506D01*
X248956Y6103D01*
X250000Y5965D01*
X251044Y6103D01*
X252017Y6506D01*
X252853Y7147D01*
X253494Y7983D01*
X253897Y8956D01*
X254034Y10000D01*
X253897Y11044D01*
X253494Y12017D01*
X252853Y12853D01*
X252017Y13494D01*
X251044Y13897D01*
X250000Y14035D01*
D02*
G37*
G36*
X240000D02*
X238956Y13897D01*
X237983Y13494D01*
X237147Y12853D01*
X236506Y12017D01*
X236103Y11044D01*
X235965Y10000D01*
X236103Y8956D01*
X236506Y7983D01*
X237147Y7147D01*
X237983Y6506D01*
X238956Y6103D01*
X240000Y5965D01*
X241044Y6103D01*
X242017Y6506D01*
X242853Y7147D01*
X243494Y7983D01*
X243897Y8956D01*
X244035Y10000D01*
X243897Y11044D01*
X243494Y12017D01*
X242853Y12853D01*
X242017Y13494D01*
X241044Y13897D01*
X240000Y14035D01*
D02*
G37*
G36*
X230000D02*
X228956Y13897D01*
X227983Y13494D01*
X227147Y12853D01*
X226506Y12017D01*
X226103Y11044D01*
X225965Y10000D01*
X226103Y8956D01*
X226506Y7983D01*
X227147Y7147D01*
X227983Y6506D01*
X228956Y6103D01*
X230000Y5965D01*
X231044Y6103D01*
X232017Y6506D01*
X232853Y7147D01*
X233494Y7983D01*
X233897Y8956D01*
X234034Y10000D01*
X233897Y11044D01*
X233494Y12017D01*
X232853Y12853D01*
X232017Y13494D01*
X231044Y13897D01*
X230000Y14035D01*
D02*
G37*
G36*
X220000D02*
X218956Y13897D01*
X217983Y13494D01*
X217147Y12853D01*
X216506Y12017D01*
X216103Y11044D01*
X215966Y10000D01*
X216103Y8956D01*
X216506Y7983D01*
X217147Y7147D01*
X217983Y6506D01*
X218956Y6103D01*
X220000Y5965D01*
X221044Y6103D01*
X222017Y6506D01*
X222853Y7147D01*
X223494Y7983D01*
X223897Y8956D01*
X224035Y10000D01*
X223897Y11044D01*
X223494Y12017D01*
X222853Y12853D01*
X222017Y13494D01*
X221044Y13897D01*
X220000Y14035D01*
D02*
G37*
G36*
X210000D02*
X208956Y13897D01*
X207983Y13494D01*
X207147Y12853D01*
X206506Y12017D01*
X206103Y11044D01*
X205965Y10000D01*
X206103Y8956D01*
X206506Y7983D01*
X207147Y7147D01*
X207983Y6506D01*
X208956Y6103D01*
X210000Y5965D01*
X211044Y6103D01*
X212017Y6506D01*
X212853Y7147D01*
X213494Y7983D01*
X213897Y8956D01*
X214035Y10000D01*
X213897Y11044D01*
X213494Y12017D01*
X212853Y12853D01*
X212017Y13494D01*
X211044Y13897D01*
X210000Y14035D01*
D02*
G37*
G36*
X150000D02*
X148956Y13897D01*
X147983Y13494D01*
X147147Y12853D01*
X146506Y12017D01*
X146103Y11044D01*
X145966Y10000D01*
X146103Y8956D01*
X146506Y7983D01*
X147147Y7147D01*
X147983Y6506D01*
X148956Y6103D01*
X150000Y5965D01*
X151044Y6103D01*
X152017Y6506D01*
X152853Y7147D01*
X153494Y7983D01*
X153897Y8956D01*
X154034Y10000D01*
X153897Y11044D01*
X153494Y12017D01*
X152853Y12853D01*
X152017Y13494D01*
X151044Y13897D01*
X150000Y14035D01*
D02*
G37*
G36*
X140000D02*
X138956Y13897D01*
X137983Y13494D01*
X137147Y12853D01*
X136506Y12017D01*
X136103Y11044D01*
X135966Y10000D01*
X136103Y8956D01*
X136506Y7983D01*
X137147Y7147D01*
X137983Y6506D01*
X138956Y6103D01*
X140000Y5965D01*
X141044Y6103D01*
X142017Y6506D01*
X142853Y7147D01*
X143494Y7983D01*
X143897Y8956D01*
X144035Y10000D01*
X143897Y11044D01*
X143494Y12017D01*
X142853Y12853D01*
X142017Y13494D01*
X141044Y13897D01*
X140000Y14035D01*
D02*
G37*
G36*
X130000D02*
X128956Y13897D01*
X127983Y13494D01*
X127147Y12853D01*
X126506Y12017D01*
X126103Y11044D01*
X125965Y10000D01*
X126103Y8956D01*
X126506Y7983D01*
X127147Y7147D01*
X127983Y6506D01*
X128956Y6103D01*
X130000Y5965D01*
X131044Y6103D01*
X132017Y6506D01*
X132853Y7147D01*
X133494Y7983D01*
X133897Y8956D01*
X134035Y10000D01*
X133897Y11044D01*
X133494Y12017D01*
X132853Y12853D01*
X132017Y13494D01*
X131044Y13897D01*
X130000Y14035D01*
D02*
G37*
G36*
X120000D02*
X118956Y13897D01*
X117983Y13494D01*
X117147Y12853D01*
X116506Y12017D01*
X116103Y11044D01*
X115965Y10000D01*
X116103Y8956D01*
X116506Y7983D01*
X117147Y7147D01*
X117983Y6506D01*
X118956Y6103D01*
X120000Y5965D01*
X121044Y6103D01*
X122017Y6506D01*
X122853Y7147D01*
X123494Y7983D01*
X123897Y8956D01*
X124035Y10000D01*
X123897Y11044D01*
X123494Y12017D01*
X122853Y12853D01*
X122017Y13494D01*
X121044Y13897D01*
X120000Y14035D01*
D02*
G37*
G36*
X110000D02*
X108956Y13897D01*
X107983Y13494D01*
X107147Y12853D01*
X106506Y12017D01*
X106103Y11044D01*
X105965Y10000D01*
X106103Y8956D01*
X106506Y7983D01*
X107147Y7147D01*
X107983Y6506D01*
X108956Y6103D01*
X110000Y5965D01*
X111044Y6103D01*
X112017Y6506D01*
X112853Y7147D01*
X113494Y7983D01*
X113897Y8956D01*
X114034Y10000D01*
X113897Y11044D01*
X113494Y12017D01*
X112853Y12853D01*
X112017Y13494D01*
X111044Y13897D01*
X110000Y14035D01*
D02*
G37*
G36*
X55000Y17334D02*
X53569Y17194D01*
X52193Y16776D01*
X50925Y16098D01*
X49814Y15186D01*
X48902Y14075D01*
X48224Y12807D01*
X47806Y11431D01*
X47666Y10000D01*
X47806Y8569D01*
X48224Y7193D01*
X48902Y5925D01*
X49814Y4814D01*
X50925Y3902D01*
X52193Y3224D01*
X53569Y2806D01*
X55000Y2665D01*
X56431Y2806D01*
X57807Y3224D01*
X59075Y3902D01*
X60186Y4814D01*
X61098Y5925D01*
X61776Y7193D01*
X62194Y8569D01*
X62335Y10000D01*
X62194Y11431D01*
X61776Y12807D01*
X61098Y14075D01*
X60186Y15186D01*
X59075Y16098D01*
X57807Y16776D01*
X56431Y17194D01*
X55000Y17334D01*
D02*
G37*
%LPD*%
G36*
X245079Y153315D02*
X248459D01*
X263178Y138595D01*
Y134639D01*
X262716Y134447D01*
X244243Y152920D01*
X244476Y153394D01*
X245079Y153315D01*
D02*
G37*
G36*
X260971Y131867D02*
Y125785D01*
X260471Y125615D01*
X260164Y126014D01*
X259135Y126804D01*
X257937Y127300D01*
X256650Y127470D01*
X255364Y127300D01*
X254166Y126804D01*
X253136Y126014D01*
X252346Y124985D01*
X251850Y123786D01*
X251795Y123368D01*
X251581Y123295D01*
X251274Y123243D01*
X251251Y123258D01*
X251207Y123309D01*
X246146Y127187D01*
X245997Y127260D01*
X245853Y127343D01*
X245820Y127348D01*
X245789Y127363D01*
X245624Y127373D01*
X245459Y127395D01*
X245280Y127539D01*
X245078Y127810D01*
Y134120D01*
X236243D01*
X236217Y134251D01*
X236208Y134383D01*
X236178Y134444D01*
X236165Y134510D01*
X236091Y134621D01*
X236033Y134740D01*
X235751Y135107D01*
X235650Y135196D01*
X235562Y135297D01*
X233520Y136862D01*
Y158630D01*
X233622Y158704D01*
X234020Y158818D01*
X260971Y131867D01*
D02*
G37*
G36*
X232500Y180000D02*
Y136358D01*
X234942Y134487D01*
X235223Y134120D01*
X235223D01*
X235223Y134120D01*
Y124266D01*
X245078D01*
Y126156D01*
X245526Y126378D01*
X250587Y122500D01*
X251847Y121240D01*
X251850Y121214D01*
X252346Y120015D01*
X253136Y118986D01*
X254166Y118196D01*
X255364Y117700D01*
X255390Y117696D01*
X260587Y112500D01*
Y104063D01*
X250724D01*
X247560Y107227D01*
X241396D01*
X240150Y107391D01*
X238905Y107227D01*
X224707D01*
X219474Y112460D01*
Y112500D01*
X219243D01*
X215000Y116743D01*
X215000Y182500D01*
X230000D01*
X232500Y180000D01*
D02*
G37*
G36*
X150075Y161582D02*
Y131004D01*
X139146Y120075D01*
X138620Y119288D01*
X138436Y118360D01*
Y106865D01*
X130786Y99214D01*
X130260Y98428D01*
X130076Y97500D01*
X130216Y96793D01*
X129891Y96293D01*
X127136D01*
X119332Y104097D01*
X119565Y104571D01*
X120000Y104513D01*
X121044Y104651D01*
X121532Y104853D01*
X122100Y104285D01*
X122597Y103953D01*
X123182Y103837D01*
X132287D01*
X132872Y103953D01*
X133369Y104285D01*
X135081Y105997D01*
X135413Y106493D01*
X135529Y107079D01*
Y124366D01*
X138581Y127419D01*
X138913Y127915D01*
X139029Y128500D01*
Y131040D01*
X139462Y131687D01*
X139623Y132500D01*
X139462Y133313D01*
X139002Y134002D01*
X138313Y134462D01*
X137500Y134624D01*
X136687Y134462D01*
X135998Y134002D01*
X135538Y133313D01*
X135377Y132500D01*
X135538Y131687D01*
X135971Y131040D01*
Y129133D01*
X132919Y126081D01*
X132587Y125585D01*
X132471Y125000D01*
Y107712D01*
X131654Y106895D01*
X124186D01*
X123852Y107395D01*
X123897Y107504D01*
X124035Y108548D01*
X123897Y109592D01*
X123494Y110565D01*
X122853Y111401D01*
X122017Y112042D01*
X121044Y112445D01*
X120000Y112582D01*
X118956Y112445D01*
X117983Y112042D01*
X117147Y111401D01*
X116506Y110565D01*
X116103Y109592D01*
X115965Y108548D01*
X116023Y108113D01*
X115549Y107880D01*
X99452Y123977D01*
X99676Y124460D01*
X99998Y124457D01*
X109206Y115249D01*
X109702Y114918D01*
X110287Y114801D01*
X122404D01*
X123051Y114369D01*
X123863Y114207D01*
X124676Y114369D01*
X125365Y114829D01*
X125825Y115518D01*
X125987Y116331D01*
X125825Y117143D01*
X125365Y117832D01*
X124676Y118292D01*
X123863Y118454D01*
X123051Y118292D01*
X122404Y117860D01*
X110921D01*
X102445Y126336D01*
X102481Y126516D01*
X102320Y127328D01*
X101887Y127976D01*
Y133615D01*
X102072Y133738D01*
X102598Y134525D01*
X102782Y135453D01*
Y141854D01*
X111091Y150162D01*
X144000D01*
X144928Y150347D01*
X145714Y150872D01*
X146714Y151872D01*
X147240Y152659D01*
X147424Y153586D01*
Y163580D01*
X147887Y163771D01*
X150075Y161582D01*
D02*
G37*
G36*
X160672Y128725D02*
X160856Y127797D01*
X161382Y127010D01*
X170158Y118234D01*
Y108441D01*
X167563D01*
Y95845D01*
X167101Y95654D01*
X164598Y98157D01*
Y120111D01*
X164413Y121039D01*
X163888Y121825D01*
X163101Y122351D01*
X162173Y122536D01*
X161245Y122351D01*
X160459Y121825D01*
X159933Y121039D01*
X159749Y120111D01*
Y98579D01*
X159249Y98312D01*
X159014Y98468D01*
X158087Y98653D01*
X147618D01*
X146690Y98468D01*
X146350Y98241D01*
X145850Y98508D01*
Y104820D01*
X146283Y105467D01*
X146444Y106280D01*
X146283Y107092D01*
X145822Y107781D01*
X145133Y108241D01*
X144321Y108403D01*
X143785Y108296D01*
X143285Y108648D01*
Y117356D01*
X154214Y128286D01*
X154740Y129072D01*
X154924Y130000D01*
Y131894D01*
X160672D01*
Y128725D01*
D02*
G37*
G36*
X227466Y92924D02*
X227417Y92424D01*
X197575D01*
X189291Y100709D01*
Y103504D01*
X189121Y104793D01*
X188623Y105994D01*
X187832Y107025D01*
X186801Y107817D01*
X185600Y108314D01*
X184311Y108484D01*
X183022Y108314D01*
X182916Y108270D01*
X182500Y108548D01*
Y120000D01*
X200390D01*
X227466Y92924D01*
D02*
G37*
G36*
X193491Y82840D02*
X193474Y82739D01*
X192909Y82343D01*
X192500Y82424D01*
X175319D01*
X171063Y86681D01*
X171254Y87143D01*
X189188D01*
X193491Y82840D01*
D02*
G37*
G36*
X227500Y75000D02*
X215000D01*
X202887Y87113D01*
X203078Y87576D01*
X227500D01*
Y75000D01*
D02*
G37*
G36*
X250003Y103342D02*
X250334Y103121D01*
X250724Y103043D01*
X260587D01*
X260971Y102728D01*
Y93524D01*
X256993Y89546D01*
X256772Y89576D01*
X253228D01*
X252145Y89433D01*
X251136Y89015D01*
X250269Y88350D01*
X249604Y87483D01*
X249185Y86473D01*
X249043Y85390D01*
X249185Y84307D01*
X249604Y83297D01*
X250269Y82431D01*
X251136Y81766D01*
X252145Y81347D01*
X253228Y81205D01*
X256772D01*
X257855Y81347D01*
X258864Y81766D01*
X259731Y82431D01*
X260396Y83297D01*
X260814Y84307D01*
X260957Y85390D01*
X260814Y86473D01*
X260396Y87483D01*
X259901Y88128D01*
X262716Y90943D01*
X263178Y90752D01*
Y43255D01*
X259832Y39909D01*
X256650D01*
X256650Y39909D01*
X255953Y39770D01*
X255362Y39375D01*
X255362Y39375D01*
X235309Y19322D01*
X163096Y19322D01*
X160740D01*
X154097Y25966D01*
X154177Y26160D01*
X154315Y27205D01*
X154177Y28249D01*
X153774Y29222D01*
X153133Y30057D01*
X153131Y30088D01*
X168329Y45286D01*
X168854Y46072D01*
X169039Y47000D01*
X168854Y47928D01*
X168329Y48714D01*
X167542Y49240D01*
X166614Y49424D01*
X166396Y49381D01*
X151529Y64248D01*
Y86823D01*
X151413Y87408D01*
X151081Y87904D01*
X145850Y93135D01*
Y93948D01*
X146350Y94216D01*
X146690Y93988D01*
X147618Y93804D01*
X157082D01*
X172600Y78286D01*
X173387Y77760D01*
X174315Y77575D01*
X191496D01*
X213286Y55786D01*
X214072Y55260D01*
X215000Y55076D01*
X215000Y55076D01*
X240114D01*
X249131Y46059D01*
X249043Y45390D01*
X249186Y44307D01*
X249604Y43297D01*
X250269Y42431D01*
X251136Y41765D01*
X252145Y41347D01*
X253228Y41205D01*
X256772D01*
X257855Y41347D01*
X258864Y41765D01*
X259731Y42431D01*
X260396Y43297D01*
X260814Y44307D01*
X260957Y45390D01*
X260814Y46473D01*
X260396Y47483D01*
X259731Y48350D01*
X258864Y49015D01*
X257855Y49433D01*
X256772Y49576D01*
X253228D01*
X252560Y49488D01*
X250175Y51872D01*
X250505Y52249D01*
X251136Y51766D01*
X252145Y51347D01*
X253228Y51205D01*
X256772D01*
X257855Y51347D01*
X258864Y51766D01*
X259731Y52431D01*
X260396Y53298D01*
X260814Y54307D01*
X260957Y55390D01*
X260814Y56473D01*
X260396Y57483D01*
X259731Y58350D01*
X258864Y59015D01*
X257855Y59433D01*
X256772Y59576D01*
X253228D01*
X252145Y59433D01*
X251136Y59015D01*
X250792Y58751D01*
X245329Y64214D01*
X244542Y64740D01*
X243614Y64925D01*
X218264D01*
X196075Y87113D01*
X196266Y87576D01*
X201449D01*
X201669Y87410D01*
X201867Y87113D01*
X201944Y86723D01*
X202166Y86393D01*
X214279Y74279D01*
X214457Y74160D01*
Y73962D01*
X228457D01*
Y74684D01*
X228520Y75000D01*
Y87576D01*
X229852D01*
X230780Y87760D01*
X231567Y88286D01*
X240821Y97540D01*
X241437Y97621D01*
X242635Y98117D01*
X243665Y98907D01*
X244454Y99936D01*
X244951Y101135D01*
X245120Y102421D01*
X244951Y103708D01*
X244454Y104906D01*
X243840Y105707D01*
X244086Y106207D01*
X247138D01*
X250003Y103342D01*
D02*
G37*
%LPC*%
G36*
X240150Y120777D02*
X238864Y120607D01*
X237666Y120111D01*
X236636Y119321D01*
X235846Y118292D01*
X235350Y117093D01*
X235181Y115807D01*
X235350Y114521D01*
X235846Y113322D01*
X236636Y112293D01*
X237666Y111503D01*
X238864Y111007D01*
X240150Y110837D01*
X241437Y111007D01*
X242635Y111503D01*
X243665Y112293D01*
X244454Y113322D01*
X244951Y114521D01*
X245120Y115807D01*
X244951Y117093D01*
X244454Y118292D01*
X243665Y119321D01*
X242635Y120111D01*
X241437Y120607D01*
X240150Y120777D01*
D02*
G37*
%LPD*%
G36*
X241171Y119614D02*
X242121Y119220D01*
X242937Y118594D01*
X243564Y117778D01*
X243957Y116827D01*
X244092Y115807D01*
X243957Y114787D01*
X243564Y113836D01*
X242937Y113020D01*
X242121Y112394D01*
X241171Y112000D01*
X240150Y111866D01*
X239130Y112000D01*
X238180Y112394D01*
X237364Y113020D01*
X236737Y113836D01*
X236343Y114787D01*
X236209Y115807D01*
X236343Y116827D01*
X236737Y117778D01*
X237364Y118594D01*
X238180Y119220D01*
X239130Y119614D01*
X240150Y119748D01*
X241171Y119614D01*
D02*
G37*
%LPC*%
G36*
X256772Y69576D02*
X253228D01*
X252145Y69433D01*
X251136Y69015D01*
X250269Y68350D01*
X249604Y67483D01*
X249186Y66473D01*
X249043Y65390D01*
X249186Y64307D01*
X249604Y63297D01*
X250269Y62431D01*
X251136Y61765D01*
X252145Y61347D01*
X253228Y61205D01*
X256772D01*
X257855Y61347D01*
X258864Y61765D01*
X259731Y62431D01*
X260396Y63297D01*
X260814Y64307D01*
X260957Y65390D01*
X260814Y66473D01*
X260396Y67483D01*
X259731Y68350D01*
X258864Y69015D01*
X257855Y69433D01*
X256772Y69576D01*
D02*
G37*
G36*
X226810Y51534D02*
X225766Y51397D01*
X224793Y50994D01*
X223957Y50353D01*
X223316Y49517D01*
X222913Y48544D01*
X222775Y47500D01*
X222913Y46456D01*
X223316Y45483D01*
X223957Y44647D01*
X224793Y44006D01*
X225766Y43603D01*
X226810Y43466D01*
X227854Y43603D01*
X228827Y44006D01*
X229663Y44647D01*
X230304Y45483D01*
X230707Y46456D01*
X230844Y47500D01*
X230707Y48544D01*
X230304Y49517D01*
X229663Y50353D01*
X228827Y50994D01*
X227854Y51397D01*
X226810Y51534D01*
D02*
G37*
G36*
Y41535D02*
X225766Y41397D01*
X224793Y40994D01*
X223957Y40353D01*
X223316Y39517D01*
X222913Y38544D01*
X222775Y37500D01*
X222913Y36456D01*
X223316Y35483D01*
X223957Y34647D01*
X224793Y34006D01*
X225766Y33603D01*
X226810Y33465D01*
X227854Y33603D01*
X228827Y34006D01*
X229663Y34647D01*
X230304Y35483D01*
X230707Y36456D01*
X230844Y37500D01*
X230707Y38544D01*
X230304Y39517D01*
X229663Y40353D01*
X228827Y40994D01*
X227854Y41397D01*
X226810Y41535D01*
D02*
G37*
G36*
Y31534D02*
X225766Y31397D01*
X224793Y30994D01*
X223957Y30353D01*
X223316Y29517D01*
X222913Y28544D01*
X222775Y27500D01*
X222913Y26456D01*
X223316Y25483D01*
X223957Y24647D01*
X224793Y24006D01*
X225766Y23603D01*
X226810Y23465D01*
X227854Y23603D01*
X228827Y24006D01*
X229663Y24647D01*
X230304Y25483D01*
X230707Y26456D01*
X230844Y27500D01*
X230707Y28544D01*
X230304Y29517D01*
X229663Y30353D01*
X228827Y30994D01*
X227854Y31397D01*
X226810Y31534D01*
D02*
G37*
G36*
X160280Y31239D02*
X159236Y31102D01*
X158263Y30699D01*
X157428Y30058D01*
X156786Y29222D01*
X156383Y28249D01*
X156246Y27205D01*
X156383Y26160D01*
X156786Y25188D01*
X157428Y24352D01*
X158263Y23711D01*
X159236Y23308D01*
X160280Y23170D01*
X161325Y23308D01*
X162298Y23711D01*
X163133Y24352D01*
X163774Y25188D01*
X164177Y26160D01*
X164315Y27205D01*
X164177Y28249D01*
X163774Y29222D01*
X163133Y30058D01*
X162298Y30699D01*
X161325Y31102D01*
X160280Y31239D01*
D02*
G37*
%LPD*%
D27*
X120000Y108548D02*
X123182Y105366D01*
X132287D01*
X134000Y107079D01*
Y125000D01*
X137500Y128500D01*
Y132500D01*
X172500Y101536D02*
X172583Y101618D01*
X147500Y96346D02*
X147618Y96228D01*
X159414Y27205D02*
X160280D01*
X10000Y168671D02*
Y185000D01*
X104082Y84776D02*
X105561D01*
X100000Y72024D02*
Y80694D01*
X104082Y84776D01*
X10000Y168671D02*
X19161Y159510D01*
Y148181D02*
Y159510D01*
Y148181D02*
X22500Y144843D01*
X42780Y185000D02*
X130984Y185000D01*
X41914Y185000D02*
X42780D01*
X130984Y185000D02*
X145000Y170984D01*
Y170000D02*
Y170984D01*
X235000Y160000D02*
X262500Y132500D01*
Y92890D02*
Y132500D01*
X255000Y85390D02*
X262500Y92890D01*
X235000Y160000D02*
Y190000D01*
X232500Y192500D02*
X235000Y190000D01*
X207500Y192500D02*
X232500D01*
X200000Y200000D02*
X207500Y192500D01*
X246850Y157500D02*
X247500Y156850D01*
X230000Y200000D02*
X237500Y192500D01*
Y175079D02*
Y192500D01*
Y175079D02*
X245079Y167500D01*
X150000Y63614D02*
X166614Y47000D01*
X110287Y116331D02*
X123863D01*
X245079Y167500D02*
X246850D01*
X100358Y126516D02*
Y135453D01*
X99452Y136358D02*
X100358Y135453D01*
Y126260D02*
Y126516D01*
Y126260D02*
X110287Y116331D01*
X144321Y92502D02*
Y106280D01*
Y92502D02*
X150000Y86823D01*
Y63614D02*
Y86823D01*
X253228Y45390D02*
X255000D01*
X72500Y107500D02*
X75000Y105000D01*
X50118Y107500D02*
X72500D01*
X46914Y110704D02*
X50118Y107500D01*
X45965Y110704D02*
X46914D01*
D28*
X97500Y122500D02*
X126132Y93868D01*
X137500D01*
X217260Y62500D02*
X243614D01*
X190192Y89568D02*
X217260Y62500D01*
X169758Y89568D02*
X190192D01*
X162173Y97153D02*
X169758Y89568D01*
X192500Y80000D02*
X215000Y57500D01*
X174315Y80000D02*
X192500D01*
X158087Y96228D02*
X174315Y80000D01*
X191874Y93111D02*
X194984Y90000D01*
X178956Y93111D02*
X191874D01*
X172500Y99567D02*
X178956Y93111D01*
X172500Y99567D02*
Y101536D01*
X163096Y128725D02*
X172583Y119238D01*
Y101618D02*
Y119238D01*
X163096Y128725D02*
Y157500D01*
X162173Y97153D02*
Y120111D01*
X147618Y96228D02*
X158087D01*
X152500Y162586D02*
X160342Y154745D01*
X145043Y170043D02*
X152500Y162586D01*
X240150Y100298D02*
Y102421D01*
X229852Y90000D02*
X240150Y100298D01*
X194984Y90000D02*
X229852D01*
X150000Y27485D02*
Y30386D01*
Y27485D02*
X150280Y27205D01*
X75217Y144843D02*
X82146Y137913D01*
Y107606D02*
Y137913D01*
Y107606D02*
X83224Y106528D01*
X22500Y144843D02*
X75217D01*
X152500Y130000D02*
Y162586D01*
X140860Y118360D02*
X152500Y130000D01*
X215000Y57500D02*
X241119D01*
X243614Y62500D02*
X250724Y55390D01*
X110087Y152586D02*
X144000D01*
X145000Y153586D01*
Y170000D01*
X150000Y30386D02*
X166614Y47000D01*
X48480Y67500D02*
X57835Y58146D01*
X100358Y135453D02*
Y142858D01*
X94187Y136358D02*
X99452D01*
X100358Y142858D02*
X110087Y152586D01*
X241119Y57500D02*
X253228Y45390D01*
X250724Y55390D02*
X255000D01*
X140860Y105860D02*
Y118360D01*
X132500Y97500D02*
X140860Y105860D01*
X253440Y65390D02*
X255000D01*
D29*
X57835Y52835D02*
Y58146D01*
D32*
X159985Y17500D02*
X163096D01*
X150280Y27205D02*
X159985Y17500D01*
X247500Y156850D02*
X265000Y139350D01*
Y42500D02*
Y139350D01*
X260587Y38087D02*
X265000Y42500D01*
X163096Y17500D02*
X236064Y17500D01*
X256650Y38087D01*
X260587D01*
X95000Y125000D02*
X97500Y122500D01*
X95000Y125000D02*
Y130813D01*
D33*
X120000Y108548D02*
D03*
X216810Y27500D02*
D03*
X226810D02*
D03*
X216810Y37500D02*
D03*
X226810D02*
D03*
X216810Y47500D02*
D03*
X226810D02*
D03*
X150280Y27205D02*
D03*
X160280D02*
D03*
X95561Y86563D02*
D03*
X105561D02*
D03*
X10280Y185000D02*
D03*
X20280D02*
D03*
X42780D02*
D03*
X32780D02*
D03*
D34*
X184311Y101536D02*
D03*
D35*
X172500D02*
D03*
D36*
X163096Y157500D02*
D03*
X223530D02*
D03*
D37*
X221457Y69488D02*
D03*
D38*
Y77362D02*
D03*
D39*
X246850Y157500D02*
D03*
Y167500D02*
D03*
Y177500D02*
D03*
X255000Y75390D02*
D03*
Y65390D02*
D03*
Y55390D02*
D03*
Y45390D02*
D03*
X255000Y85390D02*
D03*
D40*
X256650Y109114D02*
D03*
Y122500D02*
D03*
X240150Y102421D02*
D03*
Y115807D02*
D03*
D41*
Y129193D02*
D03*
D42*
X114000Y45000D02*
D03*
X74000D02*
D03*
X227500Y116331D02*
D03*
X187500D02*
D03*
D43*
X22461Y164842D02*
D03*
D44*
X22500Y144843D02*
D03*
D45*
X55630Y170000D02*
D03*
X145000D02*
D03*
D46*
X80000Y72024D02*
D03*
X90000D02*
D03*
X100000D02*
D03*
D47*
X35000Y47500D02*
D03*
X57835Y47000D02*
D03*
D48*
X46024Y28102D02*
D03*
D49*
X160000Y10000D02*
D03*
X170000D02*
D03*
X110000D02*
D03*
X120000D02*
D03*
X130000D02*
D03*
X140000D02*
D03*
X150000D02*
D03*
X230000Y200000D02*
D03*
X240000D02*
D03*
X180000D02*
D03*
X190000D02*
D03*
X200000D02*
D03*
X210000D02*
D03*
X220000D02*
D03*
X74000D02*
D03*
X84000D02*
D03*
X94000D02*
D03*
X104000D02*
D03*
X114000D02*
D03*
X124000D02*
D03*
X134000D02*
D03*
X144000D02*
D03*
X154000D02*
D03*
X250000Y10000D02*
D03*
X240000D02*
D03*
X230000D02*
D03*
X220000D02*
D03*
X210000D02*
D03*
D50*
X180000D02*
D03*
X250000Y200000D02*
D03*
X164000D02*
D03*
X200000Y10000D02*
D03*
D51*
X60000Y200000D02*
D03*
X55000Y10000D02*
D03*
X260000Y30000D02*
D03*
D52*
X137500Y132500D02*
D03*
X210000Y75390D02*
D03*
X225000Y94034D02*
D03*
X224707Y85390D02*
D03*
X222500D02*
D03*
X220000D02*
D03*
X217500D02*
D03*
X215011D02*
D03*
X212500D02*
D03*
X222500Y94034D02*
D03*
X220000D02*
D03*
X217500D02*
D03*
X215011D02*
D03*
X212500Y93868D02*
D03*
X210000Y94034D02*
D03*
X207500D02*
D03*
X162173Y120111D02*
D03*
X25000Y94034D02*
D03*
X80480Y104063D02*
D03*
X247500Y80000D02*
D03*
X46024Y140004D02*
D03*
X177500Y118292D02*
D03*
X193897Y150000D02*
D03*
X82412Y30000D02*
D03*
X221457Y50994D02*
D03*
X166614Y47000D02*
D03*
X48480Y67500D02*
D03*
X123863Y116331D02*
D03*
X94187Y136358D02*
D03*
X95000Y130813D02*
D03*
X100358Y126516D02*
D03*
X147315Y96228D02*
D03*
X137500Y93868D02*
D03*
X83224Y106528D02*
D03*
X132500Y97500D02*
D03*
X144321Y106280D02*
D03*
X114000Y66614D02*
D03*
X75000Y105000D02*
D03*
X45965Y110704D02*
D03*
D53*
X90000Y72024D02*
Y77500D01*
X87500Y80000D02*
X90000Y77500D01*
X87500Y80000D02*
Y140122D01*
X57778Y169844D02*
X87500Y140122D01*
X59835Y45000D02*
X74000D01*
X90000Y67500D02*
X112835Y45000D01*
%TF.MD5,50ef02ab578ed96e268a6a42ada3db5d*%
M02*
