G04*
G04 #@! TF.GenerationSoftware,Altium Limited,Altium Designer,19.0.15 (446)*
G04*
G04 Layer_Physical_Order=1*
G04 Layer_Color=255*
%FSLAX25Y25*%
%MOIN*%
G70*
G01*
G75*
%ADD13C,0.01000*%
%ADD22R,0.02953X0.03543*%
%ADD23R,0.05315X0.04331*%
%ADD24R,0.04528X0.06890*%
%ADD25R,0.08071X0.06890*%
%ADD26R,0.04331X0.05315*%
%ADD27R,0.03543X0.02953*%
%ADD28R,0.04756X0.01636*%
%ADD29R,0.02000X0.04800*%
%ADD30R,0.13386X0.05315*%
%ADD31R,0.06693X0.11417*%
%ADD32O,0.04724X0.01772*%
%ADD33R,0.06902X0.11602*%
%ADD34R,0.05610X0.01181*%
%ADD35R,0.03150X0.03937*%
%ADD36R,0.06890X0.08071*%
%ADD37R,0.06496X0.08661*%
%ADD38R,0.08661X0.06496*%
%ADD56O,0.07874X0.11811*%
%ADD57R,0.07874X0.11811*%
%ADD73C,0.02756*%
%ADD74C,0.01968*%
%ADD75C,0.00827*%
%ADD76C,0.01378*%
%ADD77C,0.01575*%
%ADD78C,0.06000*%
%ADD79R,0.15748X0.49213*%
%ADD80O,0.12000X0.04800*%
%ADD81R,0.12000X0.04800*%
%ADD82O,0.09843X0.06299*%
%ADD83C,0.07854*%
%ADD84R,0.07854X0.07854*%
%ADD85O,0.12000X0.08000*%
%ADD86C,0.07677*%
%ADD87R,0.07677X0.07677*%
%ADD88O,0.07874X0.09843*%
%ADD89O,0.06000X0.12000*%
%ADD90O,0.11811X0.19291*%
%ADD91O,0.19291X0.11811*%
%ADD92R,0.06000X0.06000*%
%ADD93C,0.12598*%
%ADD94C,0.02165*%
G36*
X260000Y200000D02*
Y160000D01*
X270000Y150000D01*
Y15000D01*
X260000Y5000D01*
Y0D01*
X0D01*
Y210000D01*
X250000D01*
X260000Y200000D01*
D02*
G37*
%LPC*%
G36*
X254000Y204000D02*
X246000D01*
Y196000D01*
X254000D01*
Y204000D01*
D02*
G37*
G36*
X168000D02*
X160000D01*
Y196000D01*
X168000D01*
Y204000D01*
D02*
G37*
G36*
X240000Y204034D02*
X238956Y203897D01*
X237983Y203494D01*
X237147Y202853D01*
X236506Y202017D01*
X236103Y201044D01*
X235965Y200000D01*
X236103Y198956D01*
X236506Y197983D01*
X237147Y197147D01*
X237983Y196506D01*
X238956Y196103D01*
X240000Y195966D01*
X241044Y196103D01*
X242017Y196506D01*
X242853Y197147D01*
X243494Y197983D01*
X243897Y198956D01*
X244035Y200000D01*
X243897Y201044D01*
X243494Y202017D01*
X242853Y202853D01*
X242017Y203494D01*
X241044Y203897D01*
X240000Y204034D01*
D02*
G37*
G36*
X230000D02*
X228956Y203897D01*
X227983Y203494D01*
X227147Y202853D01*
X226506Y202017D01*
X226103Y201044D01*
X225965Y200000D01*
X226103Y198956D01*
X226506Y197983D01*
X227147Y197147D01*
X227983Y196506D01*
X228956Y196103D01*
X230000Y195966D01*
X231044Y196103D01*
X232017Y196506D01*
X232853Y197147D01*
X233494Y197983D01*
X233897Y198956D01*
X234034Y200000D01*
X233897Y201044D01*
X233494Y202017D01*
X232853Y202853D01*
X232017Y203494D01*
X231044Y203897D01*
X230000Y204034D01*
D02*
G37*
G36*
X220000D02*
X218956Y203897D01*
X217983Y203494D01*
X217147Y202853D01*
X216506Y202017D01*
X216103Y201044D01*
X215966Y200000D01*
X216103Y198956D01*
X216506Y197983D01*
X217147Y197147D01*
X217983Y196506D01*
X218956Y196103D01*
X220000Y195966D01*
X221044Y196103D01*
X222017Y196506D01*
X222853Y197147D01*
X223494Y197983D01*
X223897Y198956D01*
X224035Y200000D01*
X223897Y201044D01*
X223494Y202017D01*
X222853Y202853D01*
X222017Y203494D01*
X221044Y203897D01*
X220000Y204034D01*
D02*
G37*
G36*
X210000D02*
X208956Y203897D01*
X207983Y203494D01*
X207147Y202853D01*
X206506Y202017D01*
X206103Y201044D01*
X205965Y200000D01*
X206103Y198956D01*
X206506Y197983D01*
X207147Y197147D01*
X207983Y196506D01*
X208956Y196103D01*
X210000Y195966D01*
X211044Y196103D01*
X212017Y196506D01*
X212853Y197147D01*
X213494Y197983D01*
X213897Y198956D01*
X214035Y200000D01*
X213897Y201044D01*
X213494Y202017D01*
X212853Y202853D01*
X212017Y203494D01*
X211044Y203897D01*
X210000Y204034D01*
D02*
G37*
G36*
X200000D02*
X198956Y203897D01*
X197983Y203494D01*
X197147Y202853D01*
X196506Y202017D01*
X196103Y201044D01*
X195966Y200000D01*
X196103Y198956D01*
X196506Y197983D01*
X197147Y197147D01*
X197983Y196506D01*
X198956Y196103D01*
X200000Y195966D01*
X201044Y196103D01*
X202017Y196506D01*
X202853Y197147D01*
X203494Y197983D01*
X203897Y198956D01*
X204034Y200000D01*
X203897Y201044D01*
X203494Y202017D01*
X202853Y202853D01*
X202017Y203494D01*
X201044Y203897D01*
X200000Y204034D01*
D02*
G37*
G36*
X190000D02*
X188956Y203897D01*
X187983Y203494D01*
X187147Y202853D01*
X186506Y202017D01*
X186103Y201044D01*
X185966Y200000D01*
X186103Y198956D01*
X186506Y197983D01*
X187147Y197147D01*
X187983Y196506D01*
X188956Y196103D01*
X190000Y195966D01*
X191044Y196103D01*
X192017Y196506D01*
X192853Y197147D01*
X193494Y197983D01*
X193897Y198956D01*
X194035Y200000D01*
X193897Y201044D01*
X193494Y202017D01*
X192853Y202853D01*
X192017Y203494D01*
X191044Y203897D01*
X190000Y204034D01*
D02*
G37*
G36*
X180000D02*
X178956Y203897D01*
X177983Y203494D01*
X177147Y202853D01*
X176506Y202017D01*
X176103Y201044D01*
X175965Y200000D01*
X176103Y198956D01*
X176506Y197983D01*
X177147Y197147D01*
X177983Y196506D01*
X178956Y196103D01*
X180000Y195966D01*
X181044Y196103D01*
X182017Y196506D01*
X182853Y197147D01*
X183494Y197983D01*
X183897Y198956D01*
X184035Y200000D01*
X183897Y201044D01*
X183494Y202017D01*
X182853Y202853D01*
X182017Y203494D01*
X181044Y203897D01*
X180000Y204034D01*
D02*
G37*
G36*
X154000D02*
X152956Y203897D01*
X151983Y203494D01*
X151147Y202853D01*
X150506Y202017D01*
X150103Y201044D01*
X149966Y200000D01*
X150103Y198956D01*
X150506Y197983D01*
X151147Y197147D01*
X151983Y196506D01*
X152956Y196103D01*
X154000Y195966D01*
X155044Y196103D01*
X156017Y196506D01*
X156853Y197147D01*
X157494Y197983D01*
X157897Y198956D01*
X158035Y200000D01*
X157897Y201044D01*
X157494Y202017D01*
X156853Y202853D01*
X156017Y203494D01*
X155044Y203897D01*
X154000Y204034D01*
D02*
G37*
G36*
X144000D02*
X142956Y203897D01*
X141983Y203494D01*
X141147Y202853D01*
X140506Y202017D01*
X140103Y201044D01*
X139965Y200000D01*
X140103Y198956D01*
X140506Y197983D01*
X141147Y197147D01*
X141983Y196506D01*
X142956Y196103D01*
X144000Y195966D01*
X145044Y196103D01*
X146017Y196506D01*
X146853Y197147D01*
X147494Y197983D01*
X147897Y198956D01*
X148035Y200000D01*
X147897Y201044D01*
X147494Y202017D01*
X146853Y202853D01*
X146017Y203494D01*
X145044Y203897D01*
X144000Y204034D01*
D02*
G37*
G36*
X134000D02*
X132956Y203897D01*
X131983Y203494D01*
X131147Y202853D01*
X130506Y202017D01*
X130103Y201044D01*
X129965Y200000D01*
X130103Y198956D01*
X130506Y197983D01*
X131147Y197147D01*
X131983Y196506D01*
X132956Y196103D01*
X134000Y195966D01*
X135044Y196103D01*
X136017Y196506D01*
X136853Y197147D01*
X137494Y197983D01*
X137897Y198956D01*
X138034Y200000D01*
X137897Y201044D01*
X137494Y202017D01*
X136853Y202853D01*
X136017Y203494D01*
X135044Y203897D01*
X134000Y204034D01*
D02*
G37*
G36*
X124000D02*
X122956Y203897D01*
X121983Y203494D01*
X121147Y202853D01*
X120506Y202017D01*
X120103Y201044D01*
X119966Y200000D01*
X120103Y198956D01*
X120506Y197983D01*
X121147Y197147D01*
X121983Y196506D01*
X122956Y196103D01*
X124000Y195966D01*
X125044Y196103D01*
X126017Y196506D01*
X126853Y197147D01*
X127494Y197983D01*
X127897Y198956D01*
X128034Y200000D01*
X127897Y201044D01*
X127494Y202017D01*
X126853Y202853D01*
X126017Y203494D01*
X125044Y203897D01*
X124000Y204034D01*
D02*
G37*
G36*
X114000D02*
X112956Y203897D01*
X111983Y203494D01*
X111147Y202853D01*
X110506Y202017D01*
X110103Y201044D01*
X109966Y200000D01*
X110103Y198956D01*
X110506Y197983D01*
X111147Y197147D01*
X111983Y196506D01*
X112956Y196103D01*
X114000Y195966D01*
X115044Y196103D01*
X116017Y196506D01*
X116853Y197147D01*
X117494Y197983D01*
X117897Y198956D01*
X118035Y200000D01*
X117897Y201044D01*
X117494Y202017D01*
X116853Y202853D01*
X116017Y203494D01*
X115044Y203897D01*
X114000Y204034D01*
D02*
G37*
G36*
X94000D02*
X92956Y203897D01*
X91983Y203494D01*
X91147Y202853D01*
X90506Y202017D01*
X90103Y201044D01*
X89965Y200000D01*
X90103Y198956D01*
X90506Y197983D01*
X91147Y197147D01*
X91983Y196506D01*
X92956Y196103D01*
X94000Y195966D01*
X95044Y196103D01*
X96017Y196506D01*
X96853Y197147D01*
X97494Y197983D01*
X97897Y198956D01*
X98035Y200000D01*
X97897Y201044D01*
X97494Y202017D01*
X96853Y202853D01*
X96017Y203494D01*
X95044Y203897D01*
X94000Y204034D01*
D02*
G37*
G36*
X84000D02*
X82956Y203897D01*
X81983Y203494D01*
X81147Y202853D01*
X80506Y202017D01*
X80103Y201044D01*
X79966Y200000D01*
X80103Y198956D01*
X80506Y197983D01*
X81147Y197147D01*
X81983Y196506D01*
X82956Y196103D01*
X84000Y195966D01*
X85044Y196103D01*
X86017Y196506D01*
X86853Y197147D01*
X87494Y197983D01*
X87897Y198956D01*
X88034Y200000D01*
X87897Y201044D01*
X87494Y202017D01*
X86853Y202853D01*
X86017Y203494D01*
X85044Y203897D01*
X84000Y204034D01*
D02*
G37*
G36*
X74000D02*
X72956Y203897D01*
X71983Y203494D01*
X71147Y202853D01*
X70506Y202017D01*
X70103Y201044D01*
X69965Y200000D01*
X70103Y198956D01*
X70506Y197983D01*
X71147Y197147D01*
X71983Y196506D01*
X72956Y196103D01*
X74000Y195966D01*
X75044Y196103D01*
X76017Y196506D01*
X76853Y197147D01*
X77494Y197983D01*
X77897Y198956D01*
X78035Y200000D01*
X77897Y201044D01*
X77494Y202017D01*
X76853Y202853D01*
X76017Y203494D01*
X75044Y203897D01*
X74000Y204034D01*
D02*
G37*
G36*
X60000Y207334D02*
X58569Y207194D01*
X57193Y206776D01*
X55925Y206098D01*
X54814Y205186D01*
X53902Y204075D01*
X53224Y202807D01*
X52806Y201431D01*
X52666Y200000D01*
X52806Y198569D01*
X53224Y197193D01*
X53902Y195925D01*
X54814Y194814D01*
X55925Y193902D01*
X57193Y193224D01*
X58569Y192806D01*
X60000Y192666D01*
X61431Y192806D01*
X62807Y193224D01*
X64075Y193902D01*
X65186Y194814D01*
X66098Y195925D01*
X66776Y197193D01*
X67194Y198569D01*
X67335Y200000D01*
X67194Y201431D01*
X66776Y202807D01*
X66098Y204075D01*
X65186Y205186D01*
X64075Y206098D01*
X62807Y206776D01*
X61431Y207194D01*
X60000Y207334D01*
D02*
G37*
G36*
X42780Y189034D02*
X41736Y188897D01*
X40763Y188494D01*
X39928Y187853D01*
X39286Y187017D01*
X38883Y186044D01*
X38746Y185000D01*
X38883Y183956D01*
X39286Y182983D01*
X39928Y182147D01*
X40763Y181506D01*
X41736Y181103D01*
X42780Y180965D01*
X43825Y181103D01*
X44798Y181506D01*
X45633Y182147D01*
X46274Y182983D01*
X46677Y183956D01*
X46815Y185000D01*
X46677Y186044D01*
X46274Y187017D01*
X45633Y187853D01*
X44798Y188494D01*
X43825Y188897D01*
X42780Y189034D01*
D02*
G37*
G36*
X10280D02*
X9236Y188897D01*
X8263Y188494D01*
X7428Y187853D01*
X6786Y187017D01*
X6383Y186044D01*
X6246Y185000D01*
X6383Y183956D01*
X6786Y182983D01*
X7428Y182147D01*
X8263Y181506D01*
X9236Y181103D01*
X10280Y180965D01*
X11325Y181103D01*
X12298Y181506D01*
X13133Y182147D01*
X13774Y182983D01*
X14177Y183956D01*
X14315Y185000D01*
X14177Y186044D01*
X13774Y187017D01*
X13133Y187853D01*
X12298Y188494D01*
X11325Y188897D01*
X10280Y189034D01*
D02*
G37*
G36*
X55630Y175964D02*
X54341Y175794D01*
X53140Y175297D01*
X52109Y174505D01*
X51317Y173474D01*
X50820Y172273D01*
X50650Y170984D01*
Y169016D01*
X50820Y167727D01*
X51317Y166526D01*
X52109Y165495D01*
X53140Y164703D01*
X54341Y164206D01*
X55630Y164036D01*
X56919Y164206D01*
X58120Y164703D01*
X59151Y165495D01*
X59942Y166526D01*
X60440Y167727D01*
X60610Y169016D01*
Y170984D01*
X60440Y172273D01*
X59942Y173474D01*
X59151Y174505D01*
X58120Y175297D01*
X56919Y175794D01*
X55630Y175964D01*
D02*
G37*
G36*
X248622Y171685D02*
X245079D01*
X243995Y171543D01*
X242986Y171125D01*
X242119Y170459D01*
X241454Y169593D01*
X241036Y168583D01*
X240893Y167500D01*
X241036Y166417D01*
X241454Y165407D01*
X242119Y164541D01*
X242986Y163875D01*
X243995Y163457D01*
X245079Y163315D01*
X248622D01*
X249705Y163457D01*
X250715Y163875D01*
X251582Y164541D01*
X252247Y165407D01*
X252665Y166417D01*
X252807Y167500D01*
X252665Y168583D01*
X252247Y169593D01*
X251582Y170459D01*
X250715Y171125D01*
X249705Y171543D01*
X248622Y171685D01*
D02*
G37*
G36*
Y161685D02*
X245079D01*
X243995Y161543D01*
X242986Y161125D01*
X242119Y160459D01*
X241454Y159593D01*
X241036Y158583D01*
X240893Y157500D01*
X241036Y156417D01*
X241454Y155407D01*
X242119Y154541D01*
X242986Y153875D01*
X243995Y153457D01*
X245079Y153315D01*
X248622D01*
X249705Y153457D01*
X250715Y153875D01*
X251582Y154541D01*
X252247Y155407D01*
X252665Y156417D01*
X252807Y157500D01*
X252665Y158583D01*
X252247Y159593D01*
X251582Y160459D01*
X250715Y161125D01*
X249705Y161543D01*
X248622Y161685D01*
D02*
G37*
G36*
X27339Y149681D02*
X17661D01*
Y140004D01*
X27339D01*
Y149681D01*
D02*
G37*
G36*
X248933Y151295D02*
X242602D01*
Y143980D01*
X244238D01*
Y143323D01*
X242504D01*
Y137779D01*
X247457D01*
Y143323D01*
X247297D01*
Y143980D01*
X248933D01*
Y151295D01*
D02*
G37*
G36*
X116779Y145665D02*
X110449D01*
Y143516D01*
X109970Y143421D01*
X109474Y143089D01*
X103623Y137239D01*
X103540Y137226D01*
X103349Y137242D01*
X103067Y137390D01*
X103059Y137428D01*
Y139524D01*
X95744D01*
Y138783D01*
X94187D01*
X93260Y138598D01*
X92473Y138073D01*
X91947Y137286D01*
X91763Y136358D01*
X91947Y135430D01*
X92473Y134644D01*
X93260Y134118D01*
X94187Y133934D01*
X95744D01*
Y133298D01*
X95382Y132860D01*
X95000Y132936D01*
X94187Y132774D01*
X93498Y132314D01*
X93038Y131625D01*
X92876Y130813D01*
X93038Y130000D01*
X93471Y129353D01*
Y128654D01*
X92228D01*
Y126962D01*
X91158D01*
Y127417D01*
X83842D01*
Y121087D01*
X91158D01*
Y123904D01*
X92228D01*
Y123701D01*
X97772D01*
Y125433D01*
X97937Y125559D01*
X97964Y125567D01*
X98578Y125431D01*
X98856Y125014D01*
X99545Y124554D01*
X100358Y124392D01*
X101171Y124554D01*
X101818Y124986D01*
X104242D01*
X104742Y124925D01*
Y124925D01*
X112352D01*
Y128862D01*
Y132799D01*
Y135980D01*
X107344D01*
X107152Y136442D01*
X109987Y139277D01*
X110449Y139085D01*
Y138350D01*
X116779D01*
Y145665D01*
D02*
G37*
G36*
X232403Y183106D02*
X214655D01*
Y131894D01*
X232403D01*
Y183106D01*
D02*
G37*
G36*
X172500Y183520D02*
X157500D01*
X157110Y183442D01*
X156779Y183221D01*
X156664Y183106D01*
X154222D01*
Y180664D01*
X149578Y176020D01*
X140860D01*
X140470Y175942D01*
X140139Y175721D01*
X139918Y175390D01*
X139841Y175000D01*
Y165000D01*
X139918Y164610D01*
X140139Y164279D01*
X148980Y155438D01*
Y137500D01*
X149058Y137110D01*
X149279Y136779D01*
X154279Y131779D01*
X154610Y131558D01*
X155000Y131480D01*
X172500D01*
X172890Y131558D01*
X173221Y131779D01*
X173442Y132110D01*
X173520Y132500D01*
Y182500D01*
X173442Y182890D01*
X173221Y183221D01*
X172890Y183442D01*
X172500Y183520D01*
D02*
G37*
G36*
X241748Y143323D02*
X236795D01*
Y137779D01*
X237742D01*
Y134120D01*
X235223D01*
Y124266D01*
X245078D01*
Y134120D01*
X240801D01*
Y137779D01*
X241748D01*
Y143323D01*
D02*
G37*
G36*
X112352Y124169D02*
X104742D01*
Y123969D01*
X104447Y123910D01*
X103980Y123598D01*
X103537Y123155D01*
X102161D01*
X102014Y123126D01*
X98413D01*
Y121716D01*
X97772D01*
Y122945D01*
X92228D01*
Y117992D01*
X97772D01*
Y118658D01*
X98413D01*
Y118173D01*
X103957D01*
Y119723D01*
X104308Y119891D01*
X104742Y119589D01*
Y119020D01*
X104742D01*
X105049Y118646D01*
X105018Y118488D01*
Y117524D01*
X104929D01*
Y111980D01*
X109882D01*
Y117524D01*
X108453D01*
X108246Y118024D01*
X109242Y119020D01*
X112352D01*
Y120988D01*
Y124169D01*
D02*
G37*
G36*
X82201Y130035D02*
X73311D01*
Y119965D01*
X77978D01*
Y110171D01*
X57205D01*
X56620Y110055D01*
X56123Y109723D01*
X53030Y106630D01*
X46675D01*
X45050Y108255D01*
X45299Y108713D01*
X45965Y108580D01*
X46777Y108742D01*
X47466Y109202D01*
X47926Y109891D01*
X48088Y110704D01*
X47926Y111516D01*
X47466Y112205D01*
X46777Y112666D01*
X45965Y112827D01*
X45152Y112666D01*
X44529Y112250D01*
X44029Y112353D01*
Y116342D01*
X46807D01*
Y123471D01*
X47721D01*
Y119965D01*
X56610D01*
Y130035D01*
X47721D01*
Y126529D01*
X40866D01*
X40281Y126413D01*
X39785Y126081D01*
X37361Y123658D01*
X33193D01*
Y116342D01*
X35971D01*
Y114589D01*
X35288Y114454D01*
X34664Y114037D01*
X34247Y113413D01*
X34101Y112677D01*
X34247Y111941D01*
X34611Y111398D01*
X34247Y110854D01*
X34101Y110118D01*
X34247Y109382D01*
X34611Y108839D01*
X34247Y108295D01*
X34101Y107559D01*
X34247Y106823D01*
X34611Y106280D01*
X34247Y105736D01*
X34101Y105000D01*
X34247Y104264D01*
X34611Y103720D01*
X34247Y103177D01*
X34101Y102441D01*
X34247Y101705D01*
X34611Y101161D01*
X34247Y100618D01*
X34101Y99882D01*
X34247Y99146D01*
X34664Y98522D01*
X35288Y98106D01*
X36024Y97959D01*
X36148D01*
Y96457D01*
X35378D01*
Y93076D01*
X33399Y91097D01*
X33067Y90601D01*
X32951Y90016D01*
Y89799D01*
X31028D01*
Y84256D01*
X35980D01*
Y87856D01*
X36010Y88004D01*
Y89182D01*
X36236Y89354D01*
X36736Y89106D01*
Y84256D01*
X41689D01*
Y87636D01*
X43058Y89005D01*
X44250Y87813D01*
X44512Y87638D01*
Y83370D01*
X59898D01*
Y83386D01*
X63252D01*
Y80480D01*
X71748D01*
Y82481D01*
X72210Y82672D01*
X77086Y77796D01*
X76506Y77041D01*
X76103Y76068D01*
X75965Y75024D01*
Y69024D01*
X76103Y67979D01*
X76506Y67006D01*
X77147Y66171D01*
X77983Y65530D01*
X78956Y65127D01*
X80000Y64989D01*
X81044Y65127D01*
X82017Y65530D01*
X82853Y66171D01*
X83494Y67006D01*
X83897Y67979D01*
X84035Y69024D01*
Y75024D01*
X83964Y75559D01*
X86822Y78416D01*
X87347Y79203D01*
X87532Y80131D01*
Y84103D01*
X88046Y84618D01*
X88437Y84540D01*
X92071D01*
X92708Y83710D01*
X93543Y83069D01*
X94516Y82666D01*
X95561Y82528D01*
X96605Y82666D01*
X97578Y83069D01*
X98414Y83710D01*
X99055Y84546D01*
X99458Y85519D01*
X99595Y86563D01*
X99458Y87607D01*
X99055Y88580D01*
X98414Y89416D01*
X97578Y90057D01*
X96605Y90460D01*
X95561Y90597D01*
X94516Y90460D01*
X93543Y90057D01*
X92708Y89416D01*
X92071Y88586D01*
X89925D01*
Y97011D01*
X90386Y97203D01*
X92324Y95265D01*
X92820Y94933D01*
X93405Y94817D01*
X108379D01*
X108965Y94933D01*
X109461Y95265D01*
X111812Y97617D01*
X118644D01*
X119949Y96312D01*
Y91160D01*
X120632D01*
X120638Y90662D01*
X120638D01*
Y87333D01*
X120161Y87123D01*
X119882Y87347D01*
Y90662D01*
X114929D01*
Y85119D01*
X117719D01*
X118245Y84593D01*
Y81812D01*
X117776Y81629D01*
X112576D01*
X111991Y81513D01*
X111495Y81181D01*
X104497Y74183D01*
X104034Y74374D01*
Y75024D01*
X103897Y76068D01*
X103494Y77041D01*
X102853Y77877D01*
X102017Y78518D01*
X101044Y78921D01*
X100000Y79058D01*
X98956Y78921D01*
X97983Y78518D01*
X97147Y77877D01*
X96506Y77041D01*
X96103Y76068D01*
X95965Y75024D01*
Y69024D01*
X96103Y67979D01*
X96506Y67006D01*
X97147Y66171D01*
X97983Y65530D01*
X98956Y65127D01*
X100000Y64989D01*
X101044Y65127D01*
X102017Y65530D01*
X102853Y66171D01*
X103494Y67006D01*
X103897Y67979D01*
X104034Y69024D01*
Y70494D01*
X104500D01*
X105085Y70611D01*
X105581Y70942D01*
X113210Y78571D01*
X118260D01*
Y77926D01*
X127577D01*
X129277Y76226D01*
X129070Y75726D01*
X125740D01*
Y68926D01*
X128669D01*
X128860Y68464D01*
X125668Y65272D01*
X122878D01*
Y59728D01*
X123825D01*
Y57772D01*
X122878D01*
Y52228D01*
X127831D01*
Y57772D01*
X126884D01*
Y59728D01*
X127831D01*
Y63109D01*
X132484Y67762D01*
X132984Y67583D01*
X132984Y67583D01*
Y65867D01*
X140299D01*
Y72197D01*
X134757D01*
X133059Y73895D01*
Y76137D01*
X132942Y76722D01*
X132611Y77218D01*
X129770Y80060D01*
Y80343D01*
X129740Y80490D01*
Y84726D01*
X125851D01*
X125591Y85119D01*
Y90662D01*
X125591D01*
X125596Y91160D01*
X126279D01*
Y98475D01*
X122112D01*
X120359Y100227D01*
X119863Y100559D01*
X119277Y100675D01*
X111179D01*
X110594Y100559D01*
X110098Y100227D01*
X107746Y97876D01*
X94039D01*
X89925Y101990D01*
Y102252D01*
X89740Y103180D01*
X89214Y103966D01*
X84939Y108242D01*
X84152Y108767D01*
X83224Y108952D01*
X82297Y108767D01*
X81510Y108242D01*
X81450Y108151D01*
X80979Y108347D01*
X81037Y108642D01*
Y119965D01*
X82201D01*
Y130035D01*
D02*
G37*
G36*
X124063Y145665D02*
X117732D01*
Y138350D01*
X124063D01*
Y138992D01*
X124525Y139183D01*
X127266Y136442D01*
X127075Y135980D01*
X122160D01*
Y132799D01*
Y130831D01*
Y126894D01*
Y122957D01*
X129697D01*
X130000Y122654D01*
Y122605D01*
X129770Y122201D01*
X129500Y122201D01*
X122160D01*
Y119020D01*
X123194D01*
X123480Y118520D01*
X123385Y118359D01*
X123051Y118292D01*
X122362Y117832D01*
X121902Y117143D01*
X121740Y116331D01*
X121902Y115518D01*
X122362Y114829D01*
X123051Y114369D01*
X123863Y114207D01*
X124676Y114369D01*
X125365Y114829D01*
X125825Y115518D01*
X125987Y116331D01*
X125979Y116371D01*
X126998Y117390D01*
X127198Y117363D01*
X127498Y117215D01*
Y112878D01*
X133041D01*
Y116242D01*
X133059Y116331D01*
Y123287D01*
X132942Y123873D01*
X132611Y124369D01*
X132794Y124893D01*
X133020Y124924D01*
X134301Y123643D01*
Y121409D01*
X134331Y121262D01*
Y117957D01*
X139874D01*
Y119110D01*
X140598D01*
Y118370D01*
X146142D01*
Y123323D01*
X140598D01*
Y122169D01*
X139874D01*
Y122909D01*
X137360D01*
Y124277D01*
X137311Y124526D01*
X137690Y125026D01*
X140598D01*
Y124079D01*
X146142D01*
Y124131D01*
X154725D01*
X160459Y118396D01*
X161245Y117871D01*
X162173Y117686D01*
X163101Y117871D01*
X163888Y118396D01*
X164413Y119183D01*
X164598Y120111D01*
X164413Y121039D01*
X163888Y121825D01*
X157443Y128270D01*
X156657Y128795D01*
X155729Y128980D01*
X146142D01*
Y129032D01*
X144899D01*
Y129551D01*
X147658D01*
Y135882D01*
X140342D01*
Y129551D01*
X141841D01*
Y129032D01*
X140598D01*
Y128085D01*
X137014D01*
X135533Y129566D01*
X135037Y129897D01*
X134699Y129964D01*
X134446Y130480D01*
X134446Y130486D01*
X134515Y130589D01*
X134632Y131174D01*
Y133193D01*
X135120D01*
X135438Y132806D01*
X135377Y132500D01*
X135538Y131687D01*
X135998Y130999D01*
X136687Y130538D01*
X137500Y130377D01*
X138313Y130538D01*
X139002Y130999D01*
X139462Y131687D01*
X139623Y132500D01*
X139462Y133313D01*
X139002Y134002D01*
X138947Y134038D01*
Y134693D01*
X138917Y134841D01*
Y139524D01*
X131602D01*
Y137139D01*
X131102Y136932D01*
X124945Y143089D01*
X124449Y143421D01*
X124063Y143498D01*
Y145665D01*
D02*
G37*
G36*
X229500Y121374D02*
X225500D01*
X224195Y121202D01*
X222978Y120698D01*
X221934Y119897D01*
X221132Y118852D01*
X220629Y117636D01*
X220457Y116331D01*
X220629Y115025D01*
X221132Y113809D01*
X221934Y112765D01*
X222978Y111963D01*
X224195Y111459D01*
X225500Y111288D01*
X229500D01*
X230805Y111459D01*
X232022Y111963D01*
X233066Y112765D01*
X233868Y113809D01*
X234371Y115025D01*
X234543Y116331D01*
X234371Y117636D01*
X233868Y118852D01*
X233066Y119897D01*
X232022Y120698D01*
X230805Y121202D01*
X229500Y121374D01*
D02*
G37*
G36*
X120000Y112582D02*
X118956Y112445D01*
X117983Y112042D01*
X117147Y111401D01*
X116506Y110565D01*
X116103Y109592D01*
X115965Y108548D01*
X116103Y107504D01*
X116506Y106531D01*
X117147Y105695D01*
X117983Y105054D01*
X118956Y104651D01*
X120000Y104513D01*
X121044Y104651D01*
X122017Y105054D01*
X122853Y105695D01*
X123494Y106531D01*
X123897Y107504D01*
X124035Y108548D01*
X123897Y109592D01*
X123494Y110565D01*
X122853Y111401D01*
X122017Y112042D01*
X121044Y112445D01*
X120000Y112582D01*
D02*
G37*
G36*
X256650Y127470D02*
X255364Y127300D01*
X254166Y126804D01*
X253136Y126014D01*
X252346Y124985D01*
X251850Y123786D01*
X251681Y122500D01*
X251850Y121214D01*
X252246Y120258D01*
X242631Y110644D01*
X236929D01*
X236344Y110527D01*
X235848Y110196D01*
X230983Y105331D01*
X227602D01*
Y104384D01*
X225272D01*
Y105331D01*
X224210D01*
X224120Y105372D01*
X223857Y105638D01*
X223779Y105831D01*
X223789Y105914D01*
X223785Y105927D01*
X223787Y105940D01*
X223744Y106077D01*
X223739Y106139D01*
X223707Y106200D01*
X223680Y106297D01*
X223665Y106325D01*
X223603Y106404D01*
X223557Y106493D01*
X222258Y108130D01*
X210565Y123081D01*
X210529Y123111D01*
X210524Y123121D01*
X210508Y123135D01*
X210483Y123173D01*
X210442Y123214D01*
X210327Y123291D01*
X210223Y123381D01*
X210163Y123400D01*
X210111Y123435D01*
X209976Y123462D01*
X209845Y123505D01*
X209788Y123512D01*
X209741Y123509D01*
X209721Y123513D01*
X209710Y123510D01*
X209664Y123520D01*
X180458Y123520D01*
X180068Y123442D01*
X179737Y123221D01*
X179279Y122763D01*
X179058Y122432D01*
X178980Y122042D01*
Y110100D01*
X179000Y110002D01*
X179000Y109901D01*
X179018Y109809D01*
X179057Y109716D01*
X179058Y109710D01*
X179061Y109705D01*
X179128Y109545D01*
X179129Y109539D01*
X179132Y109534D01*
X179171Y109441D01*
X179223Y109363D01*
X179294Y109292D01*
X179350Y109208D01*
X181161Y107397D01*
X181244Y107342D01*
X181315Y107271D01*
X181394Y107218D01*
X181394Y107218D01*
X181487Y107179D01*
X181492Y107176D01*
X181497Y107175D01*
X181658Y107108D01*
X181663Y107105D01*
X181669Y107104D01*
X181762Y107066D01*
X181854Y107047D01*
X181955D01*
X182053Y107028D01*
X182378D01*
X182768Y107105D01*
X183288Y107321D01*
X184311Y107456D01*
X185334Y107321D01*
X185854Y107105D01*
X186244Y107028D01*
X187660D01*
X187743Y107011D01*
X187760Y106927D01*
Y105617D01*
X187838Y105227D01*
X188128Y104527D01*
X188271Y103437D01*
Y102854D01*
X188349Y102464D01*
X188570Y102133D01*
X188900Y101912D01*
X189291Y101835D01*
X197078D01*
X197163Y101749D01*
X197247Y101693D01*
X197318Y101622D01*
X197397Y101570D01*
X197397Y101570D01*
X197397Y101570D01*
X197489Y101531D01*
X197494Y101528D01*
X197500Y101527D01*
X197602Y101485D01*
X197634Y101463D01*
X197649Y101457D01*
X197687Y101450D01*
X197764Y101418D01*
X197764D01*
X197764Y101417D01*
X197825Y101405D01*
X197837Y101345D01*
X197869Y101267D01*
X197877Y101229D01*
X197877Y101229D01*
X197883Y101214D01*
X197904Y101182D01*
X197946Y101080D01*
X197948Y101075D01*
X197951Y101070D01*
X197989Y100977D01*
X198042Y100898D01*
X198113Y100827D01*
X198169Y100744D01*
X203965Y94947D01*
X203967Y94921D01*
X203979Y94873D01*
X203983Y94800D01*
X203995Y94750D01*
X204005Y94700D01*
X204033Y94632D01*
X204043Y94584D01*
X204053Y94559D01*
X204062Y94546D01*
X204064Y94535D01*
X204066Y94533D01*
X204085Y94460D01*
X205593Y91298D01*
X208033Y86178D01*
X208033Y86178D01*
X208804Y84561D01*
X208817Y84544D01*
X208823Y84524D01*
X210317Y81691D01*
X214051Y74613D01*
X214084Y74573D01*
X214106Y74530D01*
X214137Y74493D01*
X214161Y74446D01*
X214194Y74406D01*
X214222Y74383D01*
X214287Y74285D01*
X214293Y74279D01*
X214331Y74254D01*
X214357Y74221D01*
X214457Y74168D01*
Y73962D01*
X228457D01*
Y74347D01*
X240843D01*
X247808Y67382D01*
X247617Y66920D01*
X244700D01*
X244115Y66803D01*
X243619Y66472D01*
X228342Y51195D01*
X227854Y51397D01*
X226810Y51534D01*
X225766Y51397D01*
X224793Y50994D01*
X223957Y50353D01*
X223316Y49517D01*
X222913Y48544D01*
X222775Y47500D01*
X222913Y46456D01*
X223316Y45483D01*
X223957Y44647D01*
X224793Y44006D01*
X225766Y43603D01*
X226810Y43466D01*
X227854Y43603D01*
X228827Y44006D01*
X229663Y44647D01*
X230304Y45483D01*
X230707Y46456D01*
X230844Y47500D01*
X230707Y48544D01*
X230505Y49032D01*
X245334Y63861D01*
X249370D01*
X249604Y63297D01*
X250269Y62431D01*
X251136Y61765D01*
X252145Y61347D01*
X253228Y61205D01*
X256772D01*
X257855Y61347D01*
X258864Y61765D01*
X259731Y62431D01*
X260396Y63297D01*
X260814Y64307D01*
X260957Y65390D01*
X260814Y66473D01*
X260396Y67483D01*
X259731Y68350D01*
X258864Y69015D01*
X257855Y69433D01*
X256772Y69576D01*
X253228D01*
X252560Y69488D01*
X243561Y78486D01*
X242775Y79012D01*
X241847Y79196D01*
X228520D01*
Y99882D01*
X228720Y100226D01*
X228845Y100338D01*
X228925Y100377D01*
X228927Y100378D01*
X233146D01*
Y103168D01*
X237563Y107585D01*
X238434D01*
X238534Y107085D01*
X237666Y106725D01*
X236636Y105935D01*
X235846Y104906D01*
X235350Y103708D01*
X235181Y102421D01*
X235350Y101135D01*
X235846Y99936D01*
X236636Y98907D01*
X237666Y98117D01*
X238864Y97621D01*
X240150Y97452D01*
X241437Y97621D01*
X242635Y98117D01*
X243665Y98907D01*
X244454Y99936D01*
X244951Y101135D01*
X245120Y102421D01*
X244951Y103708D01*
X244454Y104906D01*
X243665Y105935D01*
X242635Y106725D01*
X241767Y107085D01*
X241866Y107585D01*
X243265D01*
X243850Y107701D01*
X244346Y108033D01*
X254409Y118095D01*
X255364Y117700D01*
X256650Y117530D01*
X257937Y117700D01*
X259135Y118196D01*
X260164Y118986D01*
X260954Y120015D01*
X261451Y121214D01*
X261620Y122500D01*
X261451Y123786D01*
X260954Y124985D01*
X260164Y126014D01*
X259135Y126804D01*
X257937Y127300D01*
X256650Y127470D01*
D02*
G37*
G36*
Y114084D02*
X255364Y113915D01*
X254166Y113418D01*
X253136Y112628D01*
X252346Y111599D01*
X251850Y110400D01*
X251681Y109114D01*
X251850Y107828D01*
X252346Y106629D01*
X253136Y105600D01*
X254166Y104810D01*
X255364Y104314D01*
X256650Y104145D01*
X257937Y104314D01*
X259135Y104810D01*
X260164Y105600D01*
X260954Y106629D01*
X261451Y107828D01*
X261620Y109114D01*
X261451Y110400D01*
X260954Y111599D01*
X260164Y112628D01*
X259135Y113418D01*
X257937Y113915D01*
X256650Y114084D01*
D02*
G37*
G36*
X21654Y114600D02*
X18701D01*
X17965Y114454D01*
X17341Y114037D01*
X17024Y113562D01*
X17003Y113548D01*
X16887Y113492D01*
X15300Y112299D01*
X10004D01*
Y104984D01*
X12646D01*
Y99197D01*
X12733Y98761D01*
X12646Y98325D01*
X12831Y97397D01*
X13356Y96610D01*
X20036Y89931D01*
Y85110D01*
X20221Y84182D01*
X20746Y83396D01*
X24394Y79748D01*
X24187Y79248D01*
X21795D01*
Y70752D01*
X32457D01*
Y79248D01*
X29550D01*
Y80445D01*
X29550Y80445D01*
X29366Y81373D01*
X28840Y82159D01*
X24885Y86115D01*
Y90935D01*
X24701Y91863D01*
X24175Y92649D01*
X17495Y99329D01*
Y100448D01*
X17889Y100658D01*
X17995Y100659D01*
X18701Y100518D01*
X21654D01*
X22389Y100664D01*
X23013Y101081D01*
X23430Y101705D01*
X23576Y102441D01*
X23430Y103177D01*
X23067Y103720D01*
X23430Y104264D01*
X23576Y105000D01*
X23430Y105736D01*
X23189Y106096D01*
X23221Y106255D01*
X23442Y106586D01*
X23520Y106976D01*
Y107274D01*
X23576Y107559D01*
X23520Y107844D01*
Y109833D01*
X23576Y110118D01*
X23520Y110403D01*
Y112392D01*
X23576Y112677D01*
X23430Y113413D01*
X23013Y114037D01*
X22389Y114454D01*
X21654Y114600D01*
D02*
G37*
G36*
X151146Y116020D02*
X140000D01*
X139610Y115942D01*
X139279Y115721D01*
X139058Y115390D01*
X138980Y115000D01*
X139058Y114610D01*
X139228Y114355D01*
Y105000D01*
X139306Y104610D01*
X139527Y104279D01*
X139858Y104058D01*
X140248Y103980D01*
X140719D01*
X146015Y98685D01*
X145966Y98187D01*
X145600Y97943D01*
X143950Y96293D01*
X137500D01*
X136572Y96108D01*
X135786Y95582D01*
X135424Y95042D01*
X134924Y95194D01*
Y97500D01*
X134740Y98428D01*
X134214Y99214D01*
X133428Y99740D01*
X132500Y99924D01*
X131572Y99740D01*
X130786Y99214D01*
X130260Y98428D01*
X130076Y97500D01*
Y87965D01*
X130260Y87037D01*
X130786Y86250D01*
X133262Y83774D01*
X133476Y83631D01*
Y80165D01*
X138356D01*
X138904Y79617D01*
X139463Y79244D01*
X140122Y79113D01*
X142484D01*
Y79017D01*
X149240D01*
Y81576D01*
Y84135D01*
Y87771D01*
X142484D01*
Y87675D01*
X140753D01*
X140248Y87775D01*
X139551Y87637D01*
X138959Y87241D01*
X138214Y86496D01*
X137163D01*
X136691Y87203D01*
X134924Y88969D01*
Y92542D01*
X135424Y92694D01*
X135786Y92154D01*
X136572Y91628D01*
X137500Y91444D01*
X144955D01*
X145882Y91628D01*
X146669Y92154D01*
X149029Y94514D01*
X149555Y95301D01*
X149740Y96228D01*
X149562Y97122D01*
X149566Y97233D01*
X149774Y97622D01*
X152500D01*
X152890Y97700D01*
X152922Y97721D01*
X153386Y97430D01*
X152612Y91966D01*
X152617Y91894D01*
X152603Y91823D01*
Y91395D01*
X152592Y91364D01*
X152551Y91304D01*
X152526Y91177D01*
X152484Y91056D01*
X152019Y87771D01*
X151484D01*
Y84154D01*
X151480Y84135D01*
X151480Y82653D01*
X151484Y82633D01*
Y79036D01*
X151480Y79017D01*
Y75000D01*
X151558Y74610D01*
X151779Y74279D01*
X152110Y74058D01*
X152500Y73980D01*
X166192D01*
X174022Y66150D01*
X174227Y65807D01*
X174022Y65464D01*
X164578Y56020D01*
X158658D01*
Y57024D01*
X151342D01*
Y50693D01*
X151480D01*
X151480Y32600D01*
X151500Y32502D01*
Y32401D01*
X151517Y32318D01*
X151555Y32225D01*
X151558Y32210D01*
X151566Y32198D01*
X151669Y31950D01*
X151950Y31669D01*
X152198Y31566D01*
X152210Y31558D01*
X152225Y31555D01*
X152318Y31517D01*
X152401Y31500D01*
X152502D01*
X152600Y31480D01*
X158844D01*
X158943Y30980D01*
X158263Y30699D01*
X157428Y30058D01*
X156786Y29222D01*
X156383Y28249D01*
X156246Y27205D01*
X156383Y26160D01*
X156786Y25188D01*
X157428Y24352D01*
X157856Y24023D01*
Y21285D01*
X150535Y13964D01*
X150000Y14035D01*
X148956Y13897D01*
X147983Y13494D01*
X147147Y12853D01*
X146506Y12017D01*
X146103Y11044D01*
X145966Y10000D01*
X146103Y8956D01*
X146506Y7983D01*
X147147Y7147D01*
X147983Y6506D01*
X148956Y6103D01*
X150000Y5965D01*
X151044Y6103D01*
X152017Y6506D01*
X152853Y7147D01*
X153494Y7983D01*
X153897Y8956D01*
X154034Y10000D01*
X153964Y10535D01*
X161995Y18566D01*
X162520Y19353D01*
X162705Y20280D01*
Y24023D01*
X163133Y24352D01*
X163774Y25188D01*
X164177Y26160D01*
X164315Y27205D01*
X164177Y28249D01*
X163774Y29222D01*
X163133Y30058D01*
X162298Y30699D01*
X161618Y30980D01*
X161717Y31480D01*
X194899D01*
X194954Y31491D01*
X194998D01*
X195043Y31500D01*
X195098D01*
X195153Y31511D01*
X195208Y31517D01*
X195261Y31534D01*
X195306Y31539D01*
X195348Y31552D01*
X195403Y31558D01*
X202553Y33819D01*
X202604Y33847D01*
X202610Y33848D01*
X202626Y33857D01*
X202656Y33863D01*
X202692Y33878D01*
X202756Y33920D01*
X202812Y33944D01*
X202832Y33957D01*
X202861Y33986D01*
X202958Y34039D01*
X202986Y34074D01*
X203023Y34099D01*
X203110Y34228D01*
X203207Y34350D01*
X203220Y34393D01*
X203244Y34430D01*
X203266Y34538D01*
X203285Y34575D01*
X203292Y34598D01*
X203297Y34659D01*
X203318Y34732D01*
X203321Y34771D01*
X203318Y34801D01*
X203322Y34820D01*
X203321Y34826D01*
X203332Y34883D01*
X203332Y55078D01*
Y66224D01*
X203332Y77767D01*
Y88830D01*
X203312Y88929D01*
X203312Y89029D01*
X203294Y89122D01*
X203256Y89215D01*
X203254Y89221D01*
X203251Y89225D01*
X203185Y89386D01*
X203183Y89392D01*
X203180Y89397D01*
X203142Y89490D01*
X203089Y89568D01*
X203018Y89639D01*
X202962Y89723D01*
X195967Y96718D01*
X195883Y96774D01*
X195812Y96845D01*
X195734Y96898D01*
X195734Y96898D01*
X195641Y96936D01*
X195636Y96939D01*
X195630Y96940D01*
X195469Y97007D01*
X195465Y97010D01*
X195459Y97011D01*
X195366Y97050D01*
X195273Y97068D01*
X195173D01*
X195074Y97088D01*
X192159D01*
X192141Y97100D01*
X192070Y97170D01*
X192063Y97176D01*
X192063Y97176D01*
X192062Y97176D01*
X191970Y97214D01*
X191894Y97265D01*
X191805Y97283D01*
X191798Y97285D01*
X191793Y97289D01*
X191788Y97290D01*
X191695Y97328D01*
X191695D01*
X191695Y97328D01*
X191602Y97347D01*
X191502Y97347D01*
X191403Y97366D01*
X188880D01*
X188781Y97347D01*
X188681D01*
X188597Y97330D01*
X188505Y97291D01*
X188490Y97289D01*
X188477Y97280D01*
X188230Y97178D01*
X187948Y96896D01*
X187846Y96649D01*
X187838Y96636D01*
X187835Y96622D01*
X187796Y96529D01*
X187779Y96445D01*
Y96345D01*
X187760Y96246D01*
Y95356D01*
X187743Y95272D01*
X187660Y95256D01*
X180025D01*
X179942Y95272D01*
X179925Y95356D01*
Y96246D01*
X179905Y96345D01*
Y96445D01*
X179889Y96529D01*
X179850Y96622D01*
X179848Y96636D01*
X179839Y96649D01*
X179737Y96896D01*
X179455Y97178D01*
X179208Y97280D01*
X179195Y97289D01*
X179181Y97291D01*
X179088Y97330D01*
X179004Y97347D01*
X178904D01*
X178805Y97366D01*
X177437D01*
Y108441D01*
X167563D01*
Y94630D01*
X172608D01*
X172800Y94168D01*
X164651Y86020D01*
X158997D01*
X158687Y86412D01*
X160992Y96111D01*
X160996Y96230D01*
X161020Y96346D01*
Y98642D01*
Y107559D01*
X160942Y107949D01*
X160721Y108280D01*
X158162Y110839D01*
X157831Y111060D01*
X157831Y111060D01*
Y111413D01*
X152878D01*
Y111413D01*
X152602Y111397D01*
X152158Y115121D01*
X152115Y115253D01*
X152088Y115390D01*
X152054Y115441D01*
X152035Y115499D01*
X151944Y115605D01*
X151867Y115721D01*
X151816Y115755D01*
X151776Y115801D01*
X151652Y115865D01*
X151536Y115942D01*
X151476Y115954D01*
X151422Y115981D01*
X151283Y115992D01*
X151146Y116020D01*
D02*
G37*
G36*
X105561Y90597D02*
X104516Y90460D01*
X103543Y90057D01*
X102708Y89416D01*
X102067Y88580D01*
X101664Y87607D01*
X101526Y86563D01*
X101664Y85519D01*
X102067Y84546D01*
X102708Y83710D01*
X103543Y83069D01*
X104516Y82666D01*
X105561Y82528D01*
X106605Y82666D01*
X107578Y83069D01*
X108414Y83710D01*
X109055Y84546D01*
X109458Y85519D01*
X109595Y86563D01*
X109458Y87607D01*
X109055Y88580D01*
X108414Y89416D01*
X107578Y90057D01*
X106605Y90460D01*
X105561Y90597D01*
D02*
G37*
G36*
X256772Y89576D02*
X253228D01*
X252145Y89433D01*
X251136Y89015D01*
X250269Y88350D01*
X249604Y87483D01*
X249185Y86473D01*
X249043Y85390D01*
X249185Y84307D01*
X249604Y83297D01*
X250269Y82431D01*
X251136Y81766D01*
X252145Y81347D01*
X253228Y81205D01*
X256772D01*
X257855Y81347D01*
X258864Y81766D01*
X259731Y82431D01*
X260396Y83297D01*
X260814Y84307D01*
X260957Y85390D01*
X260814Y86473D01*
X260396Y87483D01*
X259731Y88350D01*
X258864Y89015D01*
X257855Y89433D01*
X256772Y89576D01*
D02*
G37*
G36*
X7457Y93262D02*
X929D01*
Y84373D01*
Y75555D01*
X4461D01*
X4925Y75468D01*
Y69532D01*
X10075D01*
Y75468D01*
X8675D01*
Y77047D01*
X8559Y77632D01*
X8227Y78129D01*
X7457Y78899D01*
Y84373D01*
Y93262D01*
D02*
G37*
G36*
X48205Y79248D02*
X37543D01*
Y72915D01*
X33658Y69029D01*
X20633D01*
X17550Y72113D01*
X17054Y72444D01*
X16571Y72540D01*
Y75468D01*
X11421D01*
Y69532D01*
X14923D01*
X15071Y69502D01*
X15835D01*
X18919Y66419D01*
X19415Y66087D01*
X20000Y65971D01*
X34291D01*
X34877Y66087D01*
X35373Y66419D01*
X39706Y70752D01*
X41946D01*
X42242Y70309D01*
X46766Y65786D01*
X47552Y65260D01*
X48480Y65075D01*
X49408Y65260D01*
X50195Y65786D01*
X50720Y66572D01*
X50905Y67500D01*
X50720Y68428D01*
X50195Y69214D01*
X48205Y71204D01*
Y79248D01*
D02*
G37*
G36*
X122260Y75726D02*
X118260D01*
Y68926D01*
X122260D01*
Y75726D01*
D02*
G37*
G36*
X90000Y79058D02*
X88956Y78921D01*
X87983Y78518D01*
X87147Y77877D01*
X86506Y77041D01*
X86103Y76068D01*
X85966Y75024D01*
Y69024D01*
X86103Y67979D01*
X86506Y67006D01*
X87147Y66171D01*
X87983Y65530D01*
X88956Y65127D01*
X90000Y64989D01*
X91044Y65127D01*
X92017Y65530D01*
X92853Y66171D01*
X93494Y67006D01*
X93897Y67979D01*
X94034Y69024D01*
Y75024D01*
X93897Y76068D01*
X93494Y77041D01*
X92853Y77877D01*
X92017Y78518D01*
X91044Y78921D01*
X90000Y79058D01*
D02*
G37*
G36*
X122122Y57772D02*
X117169D01*
Y56529D01*
X99646D01*
X99060Y56413D01*
X98564Y56081D01*
X89012Y46529D01*
X80778D01*
X80367Y47522D01*
X79566Y48566D01*
X78522Y49367D01*
X77305Y49871D01*
X76000Y50043D01*
X72000D01*
X70695Y49871D01*
X69478Y49367D01*
X68434Y48566D01*
X67633Y47522D01*
X67129Y46305D01*
X66957Y45000D01*
X67129Y43695D01*
X67633Y42478D01*
X68434Y41434D01*
X69478Y40633D01*
X70695Y40129D01*
X72000Y39957D01*
X76000D01*
X77305Y40129D01*
X78522Y40633D01*
X79566Y41434D01*
X80367Y42478D01*
X80778Y43471D01*
X89646D01*
X90231Y43587D01*
X90727Y43919D01*
X100279Y53471D01*
X117169D01*
Y52228D01*
X122122D01*
Y57772D01*
D02*
G37*
G36*
X256772Y59576D02*
X253228D01*
X252145Y59433D01*
X251136Y59015D01*
X250269Y58350D01*
X249604Y57483D01*
X249370Y56920D01*
X244700D01*
X244115Y56803D01*
X243619Y56472D01*
X228342Y41195D01*
X227854Y41397D01*
X226810Y41535D01*
X225766Y41397D01*
X224793Y40994D01*
X223957Y40353D01*
X223316Y39517D01*
X222913Y38544D01*
X222775Y37500D01*
X222913Y36456D01*
X223316Y35483D01*
X223957Y34647D01*
X224793Y34006D01*
X225766Y33603D01*
X226810Y33465D01*
X227854Y33603D01*
X228827Y34006D01*
X229663Y34647D01*
X230304Y35483D01*
X230707Y36456D01*
X230844Y37500D01*
X230707Y38544D01*
X230505Y39032D01*
X245334Y53861D01*
X249370D01*
X249604Y53298D01*
X250269Y52431D01*
X251136Y51766D01*
X252145Y51347D01*
X253228Y51205D01*
X256772D01*
X257855Y51347D01*
X258864Y51766D01*
X259731Y52431D01*
X260396Y53298D01*
X260814Y54307D01*
X260957Y55390D01*
X260814Y56473D01*
X260396Y57483D01*
X259731Y58350D01*
X258864Y59015D01*
X257855Y59433D01*
X256772Y59576D01*
D02*
G37*
G36*
Y49576D02*
X253228D01*
X252145Y49433D01*
X251136Y49015D01*
X250269Y48350D01*
X249604Y47483D01*
X249370Y46920D01*
X244700D01*
X244115Y46803D01*
X243619Y46472D01*
X228342Y31195D01*
X227854Y31397D01*
X226810Y31534D01*
X225766Y31397D01*
X224793Y30994D01*
X223957Y30353D01*
X223316Y29517D01*
X222913Y28544D01*
X222775Y27500D01*
X222913Y26456D01*
X223316Y25483D01*
X223957Y24647D01*
X224793Y24006D01*
X225766Y23603D01*
X226810Y23465D01*
X227854Y23603D01*
X228827Y24006D01*
X229663Y24647D01*
X230304Y25483D01*
X230707Y26456D01*
X230844Y27500D01*
X230707Y28544D01*
X230505Y29032D01*
X245334Y43861D01*
X249370D01*
X249604Y43297D01*
X250269Y42431D01*
X251136Y41765D01*
X252145Y41347D01*
X253228Y41205D01*
X256772D01*
X257855Y41347D01*
X258864Y41765D01*
X259731Y42431D01*
X260396Y43297D01*
X260814Y44307D01*
X260957Y45390D01*
X260814Y46473D01*
X260396Y47483D01*
X259731Y48350D01*
X258864Y49015D01*
X257855Y49433D01*
X256772Y49576D01*
D02*
G37*
G36*
X116000Y50043D02*
X112000D01*
X110695Y49871D01*
X109478Y49367D01*
X108434Y48566D01*
X107633Y47522D01*
X107129Y46305D01*
X106957Y45000D01*
X107129Y43695D01*
X107540Y42703D01*
X102131Y37294D01*
X101799Y36797D01*
X101683Y36212D01*
Y35272D01*
X100736D01*
Y29728D01*
X105689D01*
Y35272D01*
X105142D01*
X104935Y35772D01*
X109703Y40540D01*
X110695Y40129D01*
X112000Y39957D01*
X116000D01*
X117305Y40129D01*
X118522Y40633D01*
X119566Y41434D01*
X120368Y42478D01*
X120871Y43695D01*
X121043Y45000D01*
X120871Y46305D01*
X120368Y47522D01*
X119566Y48566D01*
X118522Y49367D01*
X117305Y49871D01*
X116000Y50043D01*
D02*
G37*
G36*
X57835Y57679D02*
X56481Y57546D01*
X55179Y57151D01*
X53980Y56510D01*
X52928Y55647D01*
X52065Y54595D01*
X51424Y53396D01*
X51029Y52094D01*
X50896Y50740D01*
Y43260D01*
X51029Y41906D01*
X51424Y40604D01*
X52065Y39405D01*
X52928Y38353D01*
X53980Y37490D01*
X55179Y36849D01*
X56481Y36454D01*
X57835Y36321D01*
X59188Y36454D01*
X60490Y36849D01*
X61690Y37490D01*
X62741Y38353D01*
X63604Y39405D01*
X64245Y40604D01*
X64640Y41906D01*
X64774Y43260D01*
Y50740D01*
X64640Y52094D01*
X64245Y53396D01*
X63604Y54595D01*
X62741Y55647D01*
X61690Y56510D01*
X60490Y57151D01*
X59188Y57546D01*
X57835Y57679D01*
D02*
G37*
G36*
X150280Y31239D02*
X149236Y31102D01*
X148263Y30699D01*
X147427Y30058D01*
X146786Y29222D01*
X146383Y28249D01*
X146246Y27205D01*
X146383Y26160D01*
X146786Y25188D01*
X147427Y24352D01*
X148263Y23711D01*
X149236Y23308D01*
X150280Y23170D01*
X151325Y23308D01*
X152298Y23711D01*
X153133Y24352D01*
X153774Y25188D01*
X154177Y26160D01*
X154315Y27205D01*
X154177Y28249D01*
X153774Y29222D01*
X153133Y30058D01*
X152298Y30699D01*
X151325Y31102D01*
X150280Y31239D01*
D02*
G37*
G36*
X260000Y37334D02*
X258569Y37194D01*
X257193Y36776D01*
X255925Y36098D01*
X254814Y35186D01*
X253902Y34075D01*
X253224Y32807D01*
X252806Y31431D01*
X252665Y30000D01*
X252806Y28569D01*
X253224Y27193D01*
X253902Y25925D01*
X254814Y24814D01*
X255925Y23902D01*
X257193Y23224D01*
X258569Y22806D01*
X260000Y22666D01*
X261431Y22806D01*
X262807Y23224D01*
X264075Y23902D01*
X265186Y24814D01*
X266098Y25925D01*
X266776Y27193D01*
X267194Y28569D01*
X267335Y30000D01*
X267194Y31431D01*
X266776Y32807D01*
X266098Y34075D01*
X265186Y35186D01*
X264075Y36098D01*
X262807Y36776D01*
X261431Y37194D01*
X260000Y37334D01*
D02*
G37*
G36*
X204000Y14000D02*
X196000D01*
Y6000D01*
X204000D01*
Y14000D01*
D02*
G37*
G36*
X184000D02*
X176000D01*
Y6000D01*
X184000D01*
Y14000D01*
D02*
G37*
G36*
X250000Y14035D02*
X248956Y13897D01*
X247983Y13494D01*
X247147Y12853D01*
X246506Y12017D01*
X246103Y11044D01*
X245966Y10000D01*
X246103Y8956D01*
X246506Y7983D01*
X247147Y7147D01*
X247983Y6506D01*
X248956Y6103D01*
X250000Y5965D01*
X251044Y6103D01*
X252017Y6506D01*
X252853Y7147D01*
X253494Y7983D01*
X253897Y8956D01*
X254034Y10000D01*
X253897Y11044D01*
X253494Y12017D01*
X252853Y12853D01*
X252017Y13494D01*
X251044Y13897D01*
X250000Y14035D01*
D02*
G37*
G36*
X240000D02*
X238956Y13897D01*
X237983Y13494D01*
X237147Y12853D01*
X236506Y12017D01*
X236103Y11044D01*
X235965Y10000D01*
X236103Y8956D01*
X236506Y7983D01*
X237147Y7147D01*
X237983Y6506D01*
X238956Y6103D01*
X240000Y5965D01*
X241044Y6103D01*
X242017Y6506D01*
X242853Y7147D01*
X243494Y7983D01*
X243897Y8956D01*
X244035Y10000D01*
X243897Y11044D01*
X243494Y12017D01*
X242853Y12853D01*
X242017Y13494D01*
X241044Y13897D01*
X240000Y14035D01*
D02*
G37*
G36*
X230000D02*
X228956Y13897D01*
X227983Y13494D01*
X227147Y12853D01*
X226506Y12017D01*
X226103Y11044D01*
X225965Y10000D01*
X226103Y8956D01*
X226506Y7983D01*
X227147Y7147D01*
X227983Y6506D01*
X228956Y6103D01*
X230000Y5965D01*
X231044Y6103D01*
X232017Y6506D01*
X232853Y7147D01*
X233494Y7983D01*
X233897Y8956D01*
X234034Y10000D01*
X233897Y11044D01*
X233494Y12017D01*
X232853Y12853D01*
X232017Y13494D01*
X231044Y13897D01*
X230000Y14035D01*
D02*
G37*
G36*
X220000D02*
X218956Y13897D01*
X217983Y13494D01*
X217147Y12853D01*
X216506Y12017D01*
X216103Y11044D01*
X215966Y10000D01*
X216103Y8956D01*
X216506Y7983D01*
X217147Y7147D01*
X217983Y6506D01*
X218956Y6103D01*
X220000Y5965D01*
X221044Y6103D01*
X222017Y6506D01*
X222853Y7147D01*
X223494Y7983D01*
X223897Y8956D01*
X224035Y10000D01*
X223897Y11044D01*
X223494Y12017D01*
X222853Y12853D01*
X222017Y13494D01*
X221044Y13897D01*
X220000Y14035D01*
D02*
G37*
G36*
X210000D02*
X208956Y13897D01*
X207983Y13494D01*
X207147Y12853D01*
X206506Y12017D01*
X206103Y11044D01*
X205965Y10000D01*
X206103Y8956D01*
X206506Y7983D01*
X207147Y7147D01*
X207983Y6506D01*
X208956Y6103D01*
X210000Y5965D01*
X211044Y6103D01*
X212017Y6506D01*
X212853Y7147D01*
X213494Y7983D01*
X213897Y8956D01*
X214035Y10000D01*
X213897Y11044D01*
X213494Y12017D01*
X212853Y12853D01*
X212017Y13494D01*
X211044Y13897D01*
X210000Y14035D01*
D02*
G37*
G36*
X140000D02*
X138956Y13897D01*
X137983Y13494D01*
X137147Y12853D01*
X136506Y12017D01*
X136103Y11044D01*
X135966Y10000D01*
X136103Y8956D01*
X136506Y7983D01*
X137147Y7147D01*
X137983Y6506D01*
X138956Y6103D01*
X140000Y5965D01*
X141044Y6103D01*
X142017Y6506D01*
X142853Y7147D01*
X143494Y7983D01*
X143897Y8956D01*
X144035Y10000D01*
X143897Y11044D01*
X143494Y12017D01*
X142853Y12853D01*
X142017Y13494D01*
X141044Y13897D01*
X140000Y14035D01*
D02*
G37*
G36*
X130000D02*
X128956Y13897D01*
X127983Y13494D01*
X127147Y12853D01*
X126506Y12017D01*
X126103Y11044D01*
X125965Y10000D01*
X126103Y8956D01*
X126506Y7983D01*
X127147Y7147D01*
X127983Y6506D01*
X128956Y6103D01*
X130000Y5965D01*
X131044Y6103D01*
X132017Y6506D01*
X132853Y7147D01*
X133494Y7983D01*
X133897Y8956D01*
X134035Y10000D01*
X133897Y11044D01*
X133494Y12017D01*
X132853Y12853D01*
X132017Y13494D01*
X131044Y13897D01*
X130000Y14035D01*
D02*
G37*
G36*
X120000D02*
X118956Y13897D01*
X117983Y13494D01*
X117147Y12853D01*
X116506Y12017D01*
X116103Y11044D01*
X115965Y10000D01*
X116103Y8956D01*
X116506Y7983D01*
X117147Y7147D01*
X117983Y6506D01*
X118956Y6103D01*
X120000Y5965D01*
X121044Y6103D01*
X122017Y6506D01*
X122853Y7147D01*
X123494Y7983D01*
X123897Y8956D01*
X124035Y10000D01*
X123897Y11044D01*
X123494Y12017D01*
X122853Y12853D01*
X122017Y13494D01*
X121044Y13897D01*
X120000Y14035D01*
D02*
G37*
G36*
X110000D02*
X108956Y13897D01*
X107983Y13494D01*
X107147Y12853D01*
X106506Y12017D01*
X106103Y11044D01*
X105965Y10000D01*
X106103Y8956D01*
X106506Y7983D01*
X107147Y7147D01*
X107983Y6506D01*
X108956Y6103D01*
X110000Y5965D01*
X111044Y6103D01*
X112017Y6506D01*
X112853Y7147D01*
X113494Y7983D01*
X113897Y8956D01*
X114034Y10000D01*
X113897Y11044D01*
X113494Y12017D01*
X112853Y12853D01*
X112017Y13494D01*
X111044Y13897D01*
X110000Y14035D01*
D02*
G37*
G36*
X150768Y47772D02*
X145815D01*
Y45258D01*
X127845D01*
X127259Y45141D01*
X126763Y44810D01*
X102512Y20559D01*
X15526D01*
X15072Y20469D01*
X11421D01*
Y14532D01*
X16571D01*
Y17500D01*
X52857D01*
X52931Y17000D01*
X52193Y16776D01*
X50925Y16098D01*
X49814Y15186D01*
X48902Y14075D01*
X48224Y12807D01*
X47806Y11431D01*
X47666Y10000D01*
X47806Y8569D01*
X48224Y7193D01*
X48902Y5925D01*
X49814Y4814D01*
X50925Y3902D01*
X52193Y3224D01*
X53569Y2806D01*
X55000Y2665D01*
X56431Y2806D01*
X57807Y3224D01*
X59075Y3902D01*
X60186Y4814D01*
X61098Y5925D01*
X61776Y7193D01*
X62194Y8569D01*
X62335Y10000D01*
X62194Y11431D01*
X61776Y12807D01*
X61098Y14075D01*
X60186Y15186D01*
X59075Y16098D01*
X57807Y16776D01*
X57069Y17000D01*
X57143Y17500D01*
X103146D01*
X103731Y17616D01*
X104227Y17948D01*
X128478Y42199D01*
X147315D01*
X147463Y42228D01*
X150768D01*
Y47772D01*
D02*
G37*
%LPD*%
G36*
X102040Y137328D02*
X102117Y136938D01*
X102161Y136872D01*
X102161Y131680D01*
X103286D01*
X103295Y131674D01*
X103567Y131402D01*
X104034Y131090D01*
X104586Y130980D01*
X104742D01*
Y130831D01*
X110000D01*
Y130075D01*
X104742D01*
Y129925D01*
X102516D01*
X102411Y130031D01*
X101943Y130343D01*
X101392Y130453D01*
X98839D01*
X98287Y130343D01*
X97881Y130072D01*
X97500Y130453D01*
Y137500D01*
X102040D01*
Y137328D01*
D02*
G37*
G36*
X172500Y132500D02*
X155000D01*
X150000Y137500D01*
Y155860D01*
X140860Y165000D01*
Y175000D01*
X150000D01*
X157500Y182500D01*
X172500D01*
Y132500D01*
D02*
G37*
G36*
X80883Y107293D02*
X80942Y107240D01*
X80800Y106528D01*
X80984Y105600D01*
X81510Y104813D01*
X85075Y101248D01*
Y88504D01*
X83393Y86822D01*
X82867Y86035D01*
X82683Y85107D01*
Y81135D01*
X81644Y80096D01*
X76375Y85365D01*
X79204Y88193D01*
X83657D01*
Y94524D01*
X76342D01*
Y91054D01*
X73354Y88066D01*
X72500Y88236D01*
X71748D01*
Y91142D01*
X63252D01*
Y88236D01*
X59898D01*
Y90685D01*
X50968D01*
X50585Y90940D01*
X50000Y91057D01*
X47803D01*
X47679Y91242D01*
X44925Y93996D01*
Y99315D01*
X59898D01*
Y106630D01*
X59898D01*
X59940Y107112D01*
X62844D01*
X63252Y106890D01*
Y96228D01*
X71748D01*
Y103471D01*
X73540D01*
X74187Y103038D01*
X75000Y102876D01*
X75813Y103038D01*
X76502Y103498D01*
X76962Y104187D01*
X77123Y105000D01*
X76962Y105813D01*
X76502Y106501D01*
X76336Y106612D01*
X76487Y107112D01*
X79508D01*
X80093Y107229D01*
X80481Y107488D01*
X80883Y107293D01*
D02*
G37*
%LPC*%
G36*
X82146Y101837D02*
X81560Y101720D01*
X81064Y101389D01*
X79809Y100133D01*
X79415Y100055D01*
X78919Y99723D01*
X78587Y99227D01*
X78471Y98642D01*
X78587Y98057D01*
X78919Y97560D01*
X79415Y97229D01*
X80000Y97112D01*
X80480D01*
X81066Y97229D01*
X81562Y97560D01*
X83227Y99226D01*
X83559Y99722D01*
X83675Y100307D01*
X83559Y100892D01*
X83227Y101389D01*
X82731Y101720D01*
X82146Y101837D01*
D02*
G37*
%LPD*%
G36*
X209664Y122500D02*
X209721Y122493D01*
X209762Y122452D01*
X221457Y107500D01*
X222758Y105860D01*
X222773Y105831D01*
X222721Y105653D01*
X222480Y105376D01*
X222407Y105333D01*
X222397Y105331D01*
X219728D01*
Y100378D01*
X225272D01*
Y101325D01*
X226355D01*
X227500Y99882D01*
Y79196D01*
Y75000D01*
X215014D01*
X215008Y75006D01*
X214986Y75048D01*
X214953Y75089D01*
X211219Y82167D01*
X209724Y85000D01*
X208954Y86617D01*
X208954Y86617D01*
X206513Y91736D01*
X205005Y94899D01*
X204995Y94949D01*
X204985Y94974D01*
X204983Y95001D01*
X204971Y95051D01*
Y95384D01*
X198890Y101465D01*
X198837Y101543D01*
X198825Y101604D01*
X198819Y101620D01*
Y102399D01*
X198039D01*
X198024Y102405D01*
X197963Y102418D01*
X197884Y102470D01*
X197500Y102854D01*
X189291D01*
Y103504D01*
X189121Y104793D01*
X188779Y105617D01*
Y107028D01*
X188702Y107418D01*
X188481Y107749D01*
X188150Y107970D01*
X187760Y108047D01*
X186244D01*
X185600Y108314D01*
X184311Y108484D01*
X183022Y108314D01*
X182378Y108047D01*
X182053D01*
X181960Y108066D01*
X181882Y108118D01*
X180071Y109929D01*
X180018Y110008D01*
X180000Y110100D01*
Y122042D01*
X180458Y122500D01*
X209664Y122500D01*
D02*
G37*
G36*
X22500Y106976D02*
X14095D01*
Y110118D01*
X17500Y112677D01*
X22500D01*
Y106976D01*
D02*
G37*
G36*
X152500Y103642D02*
Y98642D01*
X147500D01*
X141142Y105000D01*
X140248D01*
Y114752D01*
X140000Y115000D01*
X151146D01*
X152500Y103642D01*
D02*
G37*
G36*
X191496Y96328D02*
X191504Y96323D01*
Y96068D01*
X195074D01*
X195167Y96050D01*
X195246Y95997D01*
X202241Y89002D01*
X202294Y88923D01*
X202312Y88830D01*
Y77890D01*
Y77767D01*
D01*
X202312Y66614D01*
Y66224D01*
D01*
Y65893D01*
Y65672D01*
D01*
Y56004D01*
Y55629D01*
D01*
Y55299D01*
Y55078D01*
D01*
X202312Y34883D01*
X202306Y34859D01*
X202302Y34820D01*
X202266Y34805D01*
X202245Y34791D01*
X195096Y32530D01*
X195041Y32524D01*
X194998Y32511D01*
X194954D01*
X194899Y32500D01*
X152600D01*
X152517Y32517D01*
X152500Y32600D01*
X152500Y50693D01*
Y50693D01*
X152500Y55000D01*
X165000D01*
X175000Y65000D01*
X195000Y65000D01*
Y65595D01*
X195000D01*
X195390Y65672D01*
X195721Y65893D01*
X195942Y66224D01*
X196020Y66614D01*
Y77500D01*
X195942Y77890D01*
X195721Y78221D01*
X191020Y82922D01*
Y87500D01*
X190942Y87890D01*
X190721Y88221D01*
X190449Y88403D01*
Y88657D01*
X184118D01*
Y88028D01*
X183165D01*
Y88657D01*
X176835D01*
Y88028D01*
X176420D01*
X176420Y84751D01*
X174033Y82364D01*
X158240D01*
Y82653D01*
X152500D01*
Y83290D01*
X152500Y84135D01*
X158240D01*
Y84738D01*
X158296Y84822D01*
X158312Y84902D01*
X158346Y84976D01*
X158352Y85000D01*
X165000D01*
X165050Y84976D01*
X174704Y94630D01*
X177437D01*
Y96346D01*
X178805D01*
X178889Y96330D01*
X178905Y96246D01*
Y95256D01*
X178983Y94866D01*
X179204Y94535D01*
X179535Y94314D01*
X179925Y94236D01*
X187760D01*
X188150Y94314D01*
X188481Y94535D01*
X188702Y94866D01*
X188779Y95256D01*
Y96246D01*
X188796Y96330D01*
X188880Y96346D01*
X191403D01*
X191496Y96328D01*
D02*
G37*
G36*
X160000Y107559D02*
Y98642D01*
Y96346D01*
X157354Y85212D01*
X153068D01*
X152740Y85589D01*
X153493Y90913D01*
X153622D01*
Y91823D01*
X155354Y104063D01*
X154000Y105417D01*
Y110118D01*
X157441D01*
X160000Y107559D01*
D02*
G37*
G36*
X190000Y82500D02*
X195000Y77500D01*
Y66614D01*
X175000D01*
X166614Y75000D01*
X152500D01*
Y79017D01*
X158240D01*
Y79305D01*
X175835D01*
X176420Y79422D01*
X176916Y79753D01*
X177163Y80000D01*
X182500D01*
Y80343D01*
X185000Y82842D01*
Y87500D01*
X190000D01*
Y82500D01*
D02*
G37*
D13*
X112000Y45000D02*
X114000D01*
X103212Y32500D02*
Y36212D01*
X112000Y45000D01*
X135260Y136358D02*
X135752D01*
X134768D02*
X135260D01*
X137417Y132583D02*
X137500Y132500D01*
X137417Y132583D02*
Y134693D01*
X135752Y136358D02*
X137417Y134693D01*
X95260Y125433D02*
X98311Y128484D01*
X88681Y125433D02*
X95260D01*
X226810Y27500D02*
X244700Y45390D01*
X255000D01*
X226810Y37500D02*
X244700Y55390D01*
X255000D01*
X253228Y65390D02*
X255000D01*
X244700D02*
X253228D01*
X226810Y47500D02*
X244700Y65390D01*
X13169Y108642D02*
X15071Y106740D01*
X124000Y82000D02*
Y88028D01*
X39939Y104852D02*
X42500Y102291D01*
X4193Y80000D02*
Y88817D01*
Y80000D02*
X7146Y77047D01*
X244980Y140551D02*
X245768Y141339D01*
Y147638D01*
X239272Y130072D02*
Y140551D01*
Y130072D02*
X240150Y129193D01*
X156269Y86271D02*
X156740D01*
X155951Y85953D02*
X156269Y86271D01*
X154862Y85953D02*
X155951D01*
X95000Y126177D02*
Y130813D01*
Y125693D02*
Y126177D01*
X222205Y97146D02*
X222500D01*
X187500Y112500D02*
X206850D01*
X236929Y109114D02*
X243265D01*
X256650Y122500D01*
X230669Y102854D02*
X236929Y109114D01*
X230374Y102854D02*
X230669D01*
X222500D02*
X230374D01*
X131529Y68971D02*
Y73262D01*
Y76137D01*
Y73262D02*
X136150Y68642D01*
X136642D01*
X93405Y96346D02*
X108379D01*
X111179Y99146D01*
X119277D01*
X123114Y95309D01*
Y94817D02*
Y95309D01*
Y87890D02*
Y94817D01*
X120260Y80600D02*
Y81326D01*
X117405Y87595D02*
Y87890D01*
Y87595D02*
X119774Y85226D01*
Y81812D02*
Y85226D01*
Y81812D02*
X120260Y81326D01*
X125354Y62795D02*
X131529Y68971D01*
X125354Y62500D02*
Y62795D01*
X128240Y79426D02*
X131529Y76137D01*
X128240Y79426D02*
Y80343D01*
X127740Y80843D02*
X128240Y80343D01*
X127740Y80843D02*
Y81326D01*
X104500Y72024D02*
X112576Y80100D01*
X119760D01*
X120260Y80600D01*
X100000Y72024D02*
X104500D01*
X95260Y119724D02*
X95722Y120187D01*
X95000Y125693D02*
X95260Y125433D01*
X100358Y126516D02*
X104242D01*
X103146Y19029D02*
X127845Y43728D01*
X15526Y19029D02*
X103146D01*
X13996Y17500D02*
X15526Y19029D01*
X143370Y132087D02*
X144000Y132717D01*
X143370Y126555D02*
Y132087D01*
X125965Y118520D02*
Y120610D01*
X123863Y116419D02*
X125965Y118520D01*
X123863Y116331D02*
Y116419D01*
X130270Y124547D02*
X131529Y123287D01*
Y116331D02*
Y123287D01*
X130553Y115354D02*
X131529Y116331D01*
X130270Y115354D02*
X130553D01*
X134452Y128484D02*
X136381Y126555D01*
X133434Y126516D02*
X133513Y126594D01*
X136381Y126555D02*
X143370D01*
X133513Y126594D02*
X135831Y124277D01*
Y121409D02*
Y124277D01*
X137309Y120640D02*
X143163D01*
X119783Y142008D02*
Y142500D01*
X123863Y142008D02*
X130270Y135602D01*
X120898Y142008D02*
X123863D01*
X132381Y130453D02*
X133102Y131174D01*
Y134693D01*
X134768Y136358D01*
X112500Y142008D02*
Y142500D01*
X110555Y142008D02*
X112500D01*
X104000Y135453D02*
X110555Y142008D01*
X104000Y133007D02*
Y135453D01*
X119783Y142008D02*
X120898D01*
X108547Y128484D02*
X108547Y128484D01*
X87500Y124252D02*
X88681Y125433D01*
X102161Y121626D02*
X104046D01*
X101185Y120650D02*
X102161Y121626D01*
X100722Y120187D02*
X101185Y120650D01*
X95722Y120187D02*
X100722D01*
X77795Y125000D02*
X79508Y123287D01*
Y108642D02*
Y123287D01*
X57205Y108642D02*
X79508D01*
X106547Y114752D02*
Y118488D01*
X108547Y120488D01*
X127845Y43728D02*
X147315D01*
X148291Y44705D01*
Y45000D01*
X134976Y84996D02*
Y85488D01*
Y84996D02*
X136642Y83331D01*
X137134D01*
X154862Y80835D02*
X175835D01*
X177842Y82842D01*
X178335D01*
X180000Y84508D01*
Y85000D01*
X156740Y93571D02*
X156854Y93685D01*
X137134Y83331D02*
X137626D01*
X87500Y102252D02*
X93405Y96346D01*
X125354Y55000D02*
Y62500D01*
X89646Y45000D02*
X99646Y55000D01*
X119646D01*
X74000Y45000D02*
X89646D01*
X57835Y47000D02*
X59835Y45000D01*
X72500Y85811D02*
X73961D01*
X57835Y47000D02*
Y52835D01*
X80480Y98642D02*
X82146Y100307D01*
X80000Y98642D02*
X80480D01*
X79508Y91358D02*
X80000D01*
X52205Y103642D02*
X57205Y108642D01*
X52205Y102972D02*
Y103642D01*
X48169Y102972D02*
X52205D01*
X20000Y67500D02*
X34291D01*
X16468Y71031D02*
X20000Y67500D01*
X15071Y71031D02*
X16468D01*
X34291Y67500D02*
X41791Y75000D01*
X42500Y90610D02*
Y92992D01*
X39213Y87323D02*
X42500Y90610D01*
X39213Y87028D02*
Y87323D01*
X70248Y105000D02*
X75000D01*
X67500Y102252D02*
X70248Y105000D01*
X67500Y101559D02*
Y102252D01*
X41914Y110118D02*
X42500Y110704D01*
X45965D01*
X43583Y107559D02*
X48169Y102972D01*
X37500Y107559D02*
X43583D01*
X37677Y93567D02*
X37854Y93390D01*
X37677Y93567D02*
Y99705D01*
X37500Y99882D02*
X37677Y99705D01*
X33504Y87028D02*
X34480Y88004D01*
Y90016D01*
X37854Y93390D01*
X52205Y87028D02*
X53421Y85811D01*
X45965Y89528D02*
X50000D01*
X37648Y104852D02*
X39939D01*
X37500Y105000D02*
X37648Y104852D01*
X40866Y125000D02*
X52205D01*
X36358Y120492D02*
X40866Y125000D01*
X36358Y120000D02*
Y120492D01*
X42500Y110704D02*
Y118858D01*
X37500Y110118D02*
X41914D01*
X42500Y118858D02*
X43642Y120000D01*
X36358D02*
X37500Y118858D01*
Y112677D02*
Y118858D01*
Y112677D02*
X38976D01*
X7146Y72854D02*
Y77047D01*
Y72854D02*
X7500Y72500D01*
X41791Y75000D02*
X42874D01*
X13996Y72106D02*
X15071Y71031D01*
X13996Y72106D02*
Y72500D01*
X42874Y75000D02*
X43957D01*
D22*
X97504Y32500D02*
D03*
X103212D02*
D03*
X123114Y87890D02*
D03*
X117405D02*
D03*
X107405Y114752D02*
D03*
X113114D02*
D03*
X244980Y140551D02*
D03*
X239272D02*
D03*
X154000Y45000D02*
D03*
X148291D02*
D03*
X156854Y93685D02*
D03*
X151146D02*
D03*
X149646Y108642D02*
D03*
X155354D02*
D03*
X119646Y55000D02*
D03*
X125354D02*
D03*
X39213Y87028D02*
D03*
X33504D02*
D03*
X125354Y62500D02*
D03*
X119646D02*
D03*
X37854Y93685D02*
D03*
X32146D02*
D03*
D23*
X195161Y99234D02*
D03*
Y106517D02*
D03*
X136642Y69032D02*
D03*
Y61748D02*
D03*
X99402Y143642D02*
D03*
Y136358D02*
D03*
X135260D02*
D03*
Y143642D02*
D03*
X87500Y124252D02*
D03*
Y116969D02*
D03*
X144000Y132717D02*
D03*
Y140000D02*
D03*
X155000Y53858D02*
D03*
Y61142D02*
D03*
X137134Y76047D02*
D03*
Y83331D02*
D03*
X80000Y98642D02*
D03*
Y91358D02*
D03*
D24*
X15807Y88817D02*
D03*
X4193D02*
D03*
X15807Y80000D02*
D03*
X4193D02*
D03*
D25*
X185000Y45554D02*
D03*
Y71145D02*
D03*
D26*
X115831Y94817D02*
D03*
X123114D02*
D03*
X187284Y85000D02*
D03*
X180000D02*
D03*
X120898Y142008D02*
D03*
X113614D02*
D03*
X238484Y147638D02*
D03*
X245768D02*
D03*
X150358Y101559D02*
D03*
X157642D02*
D03*
X5886Y108642D02*
D03*
X13169D02*
D03*
X36358Y120000D02*
D03*
X43642D02*
D03*
D27*
X130270Y109646D02*
D03*
Y115354D02*
D03*
X101185Y120650D02*
D03*
Y114941D02*
D03*
X137102Y120433D02*
D03*
Y114724D02*
D03*
X95000Y126177D02*
D03*
Y120468D02*
D03*
X143370Y126555D02*
D03*
Y120846D02*
D03*
X222500Y102854D02*
D03*
Y97146D02*
D03*
X230374D02*
D03*
Y102854D02*
D03*
D28*
X145862Y85953D02*
D03*
Y83394D02*
D03*
Y80835D02*
D03*
Y78276D02*
D03*
X154862D02*
D03*
Y80835D02*
D03*
Y83394D02*
D03*
Y85953D02*
D03*
D29*
X120260Y72326D02*
D03*
X124000D02*
D03*
X127740D02*
D03*
Y81326D02*
D03*
X124000D02*
D03*
X120260D02*
D03*
D30*
X52205Y87028D02*
D03*
Y102972D02*
D03*
D31*
X28839Y106280D02*
D03*
D32*
X37500Y99882D02*
D03*
Y102441D02*
D03*
Y105000D02*
D03*
Y107559D02*
D03*
Y110118D02*
D03*
Y112677D02*
D03*
X20177Y99882D02*
D03*
Y102441D02*
D03*
Y105000D02*
D03*
Y107559D02*
D03*
Y110118D02*
D03*
Y112677D02*
D03*
D33*
X117256Y127500D02*
D03*
D34*
X108547Y120610D02*
D03*
Y122579D02*
D03*
Y124547D02*
D03*
Y126516D02*
D03*
Y128484D02*
D03*
Y130453D02*
D03*
Y132421D02*
D03*
Y134390D02*
D03*
X125965D02*
D03*
Y132421D02*
D03*
Y130453D02*
D03*
Y128484D02*
D03*
Y126516D02*
D03*
Y124547D02*
D03*
Y122579D02*
D03*
Y120610D02*
D03*
D35*
X13996Y17500D02*
D03*
X7500D02*
D03*
X13996Y72500D02*
D03*
X7500D02*
D03*
D36*
X77756Y125000D02*
D03*
X52165D02*
D03*
D37*
X67500Y85811D02*
D03*
Y101559D02*
D03*
D38*
X42874Y75000D02*
D03*
X27126D02*
D03*
D56*
X184311Y101536D02*
D03*
D57*
X172500D02*
D03*
D73*
X155729Y126555D02*
X162173Y120111D01*
X143370Y126555D02*
X155729D01*
X160280Y20280D02*
Y27205D01*
X150000Y10000D02*
X160280Y20280D01*
X15071Y98325D02*
X22461Y90935D01*
Y85110D02*
Y90935D01*
X15071Y99197D02*
Y106740D01*
X22461Y85110D02*
X27126Y80445D01*
X42500Y92992D02*
Y102291D01*
X85107Y80131D02*
Y85107D01*
X80000Y75024D02*
X85107Y80131D01*
X221457Y76772D02*
X241847D01*
X253228Y65390D01*
X43957Y72024D02*
X48480Y67500D01*
X94187Y136358D02*
X99402D01*
X144955Y93868D02*
X147315Y96228D01*
X137500Y93868D02*
X144955D01*
X83224Y106528D02*
X87500Y102252D01*
X132500Y87965D02*
X134976Y85488D01*
X132500Y87965D02*
Y97500D01*
X87500Y87500D02*
Y102252D01*
X67500Y85811D02*
X72500D01*
X80000Y78311D01*
X85107Y85107D02*
X87500Y87500D01*
X42500Y92992D02*
X45965Y89528D01*
X53421Y85811D02*
X67500D01*
X27126Y75000D02*
Y80445D01*
D74*
X87500Y87500D02*
X88437Y86563D01*
X95561D01*
X80000Y75024D02*
Y78311D01*
Y72024D02*
Y75024D01*
X43957Y72024D02*
Y75000D01*
X21259Y144843D02*
X22500D01*
X73961Y85811D02*
X79508Y91358D01*
D75*
X98839Y129012D02*
X101392D01*
X98311Y128484D02*
X98839Y129012D01*
X101919Y128484D02*
X108547D01*
X101392Y129012D02*
X101919Y128484D01*
X104242Y126516D02*
X108547D01*
X125965Y124547D02*
X130270D01*
X125965Y128484D02*
X134452D01*
X125965Y126516D02*
X133434D01*
X130270Y133178D02*
Y135602D01*
X125965Y130453D02*
X132381D01*
X129513Y132421D02*
X130270Y133178D01*
X125965Y132421D02*
X129513D01*
X104000Y133007D02*
X104586Y132421D01*
X108547D01*
X104999Y122579D02*
X108547D01*
X104046Y121626D02*
X104999Y122579D01*
D76*
X140248Y85953D02*
X145862D01*
X137626Y83331D02*
X140122Y80835D01*
X145862D01*
D77*
X137626Y83331D02*
X140248Y85953D01*
D78*
X120000Y108548D02*
D03*
X216810Y27500D02*
D03*
X226810D02*
D03*
X216810Y37500D02*
D03*
X226810D02*
D03*
X216810Y47500D02*
D03*
X226810D02*
D03*
X150280Y27205D02*
D03*
X160280D02*
D03*
X95561Y86563D02*
D03*
X105561D02*
D03*
X10280Y185000D02*
D03*
X20280D02*
D03*
X42780D02*
D03*
X32780D02*
D03*
X160000Y10000D02*
D03*
X170000D02*
D03*
X110000D02*
D03*
X120000D02*
D03*
X130000D02*
D03*
X140000D02*
D03*
X150000D02*
D03*
X230000Y200000D02*
D03*
X240000D02*
D03*
X180000D02*
D03*
X190000D02*
D03*
X200000D02*
D03*
X210000D02*
D03*
X220000D02*
D03*
X74000D02*
D03*
X84000D02*
D03*
X94000D02*
D03*
X104000D02*
D03*
X114000D02*
D03*
X124000D02*
D03*
X134000D02*
D03*
X144000D02*
D03*
X154000D02*
D03*
X250000Y10000D02*
D03*
X240000D02*
D03*
X230000D02*
D03*
X220000D02*
D03*
X210000D02*
D03*
D79*
X163096Y157500D02*
D03*
X223530D02*
D03*
D80*
X221457Y69488D02*
D03*
D81*
Y77362D02*
D03*
D82*
X246850Y157500D02*
D03*
Y167500D02*
D03*
Y177500D02*
D03*
X255000Y75390D02*
D03*
Y65390D02*
D03*
Y55390D02*
D03*
Y45390D02*
D03*
X255000Y85390D02*
D03*
D83*
X256650Y109114D02*
D03*
Y122500D02*
D03*
X240150Y102421D02*
D03*
Y115807D02*
D03*
D84*
Y129193D02*
D03*
D85*
X114000Y45000D02*
D03*
X74000D02*
D03*
X227500Y116331D02*
D03*
X187500D02*
D03*
D86*
X22461Y164842D02*
D03*
D87*
X22500Y144843D02*
D03*
D88*
X55630Y170000D02*
D03*
X145000D02*
D03*
D89*
X80000Y72024D02*
D03*
X90000D02*
D03*
X100000D02*
D03*
D90*
X35000Y47500D02*
D03*
X57835Y47000D02*
D03*
D91*
X46024Y28102D02*
D03*
D92*
X180000Y10000D02*
D03*
X250000Y200000D02*
D03*
X164000D02*
D03*
X200000Y10000D02*
D03*
D93*
X60000Y200000D02*
D03*
X55000Y10000D02*
D03*
X260000Y30000D02*
D03*
D94*
X137500Y132500D02*
D03*
X210000Y75390D02*
D03*
X225000Y94034D02*
D03*
X224707Y85390D02*
D03*
X222500D02*
D03*
X220000D02*
D03*
X217500D02*
D03*
X215011D02*
D03*
X212500D02*
D03*
X222500Y94034D02*
D03*
X220000D02*
D03*
X217500D02*
D03*
X215011D02*
D03*
X212500Y93868D02*
D03*
X210000Y94034D02*
D03*
X207500D02*
D03*
X162173Y120111D02*
D03*
X25000Y94034D02*
D03*
X80480Y104063D02*
D03*
X247500Y80000D02*
D03*
X46024Y140004D02*
D03*
X177500Y118292D02*
D03*
X193897Y150000D02*
D03*
X82412Y30000D02*
D03*
X221457Y50994D02*
D03*
X166614Y47000D02*
D03*
X48480Y67500D02*
D03*
X123863Y116331D02*
D03*
X94187Y136358D02*
D03*
X95000Y130813D02*
D03*
X100358Y126516D02*
D03*
X147315Y96228D02*
D03*
X137500Y93868D02*
D03*
X83224Y106528D02*
D03*
X132500Y97500D02*
D03*
X144321Y106280D02*
D03*
X114000Y66614D02*
D03*
X75000Y105000D02*
D03*
X45965Y110704D02*
D03*
M02*
