G04*
G04 #@! TF.GenerationSoftware,Altium Limited,Altium Designer,19.0.15 (446)*
G04*
G04 Layer_Color=32896*
%FSLAX25Y25*%
%MOIN*%
G70*
G01*
G75*
%ADD14C,0.00600*%
%ADD20C,0.00781*%
D14*
X118300Y75626D02*
X119149Y75978D01*
X119500Y76826D01*
X119149Y77675D01*
X118300Y78026D01*
Y75626D02*
X119149Y75978D01*
X119500Y76826D01*
X119149Y77675D01*
X118300Y78026D01*
X119400Y73426D02*
X121200D01*
X119400Y71326D02*
Y73426D01*
Y71326D02*
X121200D01*
Y73426D01*
X123100D02*
X124900D01*
X123100Y71326D02*
Y73426D01*
Y71326D02*
X124900D01*
Y73426D01*
X126800D02*
X128600D01*
X126800Y71326D02*
Y73426D01*
Y71326D02*
X128600D01*
Y73426D01*
X126800Y80226D02*
X128600D01*
Y82326D01*
X126800D02*
X128600D01*
X126800Y80226D02*
Y82326D01*
X123100Y80226D02*
X124900D01*
Y82326D01*
X123100D02*
X124900D01*
X123100Y80226D02*
Y82326D01*
X119400Y80226D02*
X121200D01*
Y82326D01*
X119400D02*
X121200D01*
X119400Y80226D02*
Y82326D01*
X129700Y73426D02*
Y80226D01*
X118300D02*
X129700D01*
X118300Y78026D02*
Y80226D01*
Y75626D02*
Y78026D01*
Y73426D02*
Y75626D01*
Y73426D02*
X129700D01*
X119400D02*
X121200D01*
X119400Y71326D02*
Y73426D01*
Y71326D02*
X121200D01*
Y73426D01*
X123100D02*
X124900D01*
X123100Y71326D02*
Y73426D01*
Y71326D02*
X124900D01*
Y73426D01*
X126800D02*
X128600D01*
X126800Y71326D02*
Y73426D01*
Y71326D02*
X128600D01*
Y73426D01*
X126800Y80226D02*
X128600D01*
Y82326D01*
X126800D02*
X128600D01*
X126800Y80226D02*
Y82326D01*
X123100Y80226D02*
X124900D01*
Y82326D01*
X123100D02*
X124900D01*
X123100Y80226D02*
Y82326D01*
X119400Y80226D02*
X121200D01*
Y82326D01*
X119400D02*
X121200D01*
X119400Y80226D02*
Y82326D01*
X129700Y73426D02*
Y80226D01*
X118300D02*
X129700D01*
X118300Y78026D02*
Y80226D01*
Y75626D02*
Y78026D01*
Y73426D02*
Y75626D01*
Y73426D02*
X129700D01*
D20*
X117204Y74383D02*
X121421D01*
X118258Y72626D02*
X120367Y76141D01*
X118258D02*
X120367Y72626D01*
X117204Y74383D02*
X121421D01*
X118258Y72626D02*
X120367Y76141D01*
X118258D02*
X120367Y72626D01*
M02*
