G04*
G04 #@! TF.GenerationSoftware,Altium Limited,Altium Designer,19.0.15 (446)*
G04*
G04 Layer_Color=128*
%FSLAX25Y25*%
%MOIN*%
G70*
G01*
G75*
%ADD102C,0.00200*%
D102*
X118500Y108548D02*
X121500D01*
X120000Y107048D02*
Y110048D01*
X183327Y101536D02*
X185295D01*
X184311Y100551D02*
Y102520D01*
X171516Y101536D02*
X173484D01*
X172500Y100551D02*
Y102520D01*
X215310Y27500D02*
X218310D01*
X216810Y26000D02*
Y29000D01*
X225310Y27500D02*
X228310D01*
X226810Y26000D02*
Y29000D01*
X215310Y37500D02*
X218310D01*
X216810Y36000D02*
Y39000D01*
X225310Y37500D02*
X228310D01*
X226810Y36000D02*
Y39000D01*
X215310Y47500D02*
X218310D01*
X216810Y46000D02*
Y49000D01*
X225310Y47500D02*
X228310D01*
X226810Y46000D02*
Y49000D01*
X148780Y27205D02*
X151780D01*
X150280Y25705D02*
Y28705D01*
X158780Y27205D02*
X161780D01*
X160280Y25705D02*
Y28705D01*
X94061Y86563D02*
X97061D01*
X95561Y85063D02*
Y88063D01*
X104061Y86563D02*
X107061D01*
X105561Y85063D02*
Y88063D01*
X8780Y185000D02*
X11780D01*
X10280Y183500D02*
Y186500D01*
X18780Y185000D02*
X21780D01*
X20280Y183500D02*
Y186500D01*
X41280Y185000D02*
X44280D01*
X42780Y183500D02*
Y186500D01*
X31280Y185000D02*
X34280D01*
X32780Y183500D02*
Y186500D01*
X162112Y157500D02*
X164081D01*
X163096Y156516D02*
Y158484D01*
X222545Y157500D02*
X224514D01*
X223530Y156516D02*
Y158484D01*
X220472Y69488D02*
X222441D01*
X221457Y68504D02*
Y70473D01*
X220472Y77362D02*
X222441D01*
X221457Y76378D02*
Y78347D01*
X244488Y157500D02*
X249213D01*
X246850Y155138D02*
Y159862D01*
X244488Y167500D02*
X249213D01*
X246850Y165138D02*
Y169862D01*
X244488Y177500D02*
X249213D01*
X246850Y175138D02*
Y179862D01*
X254032Y109114D02*
X259268D01*
X256650Y106496D02*
Y111732D01*
X254032Y122500D02*
X259268D01*
X256650Y119882D02*
Y125118D01*
X237532Y102421D02*
X242769D01*
X240150Y99803D02*
Y105039D01*
X237532Y115807D02*
X242769D01*
X240150Y113189D02*
Y118425D01*
X237532Y129193D02*
X242769D01*
X240150Y126575D02*
Y131811D01*
X113016Y45000D02*
X114984D01*
X114000Y44016D02*
Y45984D01*
X73016Y45000D02*
X74984D01*
X74000Y44016D02*
Y45984D01*
X19705Y164842D02*
X25216D01*
X22461Y162087D02*
Y167598D01*
X19744Y144843D02*
X25256D01*
X22500Y142087D02*
Y147598D01*
X53661Y170000D02*
X57598D01*
X55630Y168032D02*
Y171968D01*
X143032Y170000D02*
X146968D01*
X145000Y168032D02*
Y171968D01*
X226516Y116331D02*
X228484D01*
X227500Y115347D02*
Y117315D01*
X186516Y116331D02*
X188484D01*
X187500Y115347D02*
Y117315D01*
X252638Y75390D02*
X257362D01*
X255000Y73028D02*
Y77752D01*
X252638Y65390D02*
X257362D01*
X255000Y63028D02*
Y67752D01*
X252638Y55390D02*
X257362D01*
X255000Y53028D02*
Y57752D01*
X252638Y45390D02*
X257362D01*
X255000Y43028D02*
Y47752D01*
X252638Y85390D02*
X257362D01*
X255000Y83028D02*
Y87752D01*
X79016Y72024D02*
X80984D01*
X80000Y71039D02*
Y73008D01*
X89016Y72024D02*
X90984D01*
X90000Y71039D02*
Y73008D01*
X99016Y72024D02*
X100984D01*
X100000Y71039D02*
Y73008D01*
X32835Y47500D02*
X37165D01*
X35000Y45335D02*
Y49665D01*
X43858Y28102D02*
X48189D01*
X46024Y25937D02*
Y30268D01*
X55669Y47000D02*
X60000D01*
X57835Y44835D02*
Y49165D01*
X158500Y10000D02*
X161500D01*
X160000Y8500D02*
Y11500D01*
X168500Y10000D02*
X171500D01*
X170000Y8500D02*
Y11500D01*
X108500Y10000D02*
X111500D01*
X110000Y8500D02*
Y11500D01*
X118500Y10000D02*
X121500D01*
X120000Y8500D02*
Y11500D01*
X128500Y10000D02*
X131500D01*
X130000Y8500D02*
Y11500D01*
X138500Y10000D02*
X141500D01*
X140000Y8500D02*
Y11500D01*
X148500Y10000D02*
X151500D01*
X150000Y8500D02*
Y11500D01*
X178500Y10000D02*
X181500D01*
X180000Y8500D02*
Y11500D01*
X228500Y200000D02*
X231500D01*
X230000Y198500D02*
Y201500D01*
X238500Y200000D02*
X241500D01*
X240000Y198500D02*
Y201500D01*
X178500Y200000D02*
X181500D01*
X180000Y198500D02*
Y201500D01*
X188500Y200000D02*
X191500D01*
X190000Y198500D02*
Y201500D01*
X198500Y200000D02*
X201500D01*
X200000Y198500D02*
Y201500D01*
X208500Y200000D02*
X211500D01*
X210000Y198500D02*
Y201500D01*
X218500Y200000D02*
X221500D01*
X220000Y198500D02*
Y201500D01*
X248500Y200000D02*
X251500D01*
X250000Y198500D02*
Y201500D01*
X72500Y200000D02*
X75500D01*
X74000Y198500D02*
Y201500D01*
X82500Y200000D02*
X85500D01*
X84000Y198500D02*
Y201500D01*
X92500Y200000D02*
X95500D01*
X94000Y198500D02*
Y201500D01*
X102500Y200000D02*
X105500D01*
X104000Y198500D02*
Y201500D01*
X112500Y200000D02*
X115500D01*
X114000Y198500D02*
Y201500D01*
X122500Y200000D02*
X125500D01*
X124000Y198500D02*
Y201500D01*
X132500Y200000D02*
X135500D01*
X134000Y198500D02*
Y201500D01*
X142500Y200000D02*
X145500D01*
X144000Y198500D02*
Y201500D01*
X152500Y200000D02*
X155500D01*
X154000Y198500D02*
Y201500D01*
X162500Y200000D02*
X165500D01*
X164000Y198500D02*
Y201500D01*
X248500Y10000D02*
X251500D01*
X250000Y8500D02*
Y11500D01*
X238500Y10000D02*
X241500D01*
X240000Y8500D02*
Y11500D01*
X228500Y10000D02*
X231500D01*
X230000Y8500D02*
Y11500D01*
X218500Y10000D02*
X221500D01*
X220000Y8500D02*
Y11500D01*
X208500Y10000D02*
X211500D01*
X210000Y8500D02*
Y11500D01*
X198500Y10000D02*
X201500D01*
X200000Y8500D02*
Y11500D01*
X53701Y200000D02*
X66299D01*
X60000Y193701D02*
Y206299D01*
X48701Y10000D02*
X61299D01*
X55000Y3701D02*
Y16299D01*
X253701Y30000D02*
X266299D01*
X260000Y23701D02*
Y36299D01*
X137008Y132500D02*
X137992D01*
X137500Y132008D02*
Y132992D01*
X209508Y75390D02*
X210492D01*
X210000Y74898D02*
Y75882D01*
X224508Y94034D02*
X225492D01*
X225000Y93542D02*
Y94526D01*
X224215Y85390D02*
X225199D01*
X224707Y84898D02*
Y85882D01*
X222008Y85390D02*
X222992D01*
X222500Y84898D02*
Y85882D01*
X219508Y85390D02*
X220492D01*
X220000Y84898D02*
Y85882D01*
X217008Y85390D02*
X217992D01*
X217500Y84898D02*
Y85882D01*
X214519Y85390D02*
X215503D01*
X215011Y84898D02*
Y85882D01*
X212008Y85390D02*
X212992D01*
X212500Y84898D02*
Y85882D01*
X222008Y94034D02*
X222992D01*
X222500Y93542D02*
Y94526D01*
X219508Y94034D02*
X220492D01*
X220000Y93542D02*
Y94526D01*
X217008Y94034D02*
X217992D01*
X217500Y93542D02*
Y94526D01*
X214519Y94034D02*
X215503D01*
X215011Y93542D02*
Y94526D01*
X212008Y93868D02*
X212992D01*
X212500Y93376D02*
Y94360D01*
X209508Y94034D02*
X210492D01*
X210000Y93542D02*
Y94526D01*
X207008Y94034D02*
X207992D01*
X207500Y93542D02*
Y94526D01*
X161681Y120111D02*
X162665D01*
X162173Y119619D02*
Y120603D01*
X24508Y94034D02*
X25492D01*
X25000Y93542D02*
Y94526D01*
X79988Y104063D02*
X80972D01*
X80480Y103571D02*
Y104555D01*
X247008Y80000D02*
X247992D01*
X247500Y79508D02*
Y80492D01*
X45531Y140004D02*
X46516D01*
X46024Y139512D02*
Y140496D01*
X177008Y118292D02*
X177992D01*
X177500Y117800D02*
Y118784D01*
X193405Y150000D02*
X194389D01*
X193897Y149508D02*
Y150492D01*
X81920Y30000D02*
X82904D01*
X82412Y29508D02*
Y30492D01*
X220965Y50994D02*
X221949D01*
X221457Y50502D02*
Y51486D01*
X166122Y47000D02*
X167106D01*
X166614Y46508D02*
Y47492D01*
X47988Y67500D02*
X48972D01*
X48480Y67008D02*
Y67992D01*
X123371Y116331D02*
X124356D01*
X123863Y115839D02*
Y116823D01*
X93695Y136358D02*
X94679D01*
X94187Y135866D02*
Y136850D01*
X94508Y130813D02*
X95492D01*
X95000Y130321D02*
Y131305D01*
X99866Y126516D02*
X100850D01*
X100358Y126024D02*
Y127008D01*
X146823Y96228D02*
X147807D01*
X147315Y95736D02*
Y96720D01*
X137008Y93868D02*
X137992D01*
X137500Y93376D02*
Y94360D01*
X82732Y106528D02*
X83716D01*
X83224Y106035D02*
Y107020D01*
X132008Y97500D02*
X132992D01*
X132500Y97008D02*
Y97992D01*
X143829Y106280D02*
X144813D01*
X144321Y105787D02*
Y106772D01*
X113508Y66614D02*
X114492D01*
X114000Y66122D02*
Y67106D01*
X74508Y105000D02*
X75492D01*
X75000Y104508D02*
Y105492D01*
X45472Y110704D02*
X46457D01*
X45965Y110212D02*
Y111196D01*
M02*
