%TF.GenerationSoftware,Altium Limited,Altium Designer,19.0.15 (446)*%
G04 Layer_Color=16711935*
%FSLAX25Y25*%
%MOIN*%
%TF.FileFunction,Soldermask,Bot*%
%TF.Part,Single*%
G01*
G75*
%TA.AperFunction,ComponentPad*%
%ADD34O,0.07874X0.11811*%
%ADD35R,0.07874X0.11811*%
%TA.AperFunction,ViaPad*%
%ADD54C,0.06800*%
%TA.AperFunction,ComponentPad*%
%ADD55R,0.16548X0.50013*%
%ADD56O,0.12800X0.05600*%
%ADD57R,0.12800X0.05600*%
%ADD58O,0.10642X0.07099*%
%ADD59C,0.08654*%
%ADD60R,0.08654X0.08654*%
%ADD61O,0.12800X0.08800*%
%ADD62C,0.08477*%
%ADD63R,0.08477X0.08477*%
%ADD64O,0.08674X0.10642*%
%ADD65O,0.06800X0.12800*%
%ADD66O,0.12611X0.20091*%
%ADD67O,0.20091X0.12611*%
%ADD68C,0.06800*%
%ADD69R,0.06800X0.06800*%
%TA.AperFunction,ViaPad*%
%ADD70C,0.13398*%
D34*
X184311Y101536D02*
D03*
D35*
X172500D02*
D03*
D54*
X120000Y108548D02*
D03*
X216810Y27500D02*
D03*
X226810D02*
D03*
X216810Y37500D02*
D03*
X226810D02*
D03*
X216810Y47500D02*
D03*
X226810D02*
D03*
X150280Y27205D02*
D03*
X160280D02*
D03*
X95561Y86563D02*
D03*
X105561D02*
D03*
X10280Y185000D02*
D03*
X20280D02*
D03*
X42780D02*
D03*
X32780D02*
D03*
D55*
X163096Y157500D02*
D03*
X223530D02*
D03*
D56*
X221457Y69488D02*
D03*
D57*
Y77362D02*
D03*
D58*
X246850Y157500D02*
D03*
Y167500D02*
D03*
Y177500D02*
D03*
X255000Y75390D02*
D03*
Y65390D02*
D03*
Y55390D02*
D03*
Y45390D02*
D03*
X255000Y85390D02*
D03*
D59*
X256650Y109114D02*
D03*
Y122500D02*
D03*
X240150Y102421D02*
D03*
Y115807D02*
D03*
D60*
Y129193D02*
D03*
D61*
X114000Y45000D02*
D03*
X74000D02*
D03*
X227500Y116331D02*
D03*
X187500D02*
D03*
D62*
X22461Y164842D02*
D03*
D63*
X22500Y144843D02*
D03*
D64*
X55630Y170000D02*
D03*
X145000D02*
D03*
D65*
X80000Y72024D02*
D03*
X90000D02*
D03*
X100000D02*
D03*
D66*
X35000Y47500D02*
D03*
X57835Y47000D02*
D03*
D67*
X46024Y28102D02*
D03*
D68*
X160000Y10000D02*
D03*
X170000D02*
D03*
X110000D02*
D03*
X120000D02*
D03*
X130000D02*
D03*
X140000D02*
D03*
X150000D02*
D03*
X230000Y200000D02*
D03*
X240000D02*
D03*
X180000D02*
D03*
X190000D02*
D03*
X200000D02*
D03*
X210000D02*
D03*
X220000D02*
D03*
X74000D02*
D03*
X84000D02*
D03*
X94000D02*
D03*
X104000D02*
D03*
X114000D02*
D03*
X124000D02*
D03*
X134000D02*
D03*
X144000D02*
D03*
X154000D02*
D03*
X250000Y10000D02*
D03*
X240000D02*
D03*
X230000D02*
D03*
X220000D02*
D03*
X210000D02*
D03*
D69*
X180000D02*
D03*
X250000Y200000D02*
D03*
X164000D02*
D03*
X200000Y10000D02*
D03*
D70*
X60000Y200000D02*
D03*
X55000Y10000D02*
D03*
X260000Y30000D02*
D03*
%TF.MD5,29a9f2c8639eb60afa84da03b3f29c67*%
M02*
