G04*
G04 #@! TF.GenerationSoftware,Altium Limited,Altium Designer,19.0.15 (446)*
G04*
G04 Layer_Color=16711935*
%FSLAX25Y25*%
%MOIN*%
G70*
G01*
G75*
%ADD21C,0.00500*%
D21*
X66299Y200000D02*
X66221Y200985D01*
X65991Y201946D01*
X65613Y202860D01*
X65096Y203702D01*
X64454Y204454D01*
X63702Y205096D01*
X62860Y205612D01*
X61946Y205991D01*
X60985Y206222D01*
X60000Y206299D01*
X59015Y206222D01*
X58053Y205991D01*
X57140Y205612D01*
X56297Y205096D01*
X55546Y204454D01*
X54904Y203702D01*
X54387Y202860D01*
X54009Y201946D01*
X53778Y200985D01*
X53701Y200000D01*
X53778Y199015D01*
X54009Y198054D01*
X54387Y197140D01*
X54904Y196298D01*
X55546Y195546D01*
X56297Y194904D01*
X57140Y194388D01*
X58053Y194009D01*
X59015Y193779D01*
X60000Y193701D01*
X60985Y193779D01*
X61946Y194009D01*
X62860Y194388D01*
X63702Y194904D01*
X64454Y195546D01*
X65096Y196298D01*
X65613Y197140D01*
X65991Y198054D01*
X66221Y199015D01*
X66299Y200000D01*
X266299Y29921D02*
X266221Y30907D01*
X265991Y31868D01*
X265612Y32781D01*
X265096Y33624D01*
X264454Y34375D01*
X263703Y35017D01*
X262860Y35534D01*
X261947Y35912D01*
X260985Y36143D01*
X260000Y36220D01*
X259015Y36143D01*
X258053Y35912D01*
X257140Y35534D01*
X256297Y35017D01*
X255546Y34375D01*
X254904Y33624D01*
X254388Y32781D01*
X254009Y31868D01*
X253779Y30907D01*
X253701Y29921D01*
X253779Y28936D01*
X254009Y27975D01*
X254388Y27062D01*
X254904Y26219D01*
X255546Y25467D01*
X256297Y24825D01*
X257140Y24309D01*
X258053Y23931D01*
X259015Y23700D01*
X260000Y23622D01*
X260985Y23700D01*
X261947Y23931D01*
X262860Y24309D01*
X263703Y24825D01*
X264454Y25467D01*
X265096Y26219D01*
X265612Y27062D01*
X265991Y27975D01*
X266221Y28936D01*
X266299Y29921D01*
X61299Y10000D02*
X61221Y10985D01*
X60991Y11947D01*
X60612Y12860D01*
X60096Y13702D01*
X59454Y14454D01*
X58702Y15096D01*
X57860Y15612D01*
X56946Y15991D01*
X55985Y16221D01*
X55000Y16299D01*
X54015Y16221D01*
X53053Y15991D01*
X52140Y15612D01*
X51297Y15096D01*
X50546Y14454D01*
X49904Y13702D01*
X49387Y12860D01*
X49009Y11947D01*
X48779Y10985D01*
X48701Y10000D01*
X48779Y9015D01*
X49009Y8054D01*
X49387Y7140D01*
X49904Y6297D01*
X50546Y5546D01*
X51297Y4904D01*
X52140Y4388D01*
X53053Y4009D01*
X54015Y3779D01*
X55000Y3701D01*
X55985Y3779D01*
X56946Y4009D01*
X57860Y4388D01*
X58702Y4904D01*
X59454Y5546D01*
X60096Y6297D01*
X60612Y7140D01*
X60991Y8054D01*
X61221Y9015D01*
X61299Y10000D01*
X260000Y854D02*
Y4724D01*
X270000Y14961D01*
Y15000D02*
Y150000D01*
X260000Y160000D02*
X270000Y150000D01*
X260000Y160000D02*
Y200000D01*
X250000Y210000D02*
X260000Y200000D01*
X0Y0D02*
Y210000D01*
Y0D02*
X260000D01*
X0Y210000D02*
X250000D01*
M02*
