M48
;Layer_Color=9474304
;FILE_FORMAT=2:5
INCH,LZ
;TYPE=PLATED
T1F00S00C0.00984
T2F00S00C0.01968
T3F00S00C0.03000
T6F00S00C0.04724
T7F00S00C0.05236
T8F00S00C0.05512
T9F00S00C0.12598
%
T01
X0082412Y003
X0221457Y0050994
X02225Y008539
X0224707
X022
X02175
X0215011
X02125
Y0093868
X021Y0094034
X02075
X0215011
X02175
X022
X02225
X0225
X021Y007539
X02475Y008
X0193897Y015
X01775Y0118292
X0162173Y0120111
X0144321Y010628
X0147315Y0096228
X01375Y0093868
X01325Y00975
X0123863Y0116331
X01375Y01325
X0100358Y0126516
X0095Y0130813
X0094187Y0136358
X0083224Y0106528
X008048Y0104063
X0075Y0105
X0045965Y0110704
X0046024Y0140004
X004848Y00675
X0114Y0066614
X0166614Y0047
X0025Y0094034
T02
X0221457Y0069488
Y0077362
X02275Y0116331
X022353Y01575
X0163096
X01725Y0101536
X0184311
X01875Y0116331
X01Y0072024
X009
X008
X0074Y0045
X0114
T03
X011Y001
X012
X013
X014
X015
X016
X017
X018
X016028Y0027205
X015028
X021681Y00275
X022681
X023Y001
X024
X025
X022
X021
X02
X021681Y00375
X022681
Y00475
X021681
X0105561Y0086563
X0095561
X012Y0108548
X004278Y0185
X003278
X002028
X001028
X0074Y02
X0084
X0094
X0104
X0114
X0124
X0134
X0144
X0154
X0164
X018
X019
X02
X021
X022
X023
X024
X025
T06
X0255Y004539
Y005539
Y006539
Y007539
X0255Y008539
X024685Y01575
Y01675
Y01775
T07
X024015Y0102421
Y0115807
Y0129193
X025665Y01225
Y0109114
T08
X00225Y0144843
X0022461Y0164842
T09
X0055Y001
X026Y003
X006Y02
M30
