G04*
G04 #@! TF.GenerationSoftware,Altium Limited,Altium Designer,19.0.15 (446)*
G04*
G04 Layer_Color=2752767*
%FSLAX25Y25*%
%MOIN*%
G70*
G01*
G75*
%ADD102C,0.00200*%
%ADD103C,0.00267*%
D102*
X119200Y107748D02*
Y109348D01*
X120800D01*
Y107748D01*
X119200D01*
X216010Y26700D02*
Y28300D01*
X217610D01*
Y26700D01*
X216010D01*
X226010D02*
Y28300D01*
X227610D01*
Y26700D01*
X226010D01*
X216010Y36700D02*
Y38300D01*
X217610D01*
Y36700D01*
X216010D01*
X226010D02*
Y38300D01*
X227610D01*
Y36700D01*
X226010D01*
X216010Y46700D02*
Y48300D01*
X217610D01*
Y46700D01*
X216010D01*
X226010D02*
Y48300D01*
X227610D01*
Y46700D01*
X226010D01*
X149480Y26405D02*
Y28005D01*
X151080D01*
Y26405D01*
X149480D01*
X159480D02*
Y28005D01*
X161080D01*
Y26405D01*
X159480D01*
X94761Y85763D02*
Y87363D01*
X96361D01*
Y85763D01*
X94761D01*
X104761D02*
Y87363D01*
X106361D01*
Y85763D01*
X104761D01*
X9480Y184200D02*
Y185800D01*
X11080D01*
Y184200D01*
X9480D01*
X19480D02*
Y185800D01*
X21080D01*
Y184200D01*
X19480D01*
X41980D02*
Y185800D01*
X43580D01*
Y184200D01*
X41980D01*
X31980D02*
Y185800D01*
X33580D01*
Y184200D01*
X31980D01*
X246850Y156700D02*
X246050Y158300D01*
X247650D01*
X246850Y156700D01*
Y166700D02*
X246050Y168300D01*
X247650D01*
X246850Y166700D01*
Y176700D02*
X246050Y178300D01*
X247650D01*
X246850Y176700D01*
X256650Y108314D02*
X257050Y108714D01*
X257450D01*
X257050Y109114D01*
X257450Y109514D01*
X257050D01*
X256650Y109914D01*
X256250Y109514D01*
X255850D01*
X256250Y109114D01*
X255850Y108714D01*
X256250D01*
X256650Y108314D01*
Y121700D02*
X257050Y122100D01*
X257450D01*
X257050Y122500D01*
X257450Y122900D01*
X257050D01*
X256650Y123300D01*
X256250Y122900D01*
X255850D01*
X256250Y122500D01*
X255850Y122100D01*
X256250D01*
X256650Y121700D01*
X240150Y101621D02*
X240550Y102021D01*
X240950D01*
X240550Y102421D01*
X240950Y102821D01*
X240550D01*
X240150Y103221D01*
X239750Y102821D01*
X239350D01*
X239750Y102421D01*
X239350Y102021D01*
X239750D01*
X240150Y101621D01*
Y115007D02*
X240550Y115407D01*
X240950D01*
X240550Y115807D01*
X240950Y116207D01*
X240550D01*
X240150Y116607D01*
X239750Y116207D01*
X239350D01*
X239750Y115807D01*
X239350Y115407D01*
X239750D01*
X240150Y115007D01*
Y128393D02*
X240550Y128793D01*
X240950D01*
X240550Y129193D01*
X240950Y129593D01*
X240550D01*
X240150Y129993D01*
X239750Y129593D01*
X239350D01*
X239750Y129193D01*
X239350Y128793D01*
X239750D01*
X240150Y128393D01*
X21661Y164042D02*
X22061Y164842D01*
X21661Y165642D01*
X22461Y165243D01*
X23261Y165642D01*
X22861Y164842D01*
X23261Y164042D01*
X22461Y164443D01*
X21661Y164042D01*
X21700Y144043D02*
X22100Y144843D01*
X21700Y145642D01*
X22500Y145243D01*
X23300Y145642D01*
X22900Y144843D01*
X23300Y144043D01*
X22500Y144442D01*
X21700Y144043D01*
X55230Y169600D02*
Y169200D01*
X56030D01*
Y169600D01*
X56430D01*
Y170400D01*
X56030D01*
Y170800D01*
X55230D01*
Y170400D01*
X54830D01*
Y169600D01*
X55230D01*
X144600D02*
Y169200D01*
X145400D01*
Y169600D01*
X145800D01*
Y170400D01*
X145400D01*
Y170800D01*
X144600D01*
Y170400D01*
X144200D01*
Y169600D01*
X144600D01*
X255000Y74590D02*
X254200Y76190D01*
X255800D01*
X255000Y74590D01*
Y64590D02*
X254200Y66190D01*
X255800D01*
X255000Y64590D01*
Y54590D02*
X254200Y56190D01*
X255800D01*
X255000Y54590D01*
Y44590D02*
X254200Y46190D01*
X255800D01*
X255000Y44590D01*
X255000Y84590D02*
X254200Y86190D01*
X255800D01*
X255000Y84590D01*
X34200Y46700D02*
X34600D01*
X35000Y47100D01*
X35400Y46700D01*
X35800D01*
Y47100D01*
X35400Y47500D01*
X35800Y47900D01*
Y48300D01*
X35400D01*
X35000Y47900D01*
X34600Y48300D01*
X34200D01*
Y47900D01*
X34600Y47500D01*
X34200Y47100D01*
Y46700D01*
X45224Y27302D02*
X45624D01*
X46024Y27702D01*
X46424Y27302D01*
X46824D01*
Y27702D01*
X46424Y28102D01*
X46824Y28502D01*
Y28902D01*
X46424D01*
X46024Y28502D01*
X45624Y28902D01*
X45224D01*
Y28502D01*
X45624Y28102D01*
X45224Y27702D01*
Y27302D01*
X57035Y46200D02*
X57435D01*
X57835Y46600D01*
X58235Y46200D01*
X58635D01*
Y46600D01*
X58235Y47000D01*
X58635Y47400D01*
Y47800D01*
X58235D01*
X57835Y47400D01*
X57435Y47800D01*
X57035D01*
Y47400D01*
X57435Y47000D01*
X57035Y46600D01*
Y46200D01*
X159200Y9200D02*
Y10800D01*
X160800D01*
Y9200D01*
X159200D01*
X169200D02*
Y10800D01*
X170800D01*
Y9200D01*
X169200D01*
X109200D02*
Y10800D01*
X110800D01*
Y9200D01*
X109200D01*
X119200D02*
Y10800D01*
X120800D01*
Y9200D01*
X119200D01*
X129200D02*
Y10800D01*
X130800D01*
Y9200D01*
X129200D01*
X139200D02*
Y10800D01*
X140800D01*
Y9200D01*
X139200D01*
X149200D02*
Y10800D01*
X150800D01*
Y9200D01*
X149200D01*
X179200D02*
Y10800D01*
X180800D01*
Y9200D01*
X179200D01*
X229200Y199200D02*
Y200800D01*
X230800D01*
Y199200D01*
X229200D01*
X239200D02*
Y200800D01*
X240800D01*
Y199200D01*
X239200D01*
X179200D02*
Y200800D01*
X180800D01*
Y199200D01*
X179200D01*
X189200D02*
Y200800D01*
X190800D01*
Y199200D01*
X189200D01*
X199200D02*
Y200800D01*
X200800D01*
Y199200D01*
X199200D01*
X209200D02*
Y200800D01*
X210800D01*
Y199200D01*
X209200D01*
X219200D02*
Y200800D01*
X220800D01*
Y199200D01*
X219200D01*
X249200D02*
Y200800D01*
X250800D01*
Y199200D01*
X249200D01*
X73200D02*
Y200800D01*
X74800D01*
Y199200D01*
X73200D01*
X83200D02*
Y200800D01*
X84800D01*
Y199200D01*
X83200D01*
X93200D02*
Y200800D01*
X94800D01*
Y199200D01*
X93200D01*
X103200D02*
Y200800D01*
X104800D01*
Y199200D01*
X103200D01*
X113200D02*
Y200800D01*
X114800D01*
Y199200D01*
X113200D01*
X123200D02*
Y200800D01*
X124800D01*
Y199200D01*
X123200D01*
X133200D02*
Y200800D01*
X134800D01*
Y199200D01*
X133200D01*
X143200D02*
Y200800D01*
X144800D01*
Y199200D01*
X143200D01*
X153200D02*
Y200800D01*
X154800D01*
Y199200D01*
X153200D01*
X163200D02*
Y200800D01*
X164800D01*
Y199200D01*
X163200D01*
X249200Y9200D02*
Y10800D01*
X250800D01*
Y9200D01*
X249200D01*
X239200D02*
Y10800D01*
X240800D01*
Y9200D01*
X239200D01*
X229200D02*
Y10800D01*
X230800D01*
Y9200D01*
X229200D01*
X219200D02*
Y10800D01*
X220800D01*
Y9200D01*
X219200D01*
X209200D02*
Y10800D01*
X210800D01*
Y9200D01*
X209200D01*
X199200D02*
Y10800D01*
X200800D01*
Y9200D01*
X199200D01*
X59200Y200000D02*
X60000Y200800D01*
X60800Y200000D01*
X60000Y199200D01*
X59200Y200000D01*
X54200Y10000D02*
X55000Y10800D01*
X55800Y10000D01*
X55000Y9200D01*
X54200Y10000D01*
X259200Y30000D02*
X260000Y30800D01*
X260800Y30000D01*
X260000Y29200D01*
X259200Y30000D01*
X136700Y131700D02*
Y133300D01*
X138300D01*
Y131700D01*
X136700D01*
X137100Y132100D02*
Y132900D01*
X137900D01*
Y132100D01*
X137100D01*
X209200Y74590D02*
Y76190D01*
X210800D01*
Y74590D01*
X209200D01*
X209600Y74990D02*
Y75790D01*
X210400D01*
Y74990D01*
X209600D01*
X224200Y93234D02*
Y94834D01*
X225800D01*
Y93234D01*
X224200D01*
X224600Y93634D02*
Y94434D01*
X225400D01*
Y93634D01*
X224600D01*
X223907Y84590D02*
Y86190D01*
X225507D01*
Y84590D01*
X223907D01*
X224307Y84990D02*
Y85790D01*
X225107D01*
Y84990D01*
X224307D01*
X221700Y84590D02*
Y86190D01*
X223300D01*
Y84590D01*
X221700D01*
X222100Y84990D02*
Y85790D01*
X222900D01*
Y84990D01*
X222100D01*
X219200Y84590D02*
Y86190D01*
X220800D01*
Y84590D01*
X219200D01*
X219600Y84990D02*
Y85790D01*
X220400D01*
Y84990D01*
X219600D01*
X216700Y84590D02*
Y86190D01*
X218300D01*
Y84590D01*
X216700D01*
X217100Y84990D02*
Y85790D01*
X217900D01*
Y84990D01*
X217100D01*
X214211Y84590D02*
Y86190D01*
X215811D01*
Y84590D01*
X214211D01*
X214611Y84990D02*
Y85790D01*
X215411D01*
Y84990D01*
X214611D01*
X211700Y84590D02*
Y86190D01*
X213300D01*
Y84590D01*
X211700D01*
X212100Y84990D02*
Y85790D01*
X212900D01*
Y84990D01*
X212100D01*
X221700Y93234D02*
Y94834D01*
X223300D01*
Y93234D01*
X221700D01*
X222100Y93634D02*
Y94434D01*
X222900D01*
Y93634D01*
X222100D01*
X219200Y93234D02*
Y94834D01*
X220800D01*
Y93234D01*
X219200D01*
X219600Y93634D02*
Y94434D01*
X220400D01*
Y93634D01*
X219600D01*
X216700Y93234D02*
Y94834D01*
X218300D01*
Y93234D01*
X216700D01*
X217100Y93634D02*
Y94434D01*
X217900D01*
Y93634D01*
X217100D01*
X214211Y93234D02*
Y94834D01*
X215811D01*
Y93234D01*
X214211D01*
X214611Y93634D02*
Y94434D01*
X215411D01*
Y93634D01*
X214611D01*
X211700Y93068D02*
Y94668D01*
X213300D01*
Y93068D01*
X211700D01*
X212100Y93468D02*
Y94268D01*
X212900D01*
Y93468D01*
X212100D01*
X209200Y93234D02*
Y94834D01*
X210800D01*
Y93234D01*
X209200D01*
X209600Y93634D02*
Y94434D01*
X210400D01*
Y93634D01*
X209600D01*
X206700Y93234D02*
Y94834D01*
X208300D01*
Y93234D01*
X206700D01*
X207100Y93634D02*
Y94434D01*
X207900D01*
Y93634D01*
X207100D01*
X161373Y119311D02*
Y120911D01*
X162973D01*
Y119311D01*
X161373D01*
X161773Y119711D02*
Y120511D01*
X162573D01*
Y119711D01*
X161773D01*
X24200Y93234D02*
Y94834D01*
X25800D01*
Y93234D01*
X24200D01*
X24600Y93634D02*
Y94434D01*
X25400D01*
Y93634D01*
X24600D01*
X79680Y103263D02*
Y104863D01*
X81280D01*
Y103263D01*
X79680D01*
X80080Y103663D02*
Y104463D01*
X80880D01*
Y103663D01*
X80080D01*
X246700Y79200D02*
Y80800D01*
X248300D01*
Y79200D01*
X246700D01*
X247100Y79600D02*
Y80400D01*
X247900D01*
Y79600D01*
X247100D01*
X45224Y139204D02*
Y140804D01*
X46824D01*
Y139204D01*
X45224D01*
X45624Y139604D02*
Y140404D01*
X46424D01*
Y139604D01*
X45624D01*
X176700Y117492D02*
Y119092D01*
X178300D01*
Y117492D01*
X176700D01*
X177100Y117892D02*
Y118692D01*
X177900D01*
Y117892D01*
X177100D01*
X193097Y149200D02*
Y150800D01*
X194697D01*
Y149200D01*
X193097D01*
X193497Y149600D02*
Y150400D01*
X194297D01*
Y149600D01*
X193497D01*
X81612Y29200D02*
Y30800D01*
X83212D01*
Y29200D01*
X81612D01*
X82012Y29600D02*
Y30400D01*
X82812D01*
Y29600D01*
X82012D01*
X220657Y50194D02*
Y51794D01*
X222257D01*
Y50194D01*
X220657D01*
X221057Y50594D02*
Y51394D01*
X221857D01*
Y50594D01*
X221057D01*
X165814Y46200D02*
Y47800D01*
X167414D01*
Y46200D01*
X165814D01*
X166214Y46600D02*
Y47400D01*
X167014D01*
Y46600D01*
X166214D01*
X47680Y66700D02*
Y68300D01*
X49280D01*
Y66700D01*
X47680D01*
X48080Y67100D02*
Y67900D01*
X48880D01*
Y67100D01*
X48080D01*
X123063Y115531D02*
Y117131D01*
X124663D01*
Y115531D01*
X123063D01*
X123463Y115931D02*
Y116731D01*
X124263D01*
Y115931D01*
X123463D01*
X93387Y135558D02*
Y137158D01*
X94987D01*
Y135558D01*
X93387D01*
X93787Y135958D02*
Y136758D01*
X94587D01*
Y135958D01*
X93787D01*
X94200Y130013D02*
Y131613D01*
X95800D01*
Y130013D01*
X94200D01*
X94600Y130413D02*
Y131213D01*
X95400D01*
Y130413D01*
X94600D01*
X99558Y125716D02*
Y127316D01*
X101158D01*
Y125716D01*
X99558D01*
X99958Y126116D02*
Y126916D01*
X100758D01*
Y126116D01*
X99958D01*
X146515Y95428D02*
Y97028D01*
X148115D01*
Y95428D01*
X146515D01*
X146915Y95828D02*
Y96628D01*
X147715D01*
Y95828D01*
X146915D01*
X136700Y93068D02*
Y94668D01*
X138300D01*
Y93068D01*
X136700D01*
X137100Y93468D02*
Y94268D01*
X137900D01*
Y93468D01*
X137100D01*
X82424Y105728D02*
Y107328D01*
X84024D01*
Y105728D01*
X82424D01*
X82824Y106128D02*
Y106928D01*
X83624D01*
Y106128D01*
X82824D01*
X131700Y96700D02*
Y98300D01*
X133300D01*
Y96700D01*
X131700D01*
X132100Y97100D02*
Y97900D01*
X132900D01*
Y97100D01*
X132100D01*
X143521Y105480D02*
Y107080D01*
X145121D01*
Y105480D01*
X143521D01*
X143921Y105879D02*
Y106679D01*
X144721D01*
Y105879D01*
X143921D01*
X113200Y65814D02*
Y67414D01*
X114800D01*
Y65814D01*
X113200D01*
X113600Y66214D02*
Y67014D01*
X114400D01*
Y66214D01*
X113600D01*
X74200Y104200D02*
Y105800D01*
X75800D01*
Y104200D01*
X74200D01*
X74600Y104600D02*
Y105400D01*
X75400D01*
Y104600D01*
X74600D01*
X45165Y109904D02*
Y111504D01*
X46765D01*
Y109904D01*
X45165D01*
X45565Y110304D02*
Y111104D01*
X46365D01*
Y110304D01*
X45565D01*
D103*
X185111Y101536D02*
X184558Y102297D01*
X183664Y102006D01*
Y101066D01*
X184558Y100775D01*
X185111Y101536D01*
X173300D02*
X172747Y102297D01*
X171853Y102006D01*
Y101066D01*
X172747Y100775D01*
X173300Y101536D01*
X163896Y157500D02*
X163344Y158261D01*
X162449Y157970D01*
Y157030D01*
X163344Y156739D01*
X163896Y157500D01*
X224329D02*
X223777Y158261D01*
X222882Y157970D01*
Y157030D01*
X223777Y156739D01*
X224329Y157500D01*
X222257Y69488D02*
X221704Y70249D01*
X220810Y69958D01*
Y69018D01*
X221704Y68727D01*
X222257Y69488D01*
Y77362D02*
X221704Y78123D01*
X220810Y77832D01*
Y76892D01*
X221704Y76601D01*
X222257Y77362D01*
X114800Y45000D02*
X114247Y45761D01*
X113353Y45470D01*
Y44530D01*
X114247Y44239D01*
X114800Y45000D01*
X74800D02*
X74247Y45761D01*
X73353Y45470D01*
Y44530D01*
X74247Y44239D01*
X74800Y45000D01*
X228300Y116331D02*
X227747Y117092D01*
X226853Y116801D01*
Y115860D01*
X227747Y115570D01*
X228300Y116331D01*
X188300D02*
X187747Y117092D01*
X186853Y116801D01*
Y115860D01*
X187747Y115570D01*
X188300Y116331D01*
X80800Y72024D02*
X80247Y72785D01*
X79353Y72494D01*
Y71553D01*
X80247Y71263D01*
X80800Y72024D01*
X90800D02*
X90247Y72785D01*
X89353Y72494D01*
Y71553D01*
X90247Y71263D01*
X90800Y72024D01*
X100800D02*
X100247Y72785D01*
X99353Y72494D01*
Y71553D01*
X100247Y71263D01*
X100800Y72024D01*
M02*
