%TF.GenerationSoftware,Altium Limited,Altium Designer,19.0.15 (446)*%
G04 Layer_Color=255*
%FSLAX25Y25*%
%MOIN*%
%TF.FileFunction,Pads,Top*%
%TF.Part,Single*%
G01*
G75*
%TA.AperFunction,SMDPad,CuDef*%
%ADD10R,0.02953X0.03543*%
%ADD11R,0.05315X0.04331*%
%ADD12R,0.04528X0.06890*%
%ADD13R,0.08071X0.06890*%
%ADD14R,0.04331X0.05315*%
%ADD15R,0.03543X0.02953*%
%ADD16R,0.04756X0.01636*%
%ADD17R,0.02000X0.04800*%
%ADD18R,0.13386X0.05315*%
%ADD19R,0.06693X0.11417*%
%ADD20O,0.04724X0.01772*%
%ADD21R,0.06902X0.11602*%
%ADD22R,0.05610X0.01181*%
%ADD23R,0.03150X0.03937*%
%ADD24R,0.06890X0.08071*%
%ADD25R,0.06496X0.08661*%
%ADD26R,0.08661X0.06496*%
%TA.AperFunction,ViaPad*%
%ADD33C,0.06000*%
%TA.AperFunction,ComponentPad*%
%ADD34O,0.07874X0.11811*%
%ADD35R,0.07874X0.11811*%
%ADD36R,0.15748X0.49213*%
%ADD37O,0.12000X0.04800*%
%ADD38R,0.12000X0.04800*%
%ADD39O,0.09843X0.06299*%
%ADD40C,0.07854*%
%ADD41R,0.07854X0.07854*%
%ADD42O,0.12000X0.08000*%
%ADD43C,0.07677*%
%ADD44R,0.07677X0.07677*%
%ADD45O,0.07874X0.09843*%
%ADD46O,0.06000X0.12000*%
%ADD47O,0.11811X0.19291*%
%ADD48O,0.19291X0.11811*%
%ADD49C,0.06000*%
%ADD50R,0.06000X0.06000*%
%TA.AperFunction,ViaPad*%
%ADD51C,0.12598*%
D10*
X97504Y32500D02*
D03*
X103212D02*
D03*
X123114Y87890D02*
D03*
X117405D02*
D03*
X107405Y114752D02*
D03*
X113114D02*
D03*
X244980Y140551D02*
D03*
X239272D02*
D03*
X154000Y45000D02*
D03*
X148291D02*
D03*
X156854Y93685D02*
D03*
X151146D02*
D03*
X149646Y108642D02*
D03*
X155354D02*
D03*
X119646Y55000D02*
D03*
X125354D02*
D03*
X39213Y87028D02*
D03*
X33504D02*
D03*
X125354Y62500D02*
D03*
X119646D02*
D03*
X37854Y93685D02*
D03*
X32146D02*
D03*
D11*
X195161Y99234D02*
D03*
Y106517D02*
D03*
X136642Y69032D02*
D03*
Y61748D02*
D03*
X99402Y143642D02*
D03*
Y136358D02*
D03*
X135260D02*
D03*
Y143642D02*
D03*
X87500Y124252D02*
D03*
Y116969D02*
D03*
X144000Y132717D02*
D03*
Y140000D02*
D03*
X155000Y53858D02*
D03*
Y61142D02*
D03*
X137134Y76047D02*
D03*
Y83331D02*
D03*
X80000Y98642D02*
D03*
Y91358D02*
D03*
D12*
X15807Y88817D02*
D03*
X4193D02*
D03*
X15807Y80000D02*
D03*
X4193D02*
D03*
D13*
X185000Y45554D02*
D03*
Y71145D02*
D03*
D14*
X115831Y94817D02*
D03*
X123114D02*
D03*
X187284Y85000D02*
D03*
X180000D02*
D03*
X120898Y142008D02*
D03*
X113614D02*
D03*
X238484Y147638D02*
D03*
X245768D02*
D03*
X150358Y101559D02*
D03*
X157642D02*
D03*
X5886Y108642D02*
D03*
X13169D02*
D03*
X36358Y120000D02*
D03*
X43642D02*
D03*
D15*
X130270Y109646D02*
D03*
Y115354D02*
D03*
X101185Y120650D02*
D03*
Y114941D02*
D03*
X137102Y120433D02*
D03*
Y114724D02*
D03*
X95000Y126177D02*
D03*
Y120468D02*
D03*
X143370Y126555D02*
D03*
Y120846D02*
D03*
X222500Y102854D02*
D03*
Y97146D02*
D03*
X230374D02*
D03*
Y102854D02*
D03*
D16*
X145862Y85953D02*
D03*
Y83394D02*
D03*
Y80835D02*
D03*
Y78276D02*
D03*
X154862D02*
D03*
Y80835D02*
D03*
Y83394D02*
D03*
Y85953D02*
D03*
D17*
X120260Y72326D02*
D03*
X124000D02*
D03*
X127740D02*
D03*
Y81326D02*
D03*
X124000D02*
D03*
X120260D02*
D03*
D18*
X52205Y87028D02*
D03*
Y102972D02*
D03*
D19*
X28839Y106280D02*
D03*
D20*
X37500Y99882D02*
D03*
Y102441D02*
D03*
Y105000D02*
D03*
Y107559D02*
D03*
Y110118D02*
D03*
Y112677D02*
D03*
X20177Y99882D02*
D03*
Y102441D02*
D03*
Y105000D02*
D03*
Y107559D02*
D03*
Y110118D02*
D03*
Y112677D02*
D03*
D21*
X117256Y127500D02*
D03*
D22*
X108547Y120610D02*
D03*
Y122579D02*
D03*
Y124547D02*
D03*
Y126516D02*
D03*
Y128484D02*
D03*
Y130453D02*
D03*
Y132421D02*
D03*
Y134390D02*
D03*
X125965D02*
D03*
Y132421D02*
D03*
Y130453D02*
D03*
Y128484D02*
D03*
Y126516D02*
D03*
Y124547D02*
D03*
Y122579D02*
D03*
Y120610D02*
D03*
D23*
X13996Y17500D02*
D03*
X7500D02*
D03*
X13996Y72500D02*
D03*
X7500D02*
D03*
D24*
X77756Y125000D02*
D03*
X52165D02*
D03*
D25*
X67500Y85811D02*
D03*
Y101559D02*
D03*
D26*
X42874Y75000D02*
D03*
X27126D02*
D03*
D33*
X120000Y108548D02*
D03*
X216810Y27500D02*
D03*
X226810D02*
D03*
X216810Y37500D02*
D03*
X226810D02*
D03*
X216810Y47500D02*
D03*
X226810D02*
D03*
X150280Y27205D02*
D03*
X160280D02*
D03*
X95561Y86563D02*
D03*
X105561D02*
D03*
X10280Y185000D02*
D03*
X20280D02*
D03*
X42780D02*
D03*
X32780D02*
D03*
D34*
X184311Y101536D02*
D03*
D35*
X172500D02*
D03*
D36*
X163096Y157500D02*
D03*
X223530D02*
D03*
D37*
X221457Y69488D02*
D03*
D38*
Y77362D02*
D03*
D39*
X246850Y157500D02*
D03*
Y167500D02*
D03*
Y177500D02*
D03*
X255000Y75390D02*
D03*
Y65390D02*
D03*
Y55390D02*
D03*
Y45390D02*
D03*
X255000Y85390D02*
D03*
D40*
X256650Y109114D02*
D03*
Y122500D02*
D03*
X240150Y102421D02*
D03*
Y115807D02*
D03*
D41*
Y129193D02*
D03*
D42*
X114000Y45000D02*
D03*
X74000D02*
D03*
X227500Y116331D02*
D03*
X187500D02*
D03*
D43*
X22461Y164842D02*
D03*
D44*
X22500Y144843D02*
D03*
D45*
X55630Y170000D02*
D03*
X145000D02*
D03*
D46*
X80000Y72024D02*
D03*
X90000D02*
D03*
X100000D02*
D03*
D47*
X35000Y47500D02*
D03*
X57835Y47000D02*
D03*
D48*
X46024Y28102D02*
D03*
D49*
X160000Y10000D02*
D03*
X170000D02*
D03*
X110000D02*
D03*
X120000D02*
D03*
X130000D02*
D03*
X140000D02*
D03*
X150000D02*
D03*
X230000Y200000D02*
D03*
X240000D02*
D03*
X180000D02*
D03*
X190000D02*
D03*
X200000D02*
D03*
X210000D02*
D03*
X220000D02*
D03*
X74000D02*
D03*
X84000D02*
D03*
X94000D02*
D03*
X104000D02*
D03*
X114000D02*
D03*
X124000D02*
D03*
X134000D02*
D03*
X144000D02*
D03*
X154000D02*
D03*
X250000Y10000D02*
D03*
X240000D02*
D03*
X230000D02*
D03*
X220000D02*
D03*
X210000D02*
D03*
D50*
X180000D02*
D03*
X250000Y200000D02*
D03*
X164000D02*
D03*
X200000Y10000D02*
D03*
D51*
X60000Y200000D02*
D03*
X55000Y10000D02*
D03*
X260000Y30000D02*
D03*
%TF.MD5,5d5aea218cc14854e0cc9024a0539c38*%
M02*
